<svg id="svg" version="1.1" xmlns="http://www.w3.org/2000/svg" xmlns:xlink="http://www.w3.org/1999/xlink" width="400" height="400" viewBox="0, 0, 400,400"><g id="svgg"><path id="path0" d="M124.000 31.240 C 124.000 31.438,122.560 31.600,120.800 31.600 C 118.933 31.600,117.600 31.767,117.600 32.000 C 117.600 32.220,116.801 32.400,115.824 32.400 C 114.847 32.400,113.936 32.580,113.800 32.800 C 113.664 33.020,113.034 33.200,112.400 33.200 C 111.766 33.200,111.136 33.380,111.000 33.600 C 110.864 33.820,110.223 34.000,109.576 34.000 C 108.929 34.000,108.400 34.180,108.400 34.400 C 108.400 34.620,107.961 34.800,107.424 34.800 C 106.887 34.800,106.336 34.980,106.200 35.200 C 106.064 35.420,105.603 35.600,105.176 35.600 C 104.749 35.600,104.399 35.735,104.397 35.900 C 104.392 36.347,102.374 37.200,101.320 37.200 C 100.814 37.200,100.400 37.338,100.400 37.506 C 100.400 37.674,99.673 38.126,98.785 38.511 C 97.898 38.895,97.068 39.478,96.943 39.805 C 96.817 40.132,96.374 40.400,95.957 40.400 C 95.541 40.400,95.200 40.559,95.200 40.754 C 95.200 40.949,94.559 41.413,93.776 41.785 C 92.993 42.156,92.252 42.720,92.130 43.037 C 92.009 43.355,91.697 43.566,91.437 43.507 C 91.177 43.448,90.470 43.895,89.864 44.500 C 89.259 45.105,88.574 45.600,88.342 45.600 C 88.110 45.600,87.034 46.455,85.951 47.500 C 80.576 52.688,79.273 54.124,79.472 54.645 C 79.590 54.950,79.511 55.200,79.297 55.200 C 78.586 55.200,76.845 57.252,77.067 57.830 C 77.200 58.178,77.035 58.400,76.643 58.400 C 76.289 58.400,76.000 58.567,76.000 58.771 C 76.000 58.976,75.774 59.381,75.498 59.671 C 75.221 59.962,74.563 61.055,74.035 62.100 C 73.506 63.145,72.923 64.000,72.737 64.000 C 72.552 64.000,72.400 64.270,72.400 64.600 C 72.400 64.930,72.220 65.200,72.000 65.200 C 71.780 65.200,71.600 65.434,71.600 65.720 C 71.600 66.456,70.659 68.393,70.300 68.397 C 70.135 68.399,70.000 68.940,70.000 69.600 C 70.000 70.260,69.820 70.800,69.600 70.800 C 69.380 70.800,69.200 71.149,69.200 71.576 C 69.200 72.003,69.020 72.464,68.800 72.600 C 68.580 72.736,68.400 73.199,68.400 73.629 C 68.400 74.059,68.192 74.813,67.938 75.305 C 66.919 77.276,66.800 77.632,66.800 78.715 C 66.800 79.334,66.637 80.011,66.439 80.220 C 66.073 80.604,65.749 82.629,65.351 87.000 C 65.231 88.320,64.968 89.571,64.766 89.780 C 64.262 90.303,64.293 101.487,64.800 101.800 C 65.020 101.936,65.200 103.387,65.200 105.024 C 65.200 106.741,65.369 108.000,65.600 108.000 C 65.820 108.000,66.000 108.619,66.000 109.376 C 66.000 110.133,66.180 110.864,66.400 111.000 C 66.620 111.136,66.800 111.957,66.800 112.824 C 66.800 113.691,66.980 114.400,67.200 114.400 C 67.420 114.400,67.600 114.839,67.600 115.376 C 67.600 115.913,67.780 116.464,68.000 116.600 C 68.220 116.736,68.400 117.276,68.400 117.800 C 68.400 118.324,68.580 118.864,68.800 119.000 C 69.020 119.136,69.200 119.561,69.200 119.944 C 69.200 120.819,70.099 122.793,70.500 122.797 C 70.665 122.799,70.800 123.160,70.800 123.600 C 70.800 124.040,70.980 124.400,71.200 124.400 C 71.420 124.400,71.600 124.760,71.600 125.200 C 71.600 125.640,71.780 126.000,72.000 126.000 C 72.220 126.000,72.400 126.360,72.400 126.800 C 72.400 127.240,72.580 127.600,72.800 127.600 C 73.020 127.600,73.200 127.894,73.200 128.253 C 73.200 128.612,73.516 129.197,73.903 129.553 C 74.289 129.909,74.860 130.695,75.170 131.300 C 75.481 131.905,75.885 132.400,76.068 132.400 C 76.250 132.400,76.400 132.678,76.400 133.018 C 76.400 133.358,76.850 134.086,77.400 134.636 C 77.950 135.186,78.400 135.777,78.400 135.948 C 78.400 136.119,80.194 138.072,82.386 140.288 L 86.372 144.316 85.052 144.564 C 83.789 144.801,78.988 147.036,77.913 147.887 C 76.958 148.643,73.575 150.400,73.074 150.400 C 72.800 150.400,72.317 150.760,72.000 151.200 C 71.683 151.640,71.169 152.000,70.859 152.000 C 70.548 152.000,70.003 152.316,69.647 152.703 C 69.291 153.089,68.505 153.660,67.900 153.970 C 67.295 154.281,66.800 154.685,66.800 154.868 C 66.800 155.050,66.612 155.200,66.383 155.200 C 66.154 155.200,65.580 155.560,65.108 156.000 C 64.636 156.440,63.968 156.801,63.625 156.801 C 63.281 156.802,62.640 157.341,62.200 158.000 C 61.760 158.659,61.167 159.198,60.883 159.199 C 60.599 159.199,60.100 159.425,59.775 159.700 C 59.449 159.975,58.602 160.696,57.892 161.301 C 55.763 163.116,55.695 163.161,55.443 162.909 C 55.309 162.776,55.200 162.867,55.200 163.111 C 55.200 163.355,54.470 164.240,53.578 165.077 C 51.547 166.984,46.073 172.449,43.300 175.339 C 42.145 176.542,41.200 177.774,41.200 178.075 C 41.200 178.377,40.816 178.888,40.346 179.212 C 39.076 180.087,38.000 181.288,38.000 181.830 C 38.000 182.094,37.462 182.735,36.804 183.255 C 36.146 183.775,35.606 184.427,35.604 184.704 C 35.602 184.981,35.060 185.772,34.400 186.463 C 33.740 187.154,33.200 187.934,33.200 188.197 C 33.200 188.461,32.840 189.002,32.400 189.400 C 31.960 189.798,31.600 190.366,31.600 190.662 C 31.600 190.958,31.420 191.200,31.200 191.200 C 30.980 191.200,30.800 191.538,30.800 191.951 C 30.800 192.364,30.530 192.926,30.200 193.200 C 29.870 193.474,29.600 193.847,29.600 194.029 C 29.600 194.211,29.060 195.160,28.400 196.138 C 27.740 197.116,27.200 198.096,27.200 198.315 C 27.200 198.535,26.933 198.817,26.607 198.942 C 26.269 199.072,26.115 199.435,26.250 199.785 C 26.379 200.123,26.286 200.400,26.043 200.400 C 25.799 200.400,25.600 200.634,25.600 200.920 C 25.600 201.656,24.659 203.593,24.300 203.597 C 24.135 203.599,24.000 203.960,24.000 204.400 C 24.000 204.840,23.820 205.200,23.600 205.200 C 23.380 205.200,23.200 205.560,23.200 206.000 C 23.200 206.440,23.020 206.800,22.800 206.800 C 22.580 206.800,22.400 207.239,22.400 207.776 C 22.400 208.313,22.220 208.864,22.000 209.000 C 21.780 209.136,21.600 209.597,21.600 210.024 C 21.600 210.451,21.420 210.800,21.200 210.800 C 20.980 210.800,20.800 211.351,20.800 212.024 C 20.800 212.737,20.633 213.144,20.400 213.000 C 20.173 212.860,20.000 213.196,20.000 213.776 C 20.000 214.339,19.820 214.800,19.600 214.800 C 19.380 214.800,19.200 215.250,19.200 215.800 C 19.200 216.350,19.020 216.800,18.800 216.800 C 18.580 216.800,18.400 217.329,18.400 217.976 C 18.400 218.623,18.220 219.264,18.000 219.400 C 17.780 219.536,17.600 220.087,17.600 220.624 C 17.600 221.161,17.420 221.600,17.200 221.600 C 16.980 221.600,16.800 222.320,16.800 223.200 C 16.800 224.080,16.620 224.800,16.400 224.800 C 16.180 224.800,16.000 225.340,16.000 226.000 C 16.000 226.660,15.820 227.200,15.600 227.200 C 15.380 227.200,15.200 227.819,15.200 228.576 C 15.200 229.333,15.020 230.064,14.800 230.200 C 14.580 230.336,14.400 231.247,14.400 232.224 C 14.400 233.201,14.250 234.000,14.067 234.000 C 13.884 234.000,13.816 234.981,13.915 236.181 C 14.052 237.836,13.940 238.517,13.448 239.009 C 12.996 239.461,12.800 240.376,12.800 242.029 C 12.800 243.343,12.622 244.400,12.400 244.400 C 12.143 244.400,12.000 248.400,12.000 255.600 C 12.000 262.800,12.143 266.800,12.400 266.800 C 12.620 266.800,12.800 267.520,12.800 268.400 C 12.800 269.508,12.973 270.000,13.362 270.000 C 13.734 270.000,14.018 270.679,14.200 272.000 C 14.351 273.099,14.638 274.100,14.837 274.223 C 15.037 274.346,15.200 274.797,15.200 275.224 C 15.200 275.651,15.380 276.000,15.600 276.000 C 15.820 276.000,16.000 276.236,16.000 276.525 C 16.000 276.813,16.360 277.436,16.800 277.908 C 17.240 278.380,17.600 279.001,17.600 279.287 C 17.600 279.573,17.960 280.032,18.400 280.307 C 18.840 280.582,19.200 281.051,19.200 281.349 C 19.200 282.014,27.918 290.800,28.577 290.800 C 28.837 290.800,29.568 291.340,30.200 292.000 C 30.832 292.660,31.584 293.200,31.871 293.200 C 32.158 293.200,32.618 293.560,32.893 294.000 C 33.168 294.440,33.669 294.800,34.008 294.800 C 34.346 294.800,34.883 295.160,35.200 295.600 C 35.517 296.040,35.971 296.400,36.209 296.400 C 36.875 296.400,38.793 297.363,38.797 297.700 C 38.799 297.865,39.160 298.000,39.600 298.000 C 40.040 298.000,40.400 298.180,40.400 298.400 C 40.400 298.620,40.634 298.800,40.920 298.800 C 41.656 298.800,43.593 299.741,43.597 300.100 C 43.599 300.265,43.866 300.400,44.190 300.400 C 44.515 300.400,45.370 300.759,46.090 301.199 C 46.811 301.638,47.715 301.998,48.100 301.999 C 48.485 301.999,48.800 302.137,48.800 302.304 C 48.800 302.471,50.240 303.054,52.000 303.600 C 53.760 304.146,55.200 304.690,55.200 304.809 C 55.200 304.928,55.666 305.064,56.236 305.111 C 56.805 305.158,57.480 305.328,57.736 305.488 C 57.991 305.649,58.499 305.731,58.865 305.671 C 59.230 305.611,59.646 305.750,59.788 305.981 C 59.931 306.211,60.577 306.400,61.224 306.400 C 61.871 306.400,62.400 306.580,62.400 306.800 C 62.400 307.020,63.030 307.200,63.800 307.200 C 64.570 307.200,65.200 307.380,65.200 307.600 C 65.200 307.820,65.920 308.000,66.800 308.000 C 67.680 308.000,68.400 308.180,68.400 308.400 C 68.400 308.620,68.940 308.800,69.600 308.800 C 70.667 308.800,70.800 308.933,70.800 310.000 C 70.800 310.660,70.980 311.200,71.200 311.200 C 71.420 311.200,71.600 312.179,71.600 313.376 C 71.600 314.573,71.780 315.664,72.000 315.800 C 72.220 315.936,72.400 316.757,72.400 317.624 C 72.400 318.491,72.580 319.200,72.800 319.200 C 73.020 319.200,73.200 319.751,73.200 320.424 C 73.200 321.137,73.367 321.544,73.600 321.400 C 73.833 321.256,74.000 321.663,74.000 322.376 C 74.000 323.049,74.180 323.600,74.400 323.600 C 74.620 323.600,74.800 323.960,74.800 324.400 C 74.800 324.840,74.980 325.200,75.200 325.200 C 75.420 325.200,75.600 325.520,75.600 325.912 C 75.600 326.303,75.960 326.883,76.400 327.200 C 76.840 327.517,77.200 328.097,77.200 328.488 C 77.200 328.880,77.377 329.200,77.592 329.200 C 77.808 329.200,78.109 329.693,78.260 330.296 C 78.534 331.386,79.287 332.400,79.825 332.400 C 80.217 332.400,81.600 334.039,81.600 334.505 C 81.600 334.997,85.862 339.200,86.361 339.200 C 86.568 339.200,87.444 339.920,88.307 340.800 C 89.169 341.680,90.101 342.400,90.377 342.400 C 90.653 342.400,91.383 342.940,92.000 343.600 C 92.617 344.260,93.409 344.800,93.760 344.800 C 94.112 344.800,94.400 344.980,94.400 345.200 C 94.400 345.420,94.670 345.600,95.000 345.600 C 95.330 345.600,95.600 345.780,95.600 346.000 C 95.600 346.220,95.855 346.400,96.167 346.400 C 96.478 346.400,96.793 346.542,96.867 346.715 C 96.940 346.888,98.048 347.537,99.329 348.158 C 100.610 348.779,101.755 349.538,101.872 349.844 C 101.990 350.150,102.416 350.400,102.819 350.400 C 103.223 350.400,103.664 350.580,103.800 350.800 C 103.936 351.020,104.487 351.200,105.024 351.200 C 105.561 351.200,106.000 351.380,106.000 351.600 C 106.000 351.820,106.252 352.000,106.559 352.000 C 106.867 352.000,108.145 352.540,109.400 353.200 C 110.655 353.860,111.912 354.400,112.195 354.400 C 112.888 354.400,114.837 355.430,114.597 355.670 C 114.492 355.775,114.945 355.781,115.603 355.685 C 116.321 355.580,116.800 355.687,116.800 355.955 C 116.800 356.208,117.491 356.400,118.400 356.400 C 119.280 356.400,120.000 356.580,120.000 356.800 C 120.000 357.020,120.540 357.200,121.200 357.200 C 121.860 357.200,122.400 357.380,122.400 357.600 C 122.400 357.820,122.940 358.000,123.600 358.000 C 124.260 358.000,124.800 358.180,124.800 358.400 C 124.800 358.620,125.520 358.800,126.400 358.800 C 127.280 358.800,128.000 358.980,128.000 359.200 C 128.000 359.420,128.619 359.600,129.376 359.600 C 130.133 359.600,130.864 359.780,131.000 360.000 C 131.136 360.220,131.867 360.400,132.624 360.400 C 133.381 360.400,134.000 360.580,134.000 360.800 C 134.000 361.020,134.709 361.200,135.576 361.200 C 136.443 361.200,137.264 361.380,137.400 361.600 C 137.536 361.820,138.447 362.000,139.424 362.000 C 140.401 362.000,141.200 362.180,141.200 362.400 C 141.200 362.620,141.931 362.800,142.824 362.800 C 143.804 362.800,144.349 362.958,144.200 363.200 C 144.048 363.446,144.721 363.600,145.953 363.600 C 147.053 363.600,148.064 363.780,148.200 364.000 C 148.336 364.220,149.416 364.400,150.600 364.400 C 151.784 364.400,152.864 364.580,153.000 364.800 C 153.136 365.020,154.407 365.200,155.824 365.200 C 157.275 365.200,158.400 365.375,158.400 365.600 C 158.400 365.826,159.533 366.000,161.000 366.000 C 162.467 366.000,163.600 366.174,163.600 366.400 C 163.600 366.640,165.192 366.800,167.576 366.800 C 169.796 366.800,171.662 366.977,171.800 367.200 C 171.946 367.436,174.330 367.600,177.600 367.600 C 180.870 367.600,183.254 367.764,183.400 368.000 C 183.738 368.547,212.262 368.547,212.600 368.000 C 212.749 367.760,215.471 367.600,219.424 367.600 C 223.541 367.600,226.000 367.450,226.000 367.200 C 226.000 366.959,227.659 366.800,230.176 366.800 C 232.529 366.800,234.461 366.625,234.600 366.400 C 234.736 366.180,236.187 366.000,237.824 366.000 C 239.541 366.000,240.800 365.831,240.800 365.600 C 240.800 365.371,242.000 365.200,243.600 365.200 C 245.200 365.200,246.400 365.029,246.400 364.800 C 246.400 364.580,247.379 364.400,248.576 364.400 C 249.773 364.400,250.864 364.220,251.000 364.000 C 251.136 363.780,252.327 363.600,253.647 363.600 C 255.145 363.600,255.954 363.450,255.800 363.200 C 255.648 362.953,256.329 362.800,257.576 362.800 C 258.689 362.800,259.600 362.620,259.600 362.400 C 259.600 362.180,260.500 362.000,261.600 362.000 C 262.700 362.000,263.600 361.820,263.600 361.600 C 263.600 361.380,264.219 361.200,264.976 361.200 C 265.733 361.200,266.464 361.020,266.600 360.800 C 266.736 360.580,267.557 360.400,268.424 360.400 C 269.291 360.400,270.000 360.220,270.000 360.000 C 270.000 359.780,270.439 359.600,270.976 359.600 C 271.513 359.600,272.064 359.420,272.200 359.200 C 272.336 358.980,273.067 358.800,273.824 358.800 C 274.581 358.800,275.200 358.620,275.200 358.400 C 275.200 358.180,275.740 358.000,276.400 358.000 C 277.060 358.000,277.600 357.820,277.600 357.600 C 277.600 357.380,278.140 357.200,278.800 357.200 C 279.460 357.200,280.000 357.020,280.000 356.800 C 280.000 356.580,280.540 356.400,281.200 356.400 C 281.860 356.400,282.400 356.207,282.400 355.971 C 282.400 355.736,282.805 355.582,283.300 355.631 C 284.310 355.730,285.104 355.481,287.338 354.367 C 288.184 353.945,289.123 353.600,289.426 353.600 C 289.728 353.600,290.617 353.240,291.400 352.800 C 292.183 352.360,293.089 352.000,293.412 352.000 C 293.735 352.000,294.000 351.820,294.000 351.600 C 294.000 351.380,294.345 351.200,294.767 351.200 C 295.188 351.200,295.593 351.065,295.667 350.900 C 295.855 350.476,300.799 348.000,301.456 348.000 C 301.755 348.000,302.000 347.820,302.000 347.600 C 302.000 347.380,302.270 347.200,302.600 347.200 C 302.930 347.200,303.200 347.020,303.200 346.800 C 303.200 346.580,303.470 346.400,303.800 346.400 C 304.130 346.400,304.400 346.220,304.400 346.000 C 304.400 345.780,304.630 345.600,304.912 345.600 C 305.193 345.600,305.683 345.240,306.000 344.800 C 306.317 344.360,306.825 344.000,307.128 344.000 C 307.431 344.000,308.183 343.460,308.800 342.800 C 309.417 342.140,310.187 341.600,310.512 341.600 C 310.837 341.600,311.920 340.703,312.917 339.607 C 313.914 338.511,315.196 337.402,315.765 337.143 C 316.334 336.884,316.800 336.474,316.800 336.232 C 316.800 335.688,319.949 332.400,320.470 332.400 C 320.677 332.400,320.749 332.241,320.629 332.047 C 320.509 331.853,320.768 331.239,321.205 330.684 C 321.642 330.128,322.000 329.431,322.000 329.133 C 322.000 328.836,322.360 328.368,322.800 328.093 C 323.240 327.818,323.600 327.235,323.600 326.797 C 323.600 326.358,323.780 326.000,324.000 326.000 C 324.220 326.000,324.400 325.640,324.400 325.200 C 324.400 324.760,324.535 324.399,324.700 324.397 C 325.101 324.393,326.000 322.419,326.000 321.544 C 326.000 321.161,326.180 320.736,326.400 320.600 C 326.620 320.464,326.800 319.924,326.800 319.400 C 326.800 318.876,326.980 318.336,327.200 318.200 C 327.420 318.064,327.600 317.344,327.600 316.600 C 327.600 315.856,327.780 315.136,328.000 315.000 C 328.220 314.864,328.400 313.413,328.400 311.776 L 328.400 308.800 329.600 308.800 C 330.260 308.800,330.800 308.620,330.800 308.400 C 330.800 308.180,331.520 308.000,332.400 308.000 C 333.305 308.000,334.000 307.807,334.000 307.556 C 334.000 307.285,334.541 307.176,335.389 307.275 C 336.283 307.379,336.848 307.252,336.976 306.918 C 337.086 306.632,337.795 306.400,338.564 306.400 C 339.328 306.400,340.069 306.211,340.212 305.981 C 340.354 305.750,340.770 305.611,341.135 305.671 C 341.501 305.731,342.009 305.649,342.264 305.488 C 342.520 305.328,343.195 305.158,343.764 305.111 C 344.334 305.064,344.800 304.924,344.800 304.800 C 344.800 304.676,345.655 304.343,346.700 304.061 C 347.745 303.778,348.913 303.379,349.295 303.173 C 349.677 302.968,350.262 302.800,350.595 302.800 C 350.928 302.800,351.200 302.620,351.200 302.400 C 351.200 302.180,351.605 301.996,352.100 301.991 C 352.595 301.986,353.450 301.630,354.000 301.200 C 354.550 300.770,355.315 300.414,355.700 300.409 C 356.085 300.404,356.400 300.220,356.400 300.000 C 356.400 299.780,356.760 299.600,357.200 299.600 C 357.640 299.600,358.000 299.420,358.000 299.200 C 358.000 298.980,358.360 298.800,358.800 298.800 C 359.240 298.800,359.600 298.620,359.600 298.400 C 359.600 298.180,359.945 298.000,360.367 298.000 C 360.788 298.000,361.193 297.865,361.267 297.700 C 361.340 297.535,362.255 296.967,363.300 296.437 C 364.345 295.908,365.200 295.323,365.200 295.137 C 365.200 294.952,365.442 294.800,365.738 294.800 C 366.034 294.800,366.602 294.440,367.000 294.000 C 367.398 293.560,367.932 293.200,368.187 293.200 C 368.442 293.200,369.168 292.660,369.800 292.000 C 370.432 291.340,371.144 290.800,371.382 290.800 C 372.045 290.800,380.800 282.051,380.800 281.389 C 380.800 281.069,381.160 280.582,381.600 280.307 C 382.040 280.032,382.400 279.531,382.400 279.192 C 382.400 278.854,382.760 278.317,383.200 278.000 C 383.640 277.683,384.000 277.103,384.000 276.712 C 384.000 276.320,384.180 276.000,384.400 276.000 C 384.620 276.000,384.800 275.651,384.800 275.224 C 384.800 274.797,384.980 274.336,385.200 274.200 C 385.420 274.064,385.600 273.524,385.600 273.000 C 385.600 272.476,385.780 271.936,386.000 271.800 C 386.220 271.664,386.400 271.203,386.400 270.776 C 386.400 270.349,386.580 270.000,386.800 270.000 C 387.020 270.000,387.200 269.280,387.200 268.400 C 387.200 267.520,387.380 266.800,387.600 266.800 C 387.857 266.800,388.000 262.800,388.000 255.600 C 388.000 249.097,387.847 244.400,387.634 244.400 C 387.433 244.400,387.161 243.185,387.030 241.700 C 386.421 234.814,386.309 234.000,385.966 234.000 C 385.765 234.000,385.600 233.201,385.600 232.224 C 385.600 231.247,385.420 230.336,385.200 230.200 C 384.980 230.064,384.800 229.333,384.800 228.576 C 384.800 227.819,384.620 227.200,384.400 227.200 C 384.180 227.200,384.000 226.660,384.000 226.000 C 384.000 225.340,383.820 224.800,383.600 224.800 C 383.380 224.800,383.200 224.181,383.200 223.424 C 383.200 222.667,383.020 221.936,382.800 221.800 C 382.580 221.664,382.400 221.124,382.400 220.600 C 382.400 220.076,382.220 219.536,382.000 219.400 C 381.780 219.264,381.600 218.623,381.600 217.976 C 381.600 217.329,381.420 216.800,381.200 216.800 C 380.980 216.800,380.800 216.350,380.800 215.800 C 380.800 215.250,380.620 214.800,380.400 214.800 C 380.180 214.800,380.000 214.350,380.000 213.800 C 380.000 213.250,379.820 212.800,379.600 212.800 C 379.380 212.800,379.200 212.350,379.200 211.800 C 379.200 211.250,379.020 210.800,378.800 210.800 C 378.580 210.800,378.400 210.451,378.400 210.024 C 378.400 209.597,378.220 209.136,378.000 209.000 C 377.780 208.864,377.600 208.313,377.600 207.776 C 377.600 207.239,377.420 206.800,377.200 206.800 C 376.980 206.800,376.800 206.440,376.800 206.000 C 376.800 205.560,376.620 205.200,376.400 205.200 C 376.180 205.200,376.000 204.840,376.000 204.400 C 376.000 203.960,375.865 203.599,375.700 203.597 C 375.341 203.593,374.400 201.656,374.400 200.920 C 374.400 200.634,374.201 200.400,373.957 200.400 C 373.714 200.400,373.616 200.135,373.741 199.811 C 373.865 199.486,373.749 199.081,373.483 198.911 C 372.992 198.595,372.585 197.948,371.152 195.198 C 370.710 194.349,370.089 193.440,369.774 193.178 C 369.458 192.916,369.200 192.364,369.200 191.951 C 369.200 191.538,369.020 191.200,368.800 191.200 C 368.580 191.200,368.400 190.958,368.400 190.662 C 368.400 190.366,368.040 189.798,367.600 189.400 C 367.160 189.002,366.800 188.416,366.800 188.098 C 366.800 187.781,366.260 187.017,365.600 186.400 C 364.940 185.783,364.400 185.115,364.400 184.914 C 364.400 184.714,363.860 184.032,363.200 183.400 C 362.540 182.768,362.000 182.048,362.000 181.801 C 362.000 181.284,360.900 180.070,359.654 179.212 C 359.184 178.888,358.800 178.378,358.800 178.078 C 358.800 177.778,357.855 176.536,356.700 175.317 C 353.251 171.678,348.060 166.489,347.718 166.339 C 347.543 166.263,346.725 165.434,345.900 164.499 C 345.075 163.563,344.400 162.895,344.400 163.015 C 344.400 163.244,344.227 163.113,342.000 161.200 C 339.734 159.253,339.657 159.200,339.117 159.199 C 338.833 159.198,338.240 158.659,337.800 158.000 C 337.360 157.341,336.713 156.802,336.362 156.801 C 336.011 156.801,335.398 156.440,335.000 156.000 C 334.602 155.560,334.034 155.200,333.738 155.200 C 333.442 155.200,333.200 155.050,333.200 154.868 C 333.200 154.685,332.705 154.281,332.100 153.970 C 331.495 153.660,330.709 153.089,330.353 152.703 C 329.997 152.316,329.452 152.000,329.141 152.000 C 328.831 152.000,328.317 151.640,328.000 151.200 C 327.683 150.760,327.200 150.400,326.926 150.400 C 326.425 150.400,323.042 148.643,322.087 147.887 C 320.997 147.023,316.202 144.799,314.908 144.556 L 313.547 144.301 315.873 142.031 C 320.265 137.745,323.600 133.846,323.600 132.997 C 323.600 132.669,323.750 132.400,323.932 132.400 C 324.115 132.400,324.519 131.905,324.830 131.300 C 325.140 130.695,325.711 129.909,326.097 129.553 C 326.484 129.197,326.800 128.612,326.800 128.253 C 326.800 127.894,326.980 127.600,327.200 127.600 C 327.420 127.600,327.600 127.240,327.600 126.800 C 327.600 126.360,327.780 126.000,328.000 126.000 C 328.220 126.000,328.400 125.640,328.400 125.200 C 328.400 124.760,328.580 124.400,328.800 124.400 C 329.020 124.400,329.200 124.040,329.200 123.600 C 329.200 123.160,329.335 122.799,329.500 122.797 C 329.947 122.792,330.800 120.774,330.800 119.720 C 330.800 119.214,330.980 118.800,331.200 118.800 C 331.420 118.800,331.600 118.361,331.600 117.824 C 331.600 117.287,331.780 116.736,332.000 116.600 C 332.220 116.464,332.400 115.913,332.400 115.376 C 332.400 114.839,332.580 114.400,332.800 114.400 C 333.020 114.400,333.200 113.691,333.200 112.824 C 333.200 111.957,333.380 111.136,333.600 111.000 C 333.820 110.864,334.000 110.133,334.000 109.376 C 334.000 108.619,334.180 108.000,334.400 108.000 C 334.631 108.000,334.800 106.741,334.800 105.024 C 334.800 103.387,334.980 101.936,335.200 101.800 C 335.437 101.654,335.600 99.204,335.600 95.800 C 335.600 92.396,335.437 89.946,335.200 89.800 C 334.980 89.664,334.800 88.429,334.800 87.056 C 334.800 85.683,334.638 84.389,334.441 84.180 C 334.244 83.971,333.984 83.080,333.864 82.200 C 333.343 78.388,333.029 77.220,331.953 75.105 C 331.759 74.723,331.600 73.958,331.600 73.405 C 331.600 72.852,331.420 72.400,331.200 72.400 C 330.980 72.400,330.800 72.040,330.800 71.600 C 330.800 71.160,330.620 70.800,330.400 70.800 C 330.180 70.800,330.000 70.260,330.000 69.600 C 330.000 68.940,329.865 68.399,329.700 68.397 C 329.341 68.393,328.400 66.456,328.400 65.720 C 328.400 65.434,328.220 65.200,328.000 65.200 C 327.780 65.200,327.600 64.930,327.600 64.600 C 327.600 64.270,327.448 64.000,327.263 64.000 C 327.077 64.000,326.494 63.145,325.965 62.100 C 325.437 61.055,324.779 59.962,324.502 59.671 C 324.226 59.381,324.000 58.976,324.000 58.771 C 324.000 58.567,323.711 58.400,323.357 58.400 C 322.974 58.400,322.800 58.176,322.927 57.846 C 323.044 57.541,322.613 56.788,321.970 56.171 C 321.326 55.555,320.800 54.823,320.800 54.545 C 320.800 54.267,320.485 53.856,320.100 53.632 C 319.715 53.408,319.516 53.219,319.657 53.212 C 320.201 53.186,312.207 45.600,311.635 45.600 C 311.416 45.600,310.741 45.105,310.136 44.500 C 309.530 43.895,308.823 43.448,308.563 43.507 C 308.303 43.566,307.991 43.355,307.870 43.037 C 307.748 42.720,307.007 42.156,306.224 41.785 C 305.441 41.413,304.800 40.949,304.800 40.754 C 304.800 40.559,304.558 40.400,304.262 40.400 C 303.966 40.400,303.430 40.075,303.071 39.678 C 302.711 39.281,301.783 38.707,301.009 38.403 C 300.234 38.099,299.600 37.704,299.600 37.525 C 299.600 37.346,299.186 37.200,298.680 37.200 C 297.626 37.200,295.608 36.347,295.603 35.900 C 295.601 35.735,295.240 35.600,294.800 35.600 C 294.360 35.600,294.000 35.420,294.000 35.200 C 294.000 34.980,293.460 34.800,292.800 34.800 C 292.140 34.800,291.600 34.620,291.600 34.400 C 291.600 34.180,291.071 34.000,290.424 34.000 C 289.777 34.000,289.136 33.820,289.000 33.600 C 288.864 33.380,288.234 33.200,287.600 33.200 C 286.966 33.200,286.336 33.020,286.200 32.800 C 286.064 32.580,285.153 32.400,284.176 32.400 C 283.199 32.400,282.400 32.246,282.400 32.058 C 282.400 31.871,281.005 31.681,279.300 31.637 C 277.595 31.593,276.140 31.387,276.067 31.178 C 275.884 30.659,265.200 30.680,265.200 31.200 C 265.200 31.431,263.941 31.600,262.224 31.600 C 260.587 31.600,259.136 31.780,259.000 32.000 C 258.864 32.220,257.953 32.400,256.976 32.400 C 255.999 32.400,255.200 32.580,255.200 32.800 C 255.200 33.020,254.581 33.200,253.824 33.200 C 253.067 33.200,252.336 33.380,252.200 33.600 C 252.064 33.820,251.524 34.000,251.000 34.000 C 250.476 34.000,249.936 34.180,249.800 34.400 C 249.664 34.620,249.209 34.800,248.789 34.800 C 248.368 34.800,247.383 35.160,246.600 35.600 C 245.817 36.040,244.721 36.400,244.164 36.400 C 243.592 36.400,243.260 36.574,243.400 36.800 C 243.536 37.020,243.277 37.200,242.824 37.200 C 242.371 37.200,242.000 37.380,242.000 37.600 C 242.000 37.820,241.640 38.000,241.200 38.000 C 240.760 38.000,240.400 38.180,240.400 38.400 C 240.400 38.620,240.080 38.800,239.688 38.800 C 239.297 38.800,238.717 39.160,238.400 39.600 C 238.083 40.040,237.503 40.400,237.112 40.400 C 236.720 40.400,236.400 40.580,236.400 40.800 C 236.400 41.020,236.158 41.200,235.862 41.200 C 235.566 41.200,234.998 41.560,234.600 42.000 C 234.202 42.440,233.662 42.800,233.400 42.800 C 233.138 42.800,232.602 43.155,232.209 43.590 C 231.816 44.024,231.134 44.494,230.693 44.634 C 229.796 44.919,220.000 54.619,220.000 55.222 C 220.000 55.434,219.523 56.142,218.941 56.796 C 218.358 57.450,217.679 58.393,217.431 58.892 C 216.944 59.873,212.800 60.525,212.800 59.621 C 212.800 59.366,211.686 59.200,209.976 59.200 C 208.196 59.200,207.244 59.052,207.400 58.800 C 207.562 58.539,204.996 58.400,200.000 58.400 C 195.004 58.400,192.438 58.539,192.600 58.800 C 192.756 59.052,191.804 59.200,190.024 59.200 C 188.314 59.200,187.200 59.366,187.200 59.621 C 187.200 60.538,183.055 59.871,182.560 58.874 C 182.307 58.365,181.628 57.456,181.050 56.853 C 180.473 56.250,180.000 55.556,180.000 55.312 C 180.000 54.666,170.254 44.935,169.306 44.634 C 168.866 44.494,168.184 44.024,167.791 43.590 C 167.398 43.155,166.862 42.800,166.600 42.800 C 166.338 42.800,165.798 42.440,165.400 42.000 C 165.002 41.560,164.434 41.200,164.138 41.200 C 163.842 41.200,163.600 41.020,163.600 40.800 C 163.600 40.580,163.280 40.400,162.888 40.400 C 162.497 40.400,161.917 40.040,161.600 39.600 C 161.283 39.160,160.703 38.800,160.312 38.800 C 159.920 38.800,159.600 38.620,159.600 38.400 C 159.600 38.180,159.240 38.000,158.800 38.000 C 158.360 38.000,158.000 37.820,158.000 37.600 C 158.000 37.380,157.629 37.200,157.176 37.200 C 156.723 37.200,156.464 37.020,156.600 36.800 C 156.740 36.574,156.408 36.400,155.836 36.400 C 155.279 36.400,154.183 36.040,153.400 35.600 C 152.617 35.160,151.632 34.800,151.211 34.800 C 150.791 34.800,150.336 34.620,150.200 34.400 C 150.064 34.180,149.524 34.000,149.000 34.000 C 148.476 34.000,147.936 33.820,147.800 33.600 C 147.664 33.380,146.933 33.200,146.176 33.200 C 145.419 33.200,144.800 33.020,144.800 32.800 C 144.800 32.580,144.001 32.400,143.024 32.400 C 142.047 32.400,141.136 32.220,141.000 32.000 C 140.864 31.780,139.413 31.600,137.776 31.600 C 135.977 31.600,134.800 31.435,134.800 31.183 C 134.800 30.911,132.919 30.786,129.400 30.823 C 126.430 30.855,124.000 31.043,124.000 31.240 M134.800 58.400 C 134.800 58.620,135.700 58.800,136.800 58.800 C 137.900 58.800,138.800 58.980,138.800 59.200 C 138.800 59.420,139.340 59.600,140.000 59.600 C 140.660 59.600,141.200 59.780,141.200 60.000 C 141.200 60.220,141.740 60.400,142.400 60.400 C 143.060 60.400,143.600 60.580,143.600 60.800 C 143.600 61.020,144.050 61.200,144.600 61.200 C 145.150 61.200,145.600 61.380,145.600 61.600 C 145.600 61.820,145.938 62.000,146.351 62.000 C 146.764 62.000,147.334 62.279,147.616 62.620 C 147.899 62.961,148.866 63.575,149.765 63.985 C 150.664 64.396,151.836 65.197,152.370 65.766 C 152.903 66.335,153.518 66.800,153.736 66.800 C 154.663 66.800,159.019 71.480,158.523 71.943 C 158.254 72.194,157.839 72.400,157.601 72.400 C 157.363 72.400,156.476 73.127,155.631 74.016 C 154.786 74.904,153.924 75.579,153.716 75.516 C 153.282 75.383,146.995 81.880,145.978 83.513 C 145.606 84.111,144.918 84.865,144.451 85.188 C 143.983 85.512,143.600 86.057,143.600 86.400 C 143.600 86.743,143.240 87.283,142.800 87.600 C 142.360 87.917,142.000 88.457,142.000 88.800 C 142.000 89.143,141.640 89.683,141.200 90.000 C 140.760 90.317,140.400 90.854,140.400 91.192 C 140.400 91.531,140.040 92.032,139.600 92.307 C 139.160 92.582,138.800 93.165,138.800 93.603 C 138.800 94.042,138.620 94.400,138.400 94.400 C 138.180 94.400,138.000 94.760,138.000 95.200 C 138.000 95.640,137.865 96.001,137.700 96.001 C 137.535 96.002,136.950 96.992,136.400 98.200 C 135.850 99.408,135.265 100.398,135.100 100.399 C 134.935 100.399,134.800 100.929,134.800 101.576 C 134.800 102.223,134.620 102.864,134.400 103.000 C 134.180 103.136,134.000 103.687,134.000 104.224 C 134.000 104.761,133.820 105.200,133.600 105.200 C 133.380 105.200,133.200 105.740,133.200 106.400 C 133.200 107.060,133.020 107.600,132.800 107.600 C 132.580 107.600,132.400 108.140,132.400 108.800 C 132.400 109.460,132.220 110.000,132.000 110.000 C 131.780 110.000,131.600 110.720,131.600 111.600 C 131.600 112.480,131.420 113.200,131.200 113.200 C 130.980 113.200,130.800 114.154,130.800 115.320 C 130.800 116.486,130.615 117.625,130.389 117.851 C 130.139 118.101,129.948 121.507,129.902 126.531 L 129.825 134.800 128.313 134.800 C 127.481 134.800,126.800 134.620,126.800 134.400 C 126.800 134.180,125.810 134.000,124.600 134.000 C 123.390 134.000,122.400 133.820,122.400 133.600 C 122.400 133.380,121.691 133.200,120.824 133.200 C 119.957 133.200,119.136 133.020,119.000 132.800 C 118.864 132.580,118.401 132.400,117.971 132.400 C 117.541 132.400,116.877 132.231,116.495 132.024 C 116.113 131.817,115.318 131.547,114.728 131.424 C 114.138 131.300,113.386 130.929,113.057 130.599 C 112.727 130.270,112.202 130.000,111.891 130.000 C 111.579 130.000,110.998 129.640,110.600 129.200 C 110.202 128.760,109.656 128.400,109.387 128.400 C 109.118 128.400,108.674 128.130,108.400 127.800 C 108.126 127.470,107.630 127.200,107.298 127.200 C 106.966 127.200,106.348 126.795,105.926 126.300 C 105.504 125.805,103.728 123.936,101.979 122.146 C 100.231 120.356,98.800 118.713,98.800 118.495 C 98.800 118.277,98.539 117.881,98.219 117.616 C 97.539 117.051,95.600 113.280,95.600 112.521 C 95.600 112.235,95.454 112.000,95.275 112.000 C 95.096 112.000,94.702 111.370,94.400 110.600 C 94.098 109.830,93.704 109.200,93.525 109.200 C 93.346 109.200,93.200 108.660,93.200 108.000 C 93.200 107.340,93.020 106.800,92.800 106.800 C 92.580 106.800,92.400 106.080,92.400 105.200 C 92.400 104.320,92.220 103.600,92.000 103.600 C 91.748 103.600,91.600 100.933,91.600 96.400 C 91.600 91.867,91.748 89.200,92.000 89.200 C 92.220 89.200,92.400 88.581,92.400 87.824 C 92.400 87.067,92.580 86.336,92.800 86.200 C 93.020 86.064,93.200 85.524,93.200 85.000 C 93.200 84.476,93.380 83.936,93.600 83.800 C 93.820 83.664,94.000 83.239,94.000 82.856 C 94.000 81.981,94.899 80.007,95.300 80.003 C 95.465 80.001,95.600 79.728,95.600 79.395 C 95.600 78.623,96.399 77.196,97.300 76.357 C 97.685 75.999,98.000 75.501,98.000 75.249 C 98.000 74.998,98.540 74.228,99.200 73.537 C 99.860 72.846,100.400 72.050,100.400 71.768 C 100.400 71.485,100.760 71.140,101.200 71.000 C 101.640 70.860,102.000 70.533,102.000 70.273 C 102.001 69.645,104.953 66.800,105.603 66.800 C 105.884 66.800,106.629 66.260,107.260 65.600 C 107.891 64.940,108.675 64.400,109.003 64.400 C 109.332 64.400,109.600 64.220,109.600 64.000 C 109.600 63.780,109.842 63.600,110.138 63.600 C 110.434 63.600,111.002 63.240,111.400 62.800 C 111.798 62.360,112.456 62.000,112.862 62.000 C 113.268 62.000,113.600 61.820,113.600 61.600 C 113.600 61.380,114.140 61.200,114.800 61.200 C 115.460 61.200,116.000 61.020,116.000 60.800 C 116.000 60.580,116.439 60.400,116.976 60.400 C 117.513 60.400,118.064 60.220,118.200 60.000 C 118.336 59.780,118.876 59.600,119.400 59.600 C 119.924 59.600,120.464 59.420,120.600 59.200 C 120.736 58.980,121.647 58.800,122.624 58.800 C 123.601 58.800,124.400 58.620,124.400 58.400 C 124.400 58.154,126.400 58.000,129.600 58.000 C 132.800 58.000,134.800 58.154,134.800 58.400 M275.600 58.400 C 275.600 58.620,276.500 58.800,277.600 58.800 C 278.700 58.800,279.600 58.980,279.600 59.200 C 279.600 59.420,280.230 59.600,281.000 59.600 C 281.770 59.600,282.400 59.780,282.400 60.000 C 282.400 60.220,282.760 60.400,283.200 60.400 C 283.640 60.400,284.000 60.580,284.000 60.800 C 284.000 61.020,284.540 61.200,285.200 61.200 C 285.860 61.200,286.400 61.380,286.400 61.600 C 286.400 61.820,286.732 62.000,287.138 62.000 C 287.544 62.000,288.202 62.360,288.600 62.800 C 288.998 63.240,289.566 63.600,289.862 63.600 C 290.158 63.600,290.400 63.780,290.400 64.000 C 290.400 64.220,290.717 64.400,291.104 64.400 C 291.492 64.400,292.255 64.940,292.800 65.600 C 293.345 66.260,294.034 66.800,294.331 66.800 C 295.021 66.800,298.000 69.606,298.000 70.255 C 298.000 70.525,298.360 70.860,298.800 71.000 C 299.240 71.140,299.600 71.485,299.600 71.768 C 299.600 72.050,300.140 72.846,300.800 73.537 C 301.460 74.228,302.000 74.940,302.000 75.121 C 302.000 75.301,302.315 75.807,302.700 76.245 C 303.689 77.370,304.400 78.686,304.400 79.395 C 304.400 79.728,304.535 80.001,304.700 80.003 C 305.101 80.007,306.000 81.981,306.000 82.856 C 306.000 83.239,306.180 83.664,306.400 83.800 C 306.620 83.936,306.800 84.476,306.800 85.000 C 306.800 85.524,306.980 86.064,307.200 86.200 C 307.420 86.336,307.600 87.067,307.600 87.824 C 307.600 88.581,307.780 89.200,308.000 89.200 C 308.252 89.200,308.400 91.867,308.400 96.400 C 308.400 100.933,308.252 103.600,308.000 103.600 C 307.780 103.600,307.600 104.320,307.600 105.200 C 307.600 106.080,307.420 106.800,307.200 106.800 C 306.980 106.800,306.800 107.340,306.800 108.000 C 306.800 108.660,306.620 109.200,306.400 109.200 C 306.180 109.200,306.000 109.740,306.000 110.400 C 306.000 111.060,305.820 111.600,305.600 111.600 C 305.380 111.600,305.200 111.960,305.200 112.400 C 305.200 112.840,305.020 113.200,304.800 113.200 C 304.580 113.200,304.400 113.442,304.400 113.738 C 304.400 114.034,304.040 114.602,303.600 115.000 C 303.160 115.398,302.800 115.938,302.800 116.200 C 302.800 116.462,302.440 117.002,302.000 117.400 C 301.560 117.798,301.200 118.284,301.200 118.479 C 301.200 118.876,300.686 119.547,299.168 121.126 C 298.601 121.717,298.021 122.518,297.879 122.906 C 297.737 123.294,297.211 123.770,296.710 123.964 C 296.210 124.157,295.062 125.142,294.160 126.151 C 293.258 127.161,292.396 127.863,292.244 127.711 C 292.092 127.559,291.535 127.938,291.006 128.554 C 290.476 129.170,289.866 129.564,289.649 129.430 C 289.433 129.297,289.142 129.370,289.004 129.593 C 288.866 129.817,288.403 130.000,287.976 130.000 C 287.549 130.000,287.200 130.160,287.200 130.357 C 287.200 130.984,281.538 133.185,279.900 133.194 C 279.295 133.197,278.800 133.380,278.800 133.600 C 278.800 133.822,277.733 134.000,276.400 134.000 C 275.067 134.000,274.000 134.178,274.000 134.400 C 274.000 134.620,273.108 134.800,272.017 134.800 L 270.033 134.800 269.842 127.300 C 269.618 118.511,269.275 114.400,268.766 114.400 C 268.565 114.400,268.400 113.691,268.400 112.824 C 268.400 111.957,268.220 111.136,268.000 111.000 C 267.780 110.864,267.600 110.324,267.600 109.800 C 267.600 109.276,267.420 108.736,267.200 108.600 C 266.980 108.464,266.800 107.744,266.800 107.000 C 266.800 106.256,266.620 105.536,266.400 105.400 C 266.180 105.264,266.000 104.803,266.000 104.376 C 266.000 103.949,265.820 103.600,265.600 103.600 C 265.380 103.600,265.200 103.265,265.200 102.856 C 265.200 102.054,262.795 97.087,262.300 96.867 C 262.135 96.793,262.000 96.388,262.000 95.967 C 262.000 95.545,261.820 95.200,261.600 95.200 C 261.380 95.200,261.200 94.840,261.200 94.400 C 261.200 93.960,261.020 93.600,260.800 93.600 C 260.580 93.600,260.400 93.280,260.400 92.888 C 260.400 92.497,260.040 91.917,259.600 91.600 C 259.160 91.283,258.800 90.743,258.800 90.400 C 258.800 90.057,258.440 89.517,258.000 89.200 C 257.560 88.883,257.200 88.303,257.200 87.912 C 257.200 87.520,257.009 87.200,256.776 87.200 C 256.543 87.200,256.464 87.020,256.600 86.800 C 256.736 86.580,256.612 86.397,256.324 86.392 C 256.036 86.388,255.260 85.492,254.600 84.400 C 253.940 83.308,253.220 82.411,253.000 82.407 C 252.450 82.396,249.600 79.321,249.600 78.738 C 249.600 78.479,249.503 78.364,249.385 78.482 C 249.266 78.601,247.925 77.461,246.404 75.949 C 244.883 74.437,243.426 73.200,243.166 73.200 C 242.906 73.200,242.353 72.806,241.935 72.325 C 241.172 71.446,243.997 67.600,245.406 67.600 C 245.647 67.600,246.457 66.966,247.208 66.192 C 247.958 65.418,249.928 64.119,251.586 63.306 C 253.244 62.493,254.660 61.686,254.733 61.514 C 254.807 61.341,255.212 61.200,255.633 61.200 C 256.055 61.200,256.400 61.020,256.400 60.800 C 256.400 60.580,256.760 60.400,257.200 60.400 C 257.640 60.400,258.000 60.220,258.000 60.000 C 258.000 59.780,258.720 59.600,259.600 59.600 C 260.480 59.600,261.200 59.420,261.200 59.200 C 261.200 58.980,261.920 58.800,262.800 58.800 C 263.680 58.800,264.400 58.620,264.400 58.400 C 264.400 58.152,266.533 58.000,270.000 58.000 C 273.467 58.000,275.600 58.152,275.600 58.400 M205.200 85.200 C 205.200 85.422,206.259 85.600,207.576 85.600 C 208.883 85.600,210.064 85.780,210.200 86.000 C 210.336 86.220,210.887 86.400,211.424 86.400 C 211.961 86.400,212.400 86.580,212.400 86.800 C 212.400 87.020,212.850 87.200,213.400 87.200 C 213.950 87.200,214.400 87.380,214.400 87.600 C 214.400 87.820,215.019 88.000,215.776 88.000 C 216.533 88.000,217.255 88.166,217.381 88.369 C 217.506 88.572,218.132 88.853,218.771 88.994 C 219.410 89.134,220.031 89.505,220.151 89.818 C 220.271 90.131,220.623 90.289,220.933 90.170 C 221.243 90.051,221.609 90.246,221.746 90.602 C 221.882 90.959,222.185 91.133,222.418 90.989 C 222.652 90.844,223.169 91.103,223.568 91.563 C 223.967 92.023,224.503 92.400,224.759 92.400 C 225.015 92.400,225.887 93.120,226.696 94.000 C 227.505 94.880,228.398 95.600,228.680 95.600 C 228.962 95.600,229.418 95.960,229.693 96.400 C 229.968 96.840,230.374 97.201,230.596 97.201 C 230.818 97.202,231.360 97.741,231.800 98.400 C 232.240 99.059,232.735 99.598,232.900 99.599 C 233.065 99.599,233.200 99.833,233.200 100.119 C 233.200 100.404,233.920 101.341,234.800 102.200 C 235.680 103.059,236.400 103.996,236.400 104.281 C 236.400 104.567,236.580 104.800,236.800 104.800 C 237.020 104.800,237.200 105.120,237.200 105.512 C 237.200 105.903,237.560 106.483,238.000 106.800 C 238.440 107.117,238.800 107.697,238.800 108.088 C 238.800 108.480,238.980 108.800,239.200 108.800 C 239.420 108.800,239.600 109.160,239.600 109.600 C 239.600 110.040,239.780 110.400,240.000 110.400 C 240.220 110.400,240.400 110.839,240.400 111.376 C 240.400 111.913,240.580 112.464,240.800 112.600 C 241.020 112.736,241.200 113.197,241.200 113.624 C 241.200 114.051,241.380 114.400,241.600 114.400 C 241.820 114.400,242.000 115.120,242.000 116.000 C 242.000 116.880,242.180 117.600,242.400 117.600 C 242.620 117.600,242.800 118.219,242.800 118.976 C 242.800 119.733,242.980 120.464,243.200 120.600 C 243.420 120.736,243.600 122.007,243.600 123.424 C 243.600 124.875,243.775 126.000,244.000 126.000 C 244.220 126.000,244.400 126.349,244.400 126.776 C 244.400 127.203,244.220 127.664,244.000 127.800 C 243.779 127.937,243.600 129.737,243.600 131.824 C 243.600 134.075,243.438 135.600,243.200 135.600 C 242.980 135.600,242.800 136.320,242.800 137.200 C 242.800 138.080,242.620 138.800,242.400 138.800 C 242.180 138.800,242.000 139.520,242.000 140.400 C 242.000 141.280,241.865 142.001,241.700 142.003 C 241.355 142.007,240.400 143.932,240.400 144.624 C 240.400 145.370,237.874 150.140,237.104 150.847 C 236.717 151.203,236.400 151.786,236.400 152.144 C 236.400 152.501,236.040 153.018,235.600 153.293 C 235.160 153.568,234.800 154.027,234.800 154.315 C 234.800 154.807,232.301 157.713,230.645 159.147 C 230.230 159.506,228.960 160.745,227.823 161.900 C 226.685 163.055,225.553 164.000,225.306 164.000 C 225.059 164.000,224.612 164.225,224.313 164.500 C 223.536 165.214,222.090 166.000,221.552 166.000 C 221.300 166.000,220.801 166.315,220.443 166.700 C 219.637 167.566,218.186 168.400,217.485 168.400 C 216.745 168.400,214.807 169.339,214.803 169.700 C 214.801 169.865,214.170 170.000,213.400 170.000 C 212.630 170.000,212.000 170.180,212.000 170.400 C 212.000 170.620,211.370 170.800,210.600 170.800 C 209.830 170.800,209.200 170.980,209.200 171.200 C 209.200 171.422,208.133 171.600,206.800 171.600 C 205.467 171.600,204.400 171.778,204.400 172.000 C 204.400 172.242,202.667 172.400,200.000 172.400 C 197.333 172.400,195.600 172.242,195.600 172.000 C 195.600 171.778,194.533 171.600,193.200 171.600 C 191.867 171.600,190.800 171.422,190.800 171.200 C 190.800 170.980,190.170 170.800,189.400 170.800 C 188.630 170.800,188.000 170.620,188.000 170.400 C 188.000 170.180,187.471 170.000,186.824 170.000 C 186.177 170.000,185.536 169.820,185.400 169.600 C 185.264 169.380,184.713 169.200,184.176 169.200 C 183.639 169.200,183.200 169.020,183.200 168.800 C 183.200 168.580,182.966 168.400,182.680 168.400 C 181.944 168.400,180.007 167.459,180.003 167.100 C 180.001 166.935,179.662 166.800,179.249 166.800 C 178.836 166.800,178.258 166.511,177.965 166.158 C 177.673 165.805,177.065 165.348,176.616 165.141 C 174.893 164.348,174.003 163.699,172.461 162.111 C 171.584 161.207,170.761 160.573,170.631 160.702 C 170.323 161.010,168.400 159.195,168.400 158.596 C 168.400 158.340,167.545 157.245,166.500 156.163 C 165.455 155.081,164.345 153.701,164.032 153.098 C 163.720 152.494,163.315 152.000,163.132 152.000 C 162.950 152.000,162.800 151.655,162.800 151.233 C 162.800 150.812,162.663 150.407,162.496 150.333 C 162.014 150.122,158.793 143.475,158.797 142.700 C 158.799 142.315,158.620 142.000,158.400 142.000 C 158.180 142.000,158.000 141.280,158.000 140.400 C 158.000 139.520,157.820 138.800,157.600 138.800 C 157.380 138.800,157.200 138.001,157.200 137.024 C 157.200 136.047,157.020 135.136,156.800 135.000 C 156.561 134.853,156.400 132.270,156.400 128.600 C 156.400 124.930,156.561 122.347,156.800 122.200 C 157.020 122.064,157.200 121.153,157.200 120.176 C 157.200 119.199,157.380 118.400,157.600 118.400 C 157.820 118.400,158.000 117.680,158.000 116.800 C 158.000 115.920,158.180 115.200,158.400 115.200 C 158.620 115.200,158.800 114.840,158.800 114.400 C 158.800 113.960,158.980 113.600,159.200 113.600 C 159.420 113.600,159.600 113.060,159.600 112.400 C 159.600 111.740,159.780 111.200,160.000 111.200 C 160.220 111.200,160.400 110.840,160.400 110.400 C 160.400 109.960,160.580 109.600,160.800 109.600 C 161.020 109.600,161.200 109.240,161.200 108.800 C 161.200 108.360,161.380 108.000,161.600 108.000 C 161.820 108.000,162.000 107.717,162.000 107.371 C 162.000 106.626,162.997 105.531,163.352 105.886 C 163.489 106.022,163.600 105.771,163.600 105.329 C 163.600 104.886,163.960 104.198,164.400 103.800 C 164.840 103.402,165.200 102.872,165.200 102.623 C 165.200 102.374,166.100 101.283,167.200 100.200 C 168.300 99.117,169.200 97.998,169.200 97.715 C 169.200 97.432,169.560 97.200,170.000 97.200 C 170.440 97.200,170.800 97.034,170.800 96.831 C 170.800 96.310,174.034 93.200,174.575 93.200 C 174.822 93.200,175.283 92.840,175.600 92.400 C 175.917 91.960,176.487 91.600,176.866 91.600 C 177.245 91.600,177.820 91.220,178.145 90.757 C 178.470 90.293,178.932 90.034,179.171 90.182 C 179.410 90.330,179.712 90.173,179.842 89.834 C 179.989 89.452,180.826 89.118,182.040 88.957 C 183.118 88.814,184.000 88.540,184.000 88.348 C 184.000 88.157,184.360 88.000,184.800 88.000 C 185.240 88.000,185.600 87.820,185.600 87.600 C 185.600 87.380,186.050 87.200,186.600 87.200 C 187.150 87.200,187.600 87.020,187.600 86.800 C 187.600 86.580,188.219 86.400,188.976 86.400 C 189.733 86.400,190.464 86.220,190.600 86.000 C 190.736 85.780,191.816 85.600,193.000 85.600 C 194.184 85.600,195.264 85.420,195.400 85.200 C 195.542 84.969,197.671 84.800,200.424 84.800 C 203.341 84.800,205.200 84.956,205.200 85.200 M138.129 161.715 C 138.886 162.544,139.600 163.940,139.600 164.595 C 139.600 164.928,139.780 165.200,140.000 165.200 C 140.220 165.200,140.400 165.442,140.400 165.738 C 140.400 166.034,140.760 166.602,141.200 167.000 C 141.640 167.398,142.000 167.978,142.000 168.288 C 142.000 168.598,142.527 169.295,143.171 169.837 C 143.814 170.378,144.458 171.352,144.600 172.001 C 144.743 172.650,144.994 173.140,145.158 173.090 C 145.466 172.997,153.805 181.180,153.546 181.321 C 153.466 181.364,152.997 181.625,152.505 181.900 C 152.013 182.175,151.338 182.400,151.005 182.400 C 150.672 182.400,150.400 182.580,150.400 182.800 C 150.400 183.020,149.860 183.200,149.200 183.200 C 148.540 183.200,148.000 183.346,148.000 183.525 C 148.000 183.704,147.370 184.098,146.600 184.400 C 145.830 184.702,145.200 185.096,145.200 185.275 C 145.200 185.454,144.880 185.600,144.488 185.600 C 144.097 185.600,143.517 185.960,143.200 186.400 C 142.883 186.840,142.303 187.200,141.912 187.200 C 141.520 187.200,141.200 187.380,141.200 187.600 C 141.200 187.820,140.840 188.000,140.400 188.000 C 139.960 188.000,139.600 188.180,139.600 188.400 C 139.600 188.620,139.364 188.800,139.075 188.800 C 138.787 188.800,138.164 189.160,137.692 189.600 C 137.220 190.040,136.556 190.400,136.217 190.400 C 135.878 190.400,135.600 190.580,135.600 190.800 C 135.600 191.020,135.283 191.200,134.896 191.200 C 134.509 191.200,133.968 191.560,133.693 192.000 C 133.418 192.440,132.901 192.800,132.544 192.800 C 132.186 192.800,131.563 193.181,131.159 193.647 C 130.678 194.202,130.182 194.402,129.724 194.226 C 129.339 194.079,129.156 194.089,129.316 194.249 C 129.696 194.630,128.029 196.400,127.291 196.400 C 126.977 196.400,126.217 196.940,125.600 197.600 C 124.983 198.260,124.295 198.800,124.070 198.800 C 123.846 198.800,122.956 199.520,122.093 200.400 C 121.231 201.280,120.342 202.000,120.119 202.000 C 119.601 202.000,102.800 218.819,102.800 219.337 C 102.800 219.550,102.080 220.409,101.200 221.246 C 100.320 222.083,99.600 222.973,99.600 223.223 C 99.600 223.474,99.060 224.183,98.400 224.800 C 97.740 225.417,97.200 226.117,97.200 226.356 C 97.200 226.787,96.819 227.314,94.700 229.810 C 94.095 230.523,93.600 231.279,93.600 231.491 C 93.600 232.128,92.426 234.281,91.792 234.807 C 91.466 235.077,91.200 235.546,91.200 235.849 C 91.200 236.152,91.020 236.400,90.800 236.400 C 90.580 236.400,90.400 236.720,90.400 237.112 C 90.400 237.503,90.040 238.083,89.600 238.400 C 89.160 238.717,88.800 239.297,88.800 239.688 C 88.800 240.080,88.620 240.400,88.400 240.400 C 88.180 240.400,88.000 240.760,88.000 241.200 C 88.000 241.640,87.820 242.000,87.600 242.000 C 87.380 242.000,87.200 242.371,87.200 242.824 C 87.200 243.277,87.020 243.536,86.800 243.400 C 86.573 243.260,86.400 243.596,86.400 244.176 C 86.400 244.739,86.265 245.201,86.100 245.203 C 85.741 245.207,84.800 247.144,84.800 247.880 C 84.800 248.166,84.620 248.400,84.400 248.400 C 84.180 248.400,84.000 248.670,84.000 249.000 C 84.000 249.330,83.843 249.600,83.650 249.600 C 83.458 249.600,83.196 250.118,83.070 250.752 C 82.943 251.385,82.560 252.182,82.220 252.523 C 81.879 252.864,81.600 253.606,81.600 254.171 C 81.600 254.737,81.390 255.200,81.133 255.200 C 80.877 255.200,80.787 255.321,80.935 255.468 C 81.082 255.616,80.948 256.125,80.636 256.601 C 80.324 257.077,79.944 258.301,79.791 259.320 C 79.638 260.340,79.263 261.382,78.957 261.636 C 78.650 261.890,78.400 262.515,78.400 263.025 C 78.400 263.535,78.220 264.064,78.000 264.200 C 77.780 264.336,77.600 264.797,77.600 265.224 C 77.600 265.651,77.451 266.000,77.269 266.000 C 77.087 266.000,77.018 266.540,77.115 267.200 C 77.220 267.920,77.113 268.400,76.845 268.400 C 76.592 268.400,76.400 269.091,76.400 270.000 C 76.400 270.880,76.220 271.600,76.000 271.600 C 75.780 271.600,75.600 272.320,75.600 273.200 C 75.600 274.080,75.420 274.800,75.200 274.800 C 74.980 274.800,74.800 275.394,74.800 276.120 C 74.800 276.846,74.631 277.611,74.425 277.820 C 74.219 278.029,73.994 279.010,73.925 280.000 L 73.800 281.800 72.200 281.661 C 71.320 281.585,70.540 281.360,70.467 281.161 C 70.393 280.963,69.817 280.800,69.185 280.800 C 68.554 280.800,67.624 280.635,67.119 280.433 C 65.083 279.619,64.564 279.484,63.751 279.562 C 63.284 279.607,62.807 279.394,62.689 279.089 C 62.572 278.783,61.424 278.210,60.138 277.815 C 58.852 277.420,57.629 276.940,57.420 276.749 C 57.211 276.557,56.525 276.400,55.896 276.400 C 55.236 276.400,54.857 276.231,55.000 276.000 C 55.136 275.780,54.964 275.600,54.618 275.600 C 53.888 275.600,52.582 274.900,51.445 273.900 C 51.007 273.515,50.413 273.200,50.125 273.200 C 49.836 273.200,49.600 273.020,49.600 272.800 C 49.600 272.580,49.242 272.400,48.803 272.400 C 48.365 272.400,47.782 272.040,47.507 271.600 C 47.232 271.160,46.763 270.800,46.465 270.800 C 45.190 270.800,38.884 263.634,39.410 262.784 C 39.540 262.573,39.430 262.400,39.165 262.400 C 38.504 262.400,38.886 242.705,39.552 242.483 C 39.798 242.401,40.000 241.538,40.000 240.567 C 40.000 239.595,40.180 238.800,40.400 238.800 C 40.620 238.800,40.800 237.911,40.800 236.824 C 40.800 235.737,40.980 234.736,41.200 234.600 C 41.420 234.464,41.600 233.924,41.600 233.400 C 41.600 232.876,41.780 232.336,42.000 232.200 C 42.220 232.064,42.400 231.513,42.400 230.976 C 42.400 230.439,42.580 230.000,42.800 230.000 C 43.020 230.000,43.200 229.460,43.200 228.800 C 43.200 228.140,43.380 227.600,43.600 227.600 C 43.820 227.600,44.000 227.060,44.000 226.400 C 44.000 225.740,44.180 225.200,44.400 225.200 C 44.620 225.200,44.800 224.660,44.800 224.000 C 44.800 223.340,44.980 222.800,45.200 222.800 C 45.420 222.800,45.600 222.440,45.600 222.000 C 45.600 221.560,45.780 221.200,46.000 221.200 C 46.220 221.200,46.400 220.857,46.400 220.438 C 46.400 219.622,48.001 216.288,48.500 216.067 C 48.665 215.993,48.800 215.695,48.800 215.404 C 48.800 214.699,50.422 211.598,51.300 210.625 C 51.685 210.198,52.000 209.613,52.000 209.325 C 52.000 209.036,52.180 208.800,52.400 208.800 C 52.620 208.800,52.800 208.462,52.800 208.049 C 52.800 207.636,53.079 207.066,53.420 206.784 C 53.761 206.501,54.395 205.489,54.830 204.535 C 55.264 203.581,55.795 202.800,56.010 202.800 C 56.224 202.800,56.400 202.460,56.400 202.045 C 56.400 201.630,56.938 200.865,57.596 200.345 C 58.254 199.825,58.794 199.161,58.796 198.869 C 58.798 198.576,59.520 197.646,60.400 196.800 C 61.280 195.954,62.000 195.049,62.000 194.788 C 62.000 194.333,67.585 188.664,69.674 187.000 C 70.226 186.560,70.996 185.705,71.385 185.100 C 71.774 184.495,72.371 184.000,72.713 184.000 C 73.054 184.000,73.222 183.889,73.086 183.752 C 72.796 183.462,73.768 182.400,74.323 182.400 C 74.532 182.400,75.445 181.680,76.352 180.800 C 77.259 179.920,78.227 179.200,78.504 179.200 C 78.781 179.200,79.232 178.840,79.507 178.400 C 79.782 177.960,80.274 177.600,80.600 177.600 C 80.926 177.600,81.709 177.060,82.340 176.400 C 82.971 175.740,83.782 175.200,84.143 175.200 C 84.504 175.200,84.800 175.020,84.800 174.800 C 84.800 174.580,85.117 174.400,85.504 174.400 C 85.891 174.400,86.432 174.040,86.707 173.600 C 86.982 173.160,87.445 172.800,87.736 172.800 C 88.026 172.800,89.150 172.351,90.232 171.802 C 91.314 171.253,92.425 170.803,92.700 170.802 C 92.975 170.801,93.201 170.665,93.203 170.500 C 93.207 170.141,95.144 169.200,95.880 169.200 C 96.166 169.200,96.401 169.065,96.403 168.900 C 96.407 168.541,98.344 167.600,99.080 167.600 C 99.366 167.600,99.600 167.420,99.600 167.200 C 99.600 166.980,100.140 166.800,100.800 166.800 C 101.460 166.800,102.000 166.620,102.000 166.400 C 102.000 166.180,102.450 166.000,103.000 166.000 C 103.550 166.000,104.000 165.820,104.000 165.600 C 104.000 165.380,104.529 165.200,105.176 165.200 C 105.823 165.200,106.464 165.020,106.600 164.800 C 106.736 164.580,107.287 164.400,107.824 164.400 C 108.361 164.400,108.800 164.220,108.800 164.000 C 108.800 163.780,109.520 163.600,110.400 163.600 C 111.280 163.600,112.000 163.420,112.000 163.200 C 112.000 162.980,112.799 162.800,113.776 162.800 C 114.753 162.800,115.664 162.620,115.800 162.400 C 115.936 162.180,117.207 162.000,118.624 162.000 C 120.075 162.000,121.200 161.825,121.200 161.600 C 121.200 160.957,137.537 161.069,138.129 161.715 M279.400 161.600 C 279.536 161.820,280.616 162.000,281.800 162.000 C 282.984 162.000,284.064 162.180,284.200 162.400 C 284.336 162.620,285.247 162.800,286.224 162.800 C 287.201 162.800,288.000 162.980,288.000 163.200 C 288.000 163.420,288.720 163.600,289.600 163.600 C 290.480 163.600,291.200 163.780,291.200 164.000 C 291.200 164.220,291.639 164.400,292.176 164.400 C 292.713 164.400,293.264 164.580,293.400 164.800 C 293.536 165.020,294.177 165.200,294.824 165.200 C 295.471 165.200,296.000 165.380,296.000 165.600 C 296.000 165.820,296.450 166.000,297.000 166.000 C 297.550 166.000,298.000 166.180,298.000 166.400 C 298.000 166.620,298.540 166.800,299.200 166.800 C 299.860 166.800,300.400 166.980,300.400 167.200 C 300.400 167.420,300.634 167.600,300.920 167.600 C 301.656 167.600,303.593 168.541,303.597 168.900 C 303.599 169.065,304.019 169.200,304.532 169.200 C 305.620 169.200,308.783 170.725,309.796 171.739 C 310.181 172.124,311.015 172.543,311.648 172.670 C 312.282 172.796,312.800 173.058,312.800 173.250 C 312.800 173.442,313.158 173.600,313.597 173.600 C 314.035 173.600,314.618 173.960,314.893 174.400 C 315.168 174.840,315.669 175.200,316.008 175.200 C 316.346 175.200,316.883 175.560,317.200 176.000 C 317.517 176.440,318.081 176.800,318.453 176.800 C 318.825 176.800,319.583 177.340,320.139 178.000 C 320.694 178.660,321.348 179.200,321.592 179.200 C 321.835 179.200,322.746 179.858,323.615 180.662 C 324.484 181.466,325.601 182.335,326.097 182.594 C 326.594 182.853,326.955 183.276,326.900 183.533 C 326.845 183.790,327.030 184.000,327.311 184.000 C 327.896 184.000,329.200 185.401,329.200 186.028 C 329.200 186.259,329.380 186.336,329.600 186.200 C 329.820 186.064,330.000 186.233,330.000 186.576 C 330.000 186.919,330.176 187.200,330.391 187.200 C 331.014 187.200,337.999 194.194,338.009 194.827 C 338.014 195.142,338.734 196.019,339.609 196.776 C 340.484 197.533,341.200 198.438,341.200 198.788 C 341.200 199.137,341.550 199.676,341.979 199.985 C 342.407 200.293,342.666 200.693,342.555 200.873 C 342.444 201.053,342.633 201.200,342.976 201.200 C 343.333 201.200,343.600 201.542,343.600 202.000 C 343.600 202.440,343.776 202.800,343.990 202.800 C 344.205 202.800,344.736 203.581,345.170 204.535 C 345.605 205.489,346.239 206.501,346.580 206.784 C 346.921 207.066,347.200 207.636,347.200 208.049 C 347.200 208.462,347.380 208.800,347.600 208.800 C 347.820 208.800,348.000 209.036,348.000 209.325 C 348.000 209.613,348.360 210.236,348.800 210.708 C 349.240 211.180,349.600 211.844,349.600 212.183 C 349.600 212.522,349.735 212.801,349.900 212.803 C 350.259 212.807,351.200 214.744,351.200 215.480 C 351.200 215.766,351.335 216.001,351.500 216.003 C 351.859 216.007,352.800 217.944,352.800 218.680 C 352.800 218.966,352.980 219.200,353.200 219.200 C 353.420 219.200,353.600 219.650,353.600 220.200 C 353.600 220.750,353.780 221.200,354.000 221.200 C 354.220 221.200,354.400 221.560,354.400 222.000 C 354.400 222.440,354.580 222.800,354.800 222.800 C 355.020 222.800,355.200 223.340,355.200 224.000 C 355.200 224.660,355.380 225.200,355.600 225.200 C 355.820 225.200,356.000 225.740,356.000 226.400 C 356.000 227.060,356.180 227.600,356.400 227.600 C 356.620 227.600,356.800 228.140,356.800 228.800 C 356.800 229.460,356.980 230.000,357.200 230.000 C 357.420 230.000,357.600 230.439,357.600 230.976 C 357.600 231.513,357.780 232.064,358.000 232.200 C 358.220 232.336,358.400 232.876,358.400 233.400 C 358.400 233.924,358.580 234.464,358.800 234.600 C 359.020 234.736,359.200 235.747,359.200 236.847 C 359.200 238.079,359.354 238.752,359.600 238.600 C 359.846 238.448,360.000 239.118,360.000 240.343 C 360.000 241.457,360.197 242.399,360.448 242.483 C 361.114 242.705,361.496 262.400,360.835 262.400 C 360.570 262.400,360.460 262.573,360.590 262.784 C 361.114 263.631,354.793 270.800,353.522 270.800 C 353.231 270.800,352.768 271.160,352.493 271.600 C 352.218 272.040,351.635 272.400,351.197 272.400 C 350.758 272.400,350.400 272.580,350.400 272.800 C 350.400 273.020,350.164 273.200,349.875 273.200 C 349.587 273.200,348.964 273.560,348.492 274.000 C 348.020 274.440,347.446 274.800,347.217 274.800 C 346.988 274.800,346.800 274.980,346.800 275.200 C 346.800 275.420,346.350 275.600,345.800 275.600 C 345.250 275.600,344.800 275.780,344.800 276.000 C 344.800 276.220,344.530 276.400,344.200 276.400 C 343.870 276.400,343.600 276.580,343.600 276.800 C 343.600 277.020,343.105 277.206,342.500 277.214 C 341.895 277.222,340.950 277.486,340.400 277.800 C 339.850 278.114,338.989 278.378,338.487 278.386 C 337.986 278.394,337.467 278.680,337.336 279.022 C 337.202 279.372,336.727 279.596,336.249 279.534 C 335.782 279.474,335.220 279.522,335.000 279.642 C 334.780 279.761,333.790 280.091,332.800 280.375 C 331.810 280.659,330.640 281.046,330.200 281.235 C 329.760 281.424,328.680 281.629,327.800 281.690 L 326.200 281.800 326.075 280.000 C 326.006 279.010,325.781 278.029,325.575 277.820 C 325.369 277.611,325.200 276.666,325.200 275.720 C 325.200 274.774,325.020 274.000,324.800 274.000 C 324.580 274.000,324.400 273.460,324.400 272.800 C 324.400 272.140,324.220 271.600,324.000 271.600 C 323.780 271.600,323.600 270.880,323.600 270.000 C 323.600 269.091,323.408 268.400,323.155 268.400 C 322.887 268.400,322.780 267.920,322.885 267.200 C 323.000 266.420,322.889 266.000,322.568 266.000 C 322.280 266.000,321.961 265.170,321.800 264.000 C 321.649 262.901,321.362 261.900,321.163 261.777 C 320.963 261.654,320.800 261.124,320.800 260.600 C 320.800 260.076,320.620 259.536,320.400 259.400 C 320.180 259.264,319.994 258.758,319.987 258.276 C 319.980 257.794,319.716 257.058,319.400 256.641 C 319.084 256.224,318.920 255.729,319.036 255.541 C 319.152 255.353,319.057 255.200,318.824 255.200 C 318.591 255.200,318.400 254.660,318.400 254.000 C 318.400 253.340,318.265 252.799,318.100 252.797 C 317.741 252.793,316.800 250.856,316.800 250.120 C 316.800 249.834,316.620 249.600,316.400 249.600 C 316.180 249.600,316.000 249.330,316.000 249.000 C 316.000 248.670,315.820 248.400,315.600 248.400 C 315.380 248.400,315.200 248.040,315.200 247.600 C 315.200 247.160,315.020 246.800,314.800 246.800 C 314.580 246.800,314.400 246.451,314.400 246.024 C 314.400 245.597,314.220 245.136,314.000 245.000 C 313.780 244.864,313.600 244.393,313.600 243.953 C 313.600 243.513,313.420 243.264,313.200 243.400 C 312.980 243.536,312.800 243.277,312.800 242.824 C 312.800 242.371,312.620 242.000,312.400 242.000 C 312.180 242.000,312.000 241.640,312.000 241.200 C 312.000 240.760,311.820 240.400,311.600 240.400 C 311.380 240.400,311.200 240.080,311.200 239.688 C 311.200 239.297,310.840 238.717,310.400 238.400 C 309.960 238.083,309.600 237.503,309.600 237.112 C 309.600 236.720,309.420 236.400,309.200 236.400 C 308.980 236.400,308.800 236.083,308.800 235.696 C 308.800 235.309,308.440 234.768,308.000 234.493 C 307.560 234.218,307.200 233.753,307.200 233.459 C 307.200 233.165,306.839 232.597,306.397 232.198 C 305.956 231.798,305.639 231.275,305.694 231.036 C 305.794 230.602,303.673 227.521,303.100 227.267 C 302.935 227.193,302.799 226.923,302.798 226.667 C 302.797 226.410,302.257 225.625,301.598 224.922 C 300.939 224.219,300.400 223.446,300.400 223.206 C 300.400 222.965,299.680 222.083,298.800 221.246 C 297.920 220.409,297.200 219.525,297.200 219.281 C 297.200 218.873,294.646 216.170,292.358 214.157 C 291.831 213.693,288.914 210.768,285.875 207.657 C 282.836 204.545,280.153 202.000,279.912 202.000 C 279.672 202.000,278.769 201.280,277.907 200.400 C 277.044 199.520,276.154 198.800,275.930 198.800 C 275.705 198.800,275.017 198.260,274.400 197.600 C 273.783 196.940,273.023 196.400,272.709 196.400 C 271.971 196.400,270.304 194.630,270.684 194.249 C 270.844 194.089,270.661 194.079,270.276 194.226 C 269.818 194.402,269.322 194.202,268.841 193.647 C 268.437 193.181,267.814 192.800,267.456 192.800 C 267.099 192.800,266.582 192.440,266.307 192.000 C 266.032 191.560,265.491 191.200,265.104 191.200 C 264.717 191.200,264.400 191.020,264.400 190.800 C 264.400 190.580,264.122 190.400,263.783 190.400 C 263.444 190.400,262.780 190.040,262.308 189.600 C 261.836 189.160,261.213 188.800,260.925 188.800 C 260.636 188.800,260.400 188.620,260.400 188.400 C 260.400 188.180,260.040 188.000,259.600 188.000 C 259.160 188.000,258.800 187.820,258.800 187.600 C 258.800 187.380,258.440 187.200,258.000 187.200 C 257.560 187.200,257.200 187.020,257.200 186.800 C 257.200 186.580,256.840 186.400,256.400 186.400 C 255.960 186.400,255.600 186.220,255.600 186.000 C 255.600 185.780,255.330 185.600,255.000 185.600 C 254.670 185.600,254.400 185.420,254.400 185.200 C 254.400 184.980,254.130 184.800,253.800 184.800 C 253.470 184.800,253.200 184.620,253.200 184.400 C 253.200 184.180,252.876 184.000,252.480 184.000 C 251.586 184.000,249.607 183.106,249.603 182.700 C 249.601 182.535,249.366 182.400,249.080 182.400 C 248.344 182.400,246.407 181.459,246.403 181.100 C 246.401 180.935,246.642 180.800,246.938 180.800 C 247.576 180.800,252.000 176.604,252.000 175.998 C 252.000 175.384,254.455 172.787,254.822 173.014 C 254.994 173.120,255.253 172.670,255.397 172.014 C 255.541 171.358,256.186 170.378,256.829 169.837 C 257.473 169.295,258.000 168.598,258.000 168.288 C 258.000 167.978,258.360 167.398,258.800 167.000 C 259.240 166.602,259.600 166.034,259.600 165.738 C 259.600 165.442,259.780 165.200,260.000 165.200 C 260.220 165.200,260.400 164.868,260.400 164.462 C 260.400 164.056,260.760 163.398,261.200 163.000 C 261.640 162.602,262.000 162.034,262.000 161.738 C 262.000 161.069,278.988 160.934,279.400 161.600 M205.400 199.200 C 205.536 199.420,207.066 199.600,208.800 199.600 C 210.534 199.600,212.064 199.780,212.200 200.000 C 212.336 200.220,213.427 200.400,214.624 200.400 C 215.821 200.400,216.800 200.580,216.800 200.800 C 216.800 201.020,217.520 201.200,218.400 201.200 C 219.280 201.200,220.000 201.380,220.000 201.600 C 220.000 201.820,220.720 202.000,221.600 202.000 C 222.480 202.000,223.200 202.180,223.200 202.400 C 223.200 202.620,223.920 202.800,224.800 202.800 C 225.680 202.800,226.400 202.980,226.400 203.200 C 226.400 203.420,226.839 203.600,227.376 203.600 C 227.913 203.600,228.464 203.780,228.600 204.000 C 228.736 204.220,229.332 204.406,229.924 204.413 C 230.516 204.420,231.349 204.690,231.776 205.013 C 232.204 205.336,233.039 205.600,233.634 205.600 C 234.228 205.600,234.817 205.867,234.942 206.193 C 235.072 206.531,235.435 206.685,235.785 206.550 C 236.123 206.421,236.400 206.514,236.400 206.757 C 236.400 207.001,236.760 207.200,237.200 207.200 C 237.640 207.200,238.000 207.380,238.000 207.600 C 238.000 207.820,238.360 208.000,238.800 208.000 C 239.240 208.000,239.600 208.180,239.600 208.400 C 239.600 208.620,239.960 208.800,240.400 208.800 C 240.840 208.800,241.200 208.980,241.200 209.200 C 241.200 209.420,241.560 209.600,242.000 209.600 C 242.440 209.600,242.800 209.746,242.800 209.925 C 242.800 210.104,243.430 210.498,244.200 210.800 C 244.970 211.102,245.600 211.496,245.600 211.675 C 245.600 211.854,245.938 212.000,246.351 212.000 C 246.764 212.000,247.334 212.279,247.616 212.620 C 247.899 212.961,248.882 213.582,249.800 214.000 C 250.718 214.418,251.701 215.039,251.984 215.380 C 252.266 215.721,252.666 216.000,252.871 216.000 C 253.076 216.000,253.819 216.539,254.522 217.198 C 255.225 217.857,255.991 218.397,256.225 218.398 C 256.459 218.399,257.168 218.940,257.800 219.600 C 258.432 220.260,259.182 220.800,259.466 220.800 C 259.749 220.800,260.276 221.250,260.637 221.800 C 260.997 222.350,261.541 222.800,261.846 222.800 C 262.151 222.800,262.400 222.980,262.400 223.200 C 262.400 223.420,262.599 223.600,262.841 223.600 C 263.404 223.600,274.800 234.938,274.800 235.498 C 274.800 235.728,275.258 236.340,275.818 236.858 C 276.377 237.376,277.122 238.333,277.472 238.985 C 277.822 239.637,278.534 240.505,279.054 240.914 C 279.574 241.323,280.005 241.870,280.011 242.129 C 280.017 242.388,280.557 243.125,281.211 243.767 C 281.865 244.408,282.400 245.145,282.400 245.405 C 282.400 245.664,282.760 246.202,283.200 246.600 C 283.640 246.998,284.000 247.590,284.000 247.915 C 284.000 248.240,284.324 248.797,284.720 249.153 C 285.117 249.509,285.760 250.486,286.151 251.324 C 286.541 252.162,287.117 252.947,287.430 253.067 C 287.744 253.187,288.000 253.626,288.000 254.043 C 288.000 254.459,288.180 254.800,288.400 254.800 C 288.620 254.800,288.800 255.160,288.800 255.600 C 288.800 256.040,288.980 256.400,289.200 256.400 C 289.420 256.400,289.600 256.760,289.600 257.200 C 289.600 257.640,289.780 258.000,290.000 258.000 C 290.220 258.000,290.400 258.360,290.400 258.800 C 290.400 259.240,290.580 259.600,290.800 259.600 C 291.020 259.600,291.200 259.960,291.200 260.400 C 291.200 260.840,291.380 261.200,291.600 261.200 C 291.820 261.200,292.000 261.560,292.000 262.000 C 292.000 262.440,292.180 262.800,292.400 262.800 C 292.620 262.800,292.800 263.160,292.800 263.600 C 292.800 264.040,292.980 264.400,293.200 264.400 C 293.420 264.400,293.600 264.940,293.600 265.600 C 293.600 266.260,293.799 266.800,294.043 266.800 C 294.286 266.800,294.384 267.064,294.260 267.387 C 294.136 267.710,294.207 268.081,294.417 268.211 C 294.628 268.341,294.800 268.876,294.800 269.400 C 294.800 269.924,294.944 270.442,295.121 270.551 C 295.297 270.660,295.693 271.672,296.000 272.800 C 296.307 273.928,296.703 274.940,296.879 275.049 C 297.056 275.158,297.200 275.777,297.200 276.424 C 297.200 277.071,297.380 277.600,297.600 277.600 C 297.820 277.600,298.000 278.140,298.000 278.800 C 298.000 279.460,298.180 280.000,298.400 280.000 C 298.620 280.000,298.800 280.720,298.800 281.600 C 298.800 282.480,298.980 283.200,299.200 283.200 C 299.420 283.200,299.600 284.010,299.600 285.000 C 299.600 285.990,299.780 286.800,300.000 286.800 C 300.220 286.800,300.400 287.599,300.400 288.576 C 300.400 289.553,300.580 290.464,300.800 290.600 C 301.020 290.736,301.200 291.996,301.200 293.400 C 301.200 294.804,301.380 296.064,301.600 296.200 C 301.842 296.349,302.000 299.196,302.000 303.400 C 302.000 307.604,301.842 310.451,301.600 310.600 C 301.380 310.736,301.200 311.287,301.200 311.824 C 301.200 312.361,301.020 312.800,300.800 312.800 C 300.580 312.800,300.400 313.261,300.400 313.824 C 300.400 314.404,300.227 314.740,300.000 314.600 C 299.780 314.464,299.600 314.650,299.600 315.014 C 299.600 315.377,299.240 315.769,298.800 315.884 C 298.360 315.999,298.000 316.422,298.000 316.824 C 298.000 317.226,297.641 317.806,297.203 318.113 C 296.764 318.420,296.524 318.791,296.669 318.936 C 296.814 319.081,296.423 319.200,295.800 319.200 C 295.177 319.200,294.773 319.306,294.903 319.436 C 295.211 319.744,292.478 322.400,291.854 322.400 C 291.591 322.400,291.117 322.760,290.800 323.200 C 290.483 323.640,289.903 324.000,289.512 324.000 C 289.120 324.000,288.800 324.180,288.800 324.400 C 288.800 324.620,288.440 324.800,288.000 324.800 C 287.560 324.800,287.200 324.980,287.200 325.200 C 287.200 325.420,286.840 325.600,286.400 325.600 C 285.960 325.600,285.600 325.780,285.600 326.000 C 285.600 326.220,285.240 326.400,284.800 326.400 C 284.360 326.400,284.000 326.580,284.000 326.800 C 284.000 327.020,283.685 327.208,283.300 327.217 C 282.915 327.227,281.880 327.676,281.000 328.215 C 278.967 329.460,278.896 329.489,277.100 329.787 C 276.275 329.924,275.600 330.208,275.600 330.418 C 275.600 330.628,275.060 330.800,274.400 330.800 C 273.740 330.800,273.200 330.980,273.200 331.200 C 273.200 331.420,272.660 331.600,272.000 331.600 C 271.340 331.600,270.800 331.780,270.800 332.000 C 270.800 332.220,270.260 332.400,269.600 332.400 C 268.940 332.400,268.400 332.580,268.400 332.800 C 268.400 333.020,267.961 333.200,267.424 333.200 C 266.887 333.200,266.336 333.380,266.200 333.600 C 266.064 333.820,265.434 334.000,264.800 334.000 C 264.166 334.000,263.536 334.180,263.400 334.400 C 263.264 334.620,262.443 334.800,261.576 334.800 C 260.709 334.800,260.000 334.980,260.000 335.200 C 260.000 335.420,259.381 335.600,258.624 335.600 C 257.867 335.600,257.136 335.780,257.000 336.000 C 256.864 336.220,255.964 336.400,255.000 336.400 C 254.036 336.400,253.136 336.580,253.000 336.800 C 252.864 337.020,251.863 337.200,250.776 337.200 C 249.689 337.200,248.800 337.380,248.800 337.600 C 248.800 337.820,247.990 338.000,247.000 338.000 C 246.010 338.000,245.200 338.180,245.200 338.400 C 245.200 338.620,244.221 338.800,243.024 338.800 C 241.827 338.800,240.736 338.980,240.600 339.200 C 240.464 339.420,239.024 339.600,237.400 339.600 C 235.776 339.600,234.336 339.780,234.200 340.000 C 234.064 340.220,232.444 340.400,230.600 340.400 C 228.756 340.400,227.136 340.580,227.000 340.800 C 226.856 341.033,224.604 341.200,221.600 341.200 C 218.596 341.200,216.344 341.367,216.200 341.600 C 216.042 341.856,210.204 342.000,200.000 342.000 C 189.796 342.000,183.958 341.856,183.800 341.600 C 183.656 341.367,181.404 341.200,178.400 341.200 C 175.396 341.200,173.144 341.033,173.000 340.800 C 172.864 340.580,171.244 340.400,169.400 340.400 C 167.556 340.400,165.936 340.220,165.800 340.000 C 165.664 339.780,164.393 339.600,162.976 339.600 C 161.525 339.600,160.400 339.425,160.400 339.200 C 160.400 338.971,159.200 338.800,157.600 338.800 C 156.000 338.800,154.800 338.629,154.800 338.400 C 154.800 338.180,153.990 338.000,153.000 338.000 C 152.010 338.000,151.200 337.820,151.200 337.600 C 151.200 337.380,150.311 337.200,149.224 337.200 C 148.137 337.200,147.136 337.020,147.000 336.800 C 146.864 336.580,145.953 336.400,144.976 336.400 C 143.999 336.400,143.200 336.220,143.200 336.000 C 143.200 335.780,142.480 335.600,141.600 335.600 C 140.720 335.600,140.000 335.420,140.000 335.200 C 140.000 334.980,139.280 334.800,138.400 334.800 C 137.520 334.800,136.800 334.620,136.800 334.400 C 136.800 334.180,136.350 334.000,135.800 334.000 C 135.250 334.000,134.800 333.820,134.800 333.600 C 134.800 333.380,134.080 333.200,133.200 333.200 C 132.320 333.200,131.600 333.020,131.600 332.800 C 131.600 332.580,131.060 332.400,130.400 332.400 C 129.740 332.400,129.200 332.220,129.200 332.000 C 129.200 331.780,128.660 331.600,128.000 331.600 C 127.340 331.600,126.800 331.420,126.800 331.200 C 126.800 330.980,126.451 330.800,126.024 330.800 C 125.597 330.800,125.142 330.630,125.014 330.423 C 124.886 330.216,123.931 329.924,122.891 329.774 C 121.851 329.625,120.730 329.297,120.400 329.047 C 119.243 328.168,117.270 327.200,116.638 327.200 C 116.287 327.200,116.000 327.020,116.000 326.800 C 116.000 326.580,115.640 326.400,115.200 326.400 C 114.760 326.400,114.400 326.220,114.400 326.000 C 114.400 325.780,114.040 325.600,113.600 325.600 C 113.160 325.600,112.800 325.420,112.800 325.200 C 112.800 324.980,112.440 324.800,112.000 324.800 C 111.560 324.800,111.200 324.620,111.200 324.400 C 111.200 324.180,110.880 324.000,110.488 324.000 C 110.097 324.000,109.517 323.640,109.200 323.200 C 108.883 322.760,108.395 322.400,108.115 322.400 C 107.558 322.400,105.200 320.087,105.200 319.541 C 105.200 319.353,104.999 319.200,104.753 319.200 C 104.294 319.200,102.018 316.819,102.006 316.327 C 102.003 316.177,101.640 315.940,101.200 315.800 C 100.760 315.660,100.400 315.278,100.400 314.949 C 100.400 314.621,100.220 314.464,100.000 314.600 C 99.773 314.740,99.600 314.404,99.600 313.824 C 99.600 313.261,99.420 312.800,99.200 312.800 C 98.980 312.800,98.800 312.530,98.800 312.200 C 98.800 311.870,98.620 311.600,98.400 311.600 C 98.180 311.600,98.000 310.700,98.000 309.600 C 98.000 308.500,97.820 307.600,97.600 307.600 C 97.380 307.600,97.200 306.790,97.200 305.800 C 97.200 304.810,97.380 304.000,97.600 304.000 C 97.845 304.000,98.000 302.067,98.000 299.000 C 98.000 295.933,98.155 294.000,98.400 294.000 C 98.625 294.000,98.800 292.875,98.800 291.424 C 98.800 290.007,98.980 288.736,99.200 288.600 C 99.420 288.464,99.600 287.733,99.600 286.976 C 99.600 286.219,99.780 285.600,100.000 285.600 C 100.220 285.600,100.400 284.711,100.400 283.624 C 100.400 282.537,100.580 281.536,100.800 281.400 C 101.020 281.264,101.200 280.724,101.200 280.200 C 101.200 279.676,101.380 279.136,101.600 279.000 C 101.820 278.864,102.000 278.133,102.000 277.376 C 102.000 276.619,102.180 276.000,102.400 276.000 C 102.620 276.000,102.800 275.460,102.800 274.800 C 102.800 274.140,102.980 273.600,103.200 273.600 C 103.420 273.600,103.600 273.238,103.600 272.795 C 103.600 272.352,103.780 271.632,104.000 271.195 C 104.220 270.758,104.568 270.062,104.773 269.649 C 104.978 269.236,105.268 268.246,105.417 267.449 C 105.567 266.652,105.849 266.000,106.045 266.000 C 106.240 266.000,106.400 265.460,106.400 264.800 C 106.400 264.140,106.580 263.600,106.800 263.600 C 107.020 263.600,107.200 263.240,107.200 262.800 C 107.200 262.360,107.380 262.000,107.600 262.000 C 107.820 262.000,108.000 261.640,108.000 261.200 C 108.000 260.760,108.180 260.400,108.400 260.400 C 108.620 260.400,108.800 260.040,108.800 259.600 C 108.800 259.160,108.980 258.800,109.200 258.800 C 109.420 258.800,109.600 258.440,109.600 258.000 C 109.600 257.560,109.780 257.200,110.000 257.200 C 110.220 257.200,110.400 256.840,110.400 256.400 C 110.400 255.960,110.580 255.600,110.800 255.600 C 111.020 255.600,111.200 255.330,111.200 255.000 C 111.200 254.670,111.359 254.400,111.553 254.400 C 111.747 254.400,112.397 253.397,112.997 252.171 C 113.597 250.945,114.338 249.845,114.644 249.728 C 114.950 249.610,115.200 249.202,115.200 248.819 C 115.200 248.437,115.560 247.798,116.000 247.400 C 116.440 247.002,116.800 246.462,116.800 246.200 C 116.800 245.938,117.160 245.398,117.600 245.000 C 118.040 244.602,118.400 244.068,118.400 243.813 C 118.400 243.558,118.940 242.832,119.600 242.200 C 120.260 241.568,120.800 240.846,120.800 240.597 C 120.800 240.348,121.250 239.753,121.800 239.275 C 122.350 238.797,122.800 238.205,122.800 237.960 C 122.800 237.374,137.764 222.400,138.350 222.400 C 138.599 222.400,139.453 221.680,140.248 220.800 C 141.043 219.920,141.915 219.200,142.187 219.200 C 142.459 219.200,143.246 218.660,143.937 218.000 C 144.628 217.340,145.421 216.800,145.700 216.800 C 145.979 216.800,146.432 216.440,146.707 216.000 C 146.982 215.560,147.453 215.200,147.754 215.200 C 148.056 215.200,148.519 214.939,148.784 214.619 C 149.338 213.952,153.114 212.000,153.852 212.000 C 154.124 212.000,154.460 211.640,154.600 211.200 C 154.740 210.760,155.202 210.400,155.627 210.400 C 156.052 210.400,156.400 210.220,156.400 210.000 C 156.400 209.780,156.760 209.600,157.200 209.600 C 157.640 209.600,158.000 209.420,158.000 209.200 C 158.000 208.980,158.360 208.800,158.800 208.800 C 159.240 208.800,159.600 208.620,159.600 208.400 C 159.600 208.180,159.960 208.000,160.400 208.000 C 160.840 208.000,161.200 207.820,161.200 207.600 C 161.200 207.380,161.560 207.200,162.000 207.200 C 162.440 207.200,162.800 206.999,162.800 206.753 C 162.800 206.489,163.221 206.387,163.832 206.504 C 164.465 206.625,164.940 206.500,165.063 206.180 C 165.173 205.894,165.968 205.541,166.829 205.395 C 167.691 205.249,168.497 204.966,168.622 204.765 C 168.746 204.564,169.366 204.400,170.000 204.400 C 170.634 204.400,171.264 204.220,171.400 204.000 C 171.536 203.780,172.087 203.600,172.624 203.600 C 173.161 203.600,173.600 203.420,173.600 203.200 C 173.600 202.980,174.140 202.800,174.800 202.800 C 175.460 202.800,176.000 202.620,176.000 202.400 C 176.000 202.180,176.619 202.000,177.376 202.000 C 178.133 202.000,178.864 201.820,179.000 201.600 C 179.136 201.380,180.137 201.200,181.224 201.200 C 182.311 201.200,183.200 201.020,183.200 200.800 C 183.200 200.580,184.010 200.400,185.000 200.400 C 185.990 200.400,186.800 200.220,186.800 200.000 C 186.800 199.762,188.325 199.600,190.576 199.600 C 192.663 199.600,194.463 199.421,194.600 199.200 C 194.744 198.967,196.996 198.800,200.000 198.800 C 203.004 198.800,205.256 198.967,205.400 199.200 " stroke="none" fill="#fcfcfc" fill-rule="evenodd"></path><path id="path1" d="" stroke="none" fill="#100fcfc" fill-rule="evenodd"></path><path id="path2" d="" stroke="none" fill="#100fcfc" fill-rule="evenodd"></path><path id="path3" d="" stroke="none" fill="#100fcfc" fill-rule="evenodd"></path><path id="path4" d="" stroke="none" fill="#100fcfc" fill-rule="evenodd"></path></g></svg>