<svg id="svg" version="1.1" xmlns="http://www.w3.org/2000/svg" xmlns:xlink="http://www.w3.org/1999/xlink" width="400" height="400" viewBox="0, 0, 400,400"><g id="svgg"><path id="path0" d="M124.000 31.200 C 124.000 31.433,122.667 31.600,120.800 31.600 C 118.933 31.600,117.600 31.767,117.600 32.000 C 117.600 32.220,116.700 32.400,115.600 32.400 C 114.500 32.400,113.600 32.580,113.600 32.800 C 113.600 33.020,112.880 33.200,112.000 33.200 C 111.120 33.200,110.400 33.380,110.400 33.600 C 110.400 33.820,109.950 34.000,109.400 34.000 C 108.850 34.000,108.400 34.180,108.400 34.400 C 108.400 34.620,107.860 34.800,107.200 34.800 C 106.540 34.800,106.000 34.980,106.000 35.200 C 106.000 35.420,105.640 35.600,105.200 35.600 C 104.760 35.600,104.400 35.780,104.400 36.000 C 104.400 36.220,104.040 36.400,103.600 36.400 C 103.160 36.400,102.800 36.580,102.800 36.800 C 102.800 37.020,102.260 37.200,101.600 37.200 C 100.940 37.200,100.400 37.380,100.400 37.600 C 100.400 37.820,100.040 38.000,99.600 38.000 C 99.160 38.000,98.800 38.180,98.800 38.400 C 98.800 38.620,98.480 38.800,98.088 38.800 C 97.697 38.800,97.117 39.160,96.800 39.600 C 96.483 40.040,95.903 40.400,95.512 40.400 C 95.120 40.400,94.800 40.577,94.800 40.792 C 94.800 41.008,94.363 41.294,93.829 41.428 C 93.296 41.562,92.548 42.016,92.167 42.436 C 91.787 42.856,91.306 43.200,91.098 43.200 C 90.891 43.200,90.217 43.740,89.600 44.400 C 88.983 45.060,88.279 45.600,88.035 45.600 C 87.455 45.600,79.200 53.855,79.200 54.435 C 79.200 54.679,78.660 55.383,78.000 56.000 C 77.340 56.617,76.800 57.338,76.800 57.603 C 76.800 57.868,76.350 58.439,75.800 58.871 C 75.250 59.304,74.800 60.005,74.800 60.429 C 74.800 60.853,74.620 61.200,74.400 61.200 C 74.180 61.200,74.000 61.520,74.000 61.912 C 74.000 62.303,73.640 62.883,73.200 63.200 C 72.760 63.517,72.400 64.097,72.400 64.488 C 72.400 64.880,72.220 65.200,72.000 65.200 C 71.780 65.200,71.600 65.560,71.600 66.000 C 71.600 66.440,71.420 66.800,71.200 66.800 C 70.980 66.800,70.800 67.160,70.800 67.600 C 70.800 68.040,70.620 68.400,70.400 68.400 C 70.180 68.400,70.000 68.940,70.000 69.600 C 70.000 70.260,69.820 70.800,69.600 70.800 C 69.380 70.800,69.200 71.160,69.200 71.600 C 69.200 72.040,69.020 72.400,68.800 72.400 C 68.580 72.400,68.400 72.940,68.400 73.600 C 68.400 74.260,68.220 74.800,68.000 74.800 C 67.780 74.800,67.600 75.250,67.600 75.800 C 67.600 76.350,67.420 76.800,67.200 76.800 C 66.980 76.800,66.800 77.520,66.800 78.400 C 66.800 79.280,66.620 80.000,66.400 80.000 C 66.180 80.000,66.000 80.900,66.000 82.000 C 66.000 83.100,65.820 84.000,65.600 84.000 C 65.371 84.000,65.200 85.200,65.200 86.800 C 65.200 88.400,65.029 89.600,64.800 89.600 C 64.551 89.600,64.400 91.933,64.400 95.800 C 64.400 99.667,64.551 102.000,64.800 102.000 C 65.033 102.000,65.200 103.333,65.200 105.200 C 65.200 107.067,65.367 108.400,65.600 108.400 C 65.820 108.400,66.000 109.030,66.000 109.800 C 66.000 110.570,66.180 111.200,66.400 111.200 C 66.620 111.200,66.800 111.920,66.800 112.800 C 66.800 113.680,66.980 114.400,67.200 114.400 C 67.420 114.400,67.600 114.940,67.600 115.600 C 67.600 116.260,67.780 116.800,68.000 116.800 C 68.220 116.800,68.400 117.340,68.400 118.000 C 68.400 118.660,68.580 119.200,68.800 119.200 C 69.020 119.200,69.200 119.740,69.200 120.400 C 69.200 121.060,69.380 121.600,69.600 121.600 C 69.820 121.600,70.000 121.960,70.000 122.400 C 70.000 122.840,70.180 123.200,70.400 123.200 C 70.620 123.200,70.800 123.560,70.800 124.000 C 70.800 124.440,70.980 124.800,71.200 124.800 C 71.420 124.800,71.600 125.070,71.600 125.400 C 71.600 125.730,71.780 126.000,72.000 126.000 C 72.220 126.000,72.400 126.360,72.400 126.800 C 72.400 127.240,72.580 127.600,72.800 127.600 C 73.020 127.600,73.200 127.894,73.200 128.253 C 73.200 128.612,73.531 129.197,73.936 129.553 C 74.341 129.909,74.794 130.695,74.944 131.300 C 75.093 131.905,75.392 132.400,75.608 132.400 C 75.823 132.400,76.000 132.688,76.000 133.040 C 76.000 133.391,76.540 134.183,77.200 134.800 C 77.860 135.417,78.400 136.129,78.400 136.383 C 78.400 136.811,81.499 139.954,84.422 142.490 C 85.859 143.736,85.402 144.800,83.429 144.800 C 82.863 144.800,82.400 144.980,82.400 145.200 C 82.400 145.420,82.040 145.600,81.600 145.600 C 81.160 145.600,80.800 145.780,80.800 146.000 C 80.800 146.220,80.440 146.400,80.000 146.400 C 79.560 146.400,79.200 146.580,79.200 146.800 C 79.200 147.020,78.880 147.200,78.488 147.200 C 78.097 147.200,77.517 147.560,77.200 148.000 C 76.883 148.440,76.303 148.800,75.912 148.800 C 75.520 148.800,75.200 148.980,75.200 149.200 C 75.200 149.420,74.930 149.600,74.600 149.600 C 74.270 149.600,74.000 149.780,74.000 150.000 C 74.000 150.220,73.680 150.400,73.288 150.400 C 72.897 150.400,72.317 150.760,72.000 151.200 C 71.683 151.640,71.143 152.000,70.800 152.000 C 70.457 152.000,69.917 152.360,69.600 152.800 C 69.283 153.240,68.743 153.600,68.400 153.600 C 68.057 153.600,67.517 153.960,67.200 154.400 C 66.883 154.840,66.343 155.200,66.000 155.200 C 65.657 155.200,65.117 155.560,64.800 156.000 C 64.483 156.440,63.985 156.800,63.694 156.800 C 63.402 156.800,62.714 157.250,62.164 157.800 C 61.614 158.350,60.923 158.800,60.630 158.800 C 60.336 158.800,59.465 159.520,58.694 160.400 C 57.922 161.280,57.098 162.000,56.862 162.000 C 56.268 162.000,41.200 176.992,41.200 177.584 C 41.200 177.847,40.480 178.754,39.600 179.600 C 38.720 180.446,38.000 181.349,38.000 181.608 C 38.000 181.867,37.460 182.583,36.800 183.200 C 36.140 183.817,35.600 184.537,35.600 184.800 C 35.600 185.063,35.060 185.783,34.400 186.400 C 33.740 187.017,33.200 187.769,33.200 188.072 C 33.200 188.375,32.840 188.883,32.400 189.200 C 31.960 189.517,31.600 190.097,31.600 190.488 C 31.600 190.880,31.420 191.200,31.200 191.200 C 30.980 191.200,30.800 191.430,30.800 191.712 C 30.800 191.993,30.440 192.483,30.000 192.800 C 29.560 193.117,29.200 193.697,29.200 194.088 C 29.200 194.480,29.020 194.800,28.800 194.800 C 28.580 194.800,28.400 195.120,28.400 195.512 C 28.400 195.903,28.040 196.483,27.600 196.800 C 27.160 197.117,26.800 197.697,26.800 198.088 C 26.800 198.480,26.620 198.800,26.400 198.800 C 26.180 198.800,26.000 199.160,26.000 199.600 C 26.000 200.040,25.836 200.400,25.635 200.400 C 25.434 200.400,25.149 201.120,25.000 202.000 C 24.851 202.880,24.566 203.600,24.365 203.600 C 24.164 203.600,24.000 203.960,24.000 204.400 C 24.000 204.840,23.820 205.200,23.600 205.200 C 23.380 205.200,23.200 205.560,23.200 206.000 C 23.200 206.440,23.020 206.800,22.800 206.800 C 22.580 206.800,22.400 207.250,22.400 207.800 C 22.400 208.350,22.220 208.800,22.000 208.800 C 21.780 208.800,21.600 209.160,21.600 209.600 C 21.600 210.040,21.420 210.400,21.200 210.400 C 20.980 210.400,20.800 210.940,20.800 211.600 C 20.800 212.260,20.620 212.800,20.400 212.800 C 20.180 212.800,20.000 213.160,20.000 213.600 C 20.000 214.040,19.820 214.400,19.600 214.400 C 19.380 214.400,19.200 214.940,19.200 215.600 C 19.200 216.260,19.020 216.800,18.800 216.800 C 18.580 216.800,18.400 217.340,18.400 218.000 C 18.400 218.660,18.220 219.200,18.000 219.200 C 17.780 219.200,17.600 219.740,17.600 220.400 C 17.600 221.060,17.420 221.600,17.200 221.600 C 16.980 221.600,16.800 222.320,16.800 223.200 C 16.800 224.080,16.620 224.800,16.400 224.800 C 16.180 224.800,16.000 225.250,16.000 225.800 C 16.000 226.350,15.820 226.800,15.600 226.800 C 15.380 226.800,15.200 227.520,15.200 228.400 C 15.200 229.280,15.020 230.000,14.800 230.000 C 14.580 230.000,14.400 230.900,14.400 232.000 C 14.400 233.100,14.220 234.000,14.000 234.000 C 13.778 234.000,13.600 235.067,13.600 236.400 C 13.600 237.733,13.422 238.800,13.200 238.800 C 12.974 238.800,12.800 239.933,12.800 241.400 C 12.800 242.867,12.626 244.000,12.400 244.000 C 12.143 244.000,12.000 248.067,12.000 255.400 C 12.000 262.733,12.143 266.800,12.400 266.800 C 12.620 266.800,12.800 267.520,12.800 268.400 C 12.800 269.280,12.980 270.000,13.200 270.000 C 13.420 270.000,13.600 270.540,13.600 271.200 C 13.600 271.860,13.780 272.400,14.000 272.400 C 14.220 272.400,14.400 272.940,14.400 273.600 C 14.400 274.260,14.580 274.800,14.800 274.800 C 15.020 274.800,15.200 275.070,15.200 275.400 C 15.200 275.730,15.380 276.000,15.600 276.000 C 15.820 276.000,16.000 276.320,16.000 276.712 C 16.000 277.103,16.360 277.683,16.800 278.000 C 17.240 278.317,17.600 278.857,17.600 279.200 C 17.600 279.543,17.960 280.083,18.400 280.400 C 18.840 280.717,19.200 281.210,19.200 281.495 C 19.200 281.780,20.505 283.343,22.100 284.969 C 23.695 286.595,25.685 288.663,26.523 289.563 C 27.360 290.463,28.297 291.200,28.604 291.200 C 28.912 291.200,29.614 291.650,30.164 292.200 C 30.714 292.750,31.402 293.200,31.694 293.200 C 31.985 293.200,32.483 293.560,32.800 294.000 C 33.117 294.440,33.657 294.800,34.000 294.800 C 34.343 294.800,34.883 295.160,35.200 295.600 C 35.517 296.040,36.097 296.400,36.488 296.400 C 36.880 296.400,37.200 296.580,37.200 296.800 C 37.200 297.020,37.560 297.200,38.000 297.200 C 38.440 297.200,38.800 297.380,38.800 297.600 C 38.800 297.820,39.160 298.000,39.600 298.000 C 40.040 298.000,40.400 298.146,40.400 298.325 C 40.400 298.504,41.030 298.898,41.800 299.200 C 42.570 299.502,43.200 299.896,43.200 300.075 C 43.200 300.254,43.560 300.400,44.000 300.400 C 44.440 300.400,44.800 300.580,44.800 300.800 C 44.800 301.020,45.160 301.200,45.600 301.200 C 46.040 301.200,46.400 301.380,46.400 301.600 C 46.400 301.820,46.940 302.000,47.600 302.000 C 48.260 302.000,48.800 302.180,48.800 302.400 C 48.800 302.620,49.160 302.800,49.600 302.800 C 50.040 302.800,50.400 302.980,50.400 303.200 C 50.400 303.420,50.940 303.600,51.600 303.600 C 52.260 303.600,52.800 303.780,52.800 304.000 C 52.800 304.220,53.340 304.400,54.000 304.400 C 54.660 304.400,55.200 304.580,55.200 304.800 C 55.200 305.020,55.740 305.200,56.400 305.200 C 57.060 305.200,57.600 305.380,57.600 305.600 C 57.600 305.820,58.050 306.000,58.600 306.000 C 59.150 306.000,59.600 306.180,59.600 306.400 C 59.600 306.620,60.140 306.800,60.800 306.800 C 61.460 306.800,62.000 306.980,62.000 307.200 C 62.000 307.420,62.720 307.600,63.600 307.600 C 64.480 307.600,65.200 307.757,65.200 307.948 C 65.200 308.140,66.460 308.421,68.000 308.573 C 70.769 308.845,70.800 308.861,70.800 310.024 C 70.800 310.671,70.980 311.200,71.200 311.200 C 71.422 311.200,71.600 312.267,71.600 313.600 C 71.600 314.933,71.778 316.000,72.000 316.000 C 72.220 316.000,72.400 316.720,72.400 317.600 C 72.400 318.480,72.580 319.200,72.800 319.200 C 73.020 319.200,73.200 319.740,73.200 320.400 C 73.200 321.060,73.380 321.600,73.600 321.600 C 73.820 321.600,74.000 322.140,74.000 322.800 C 74.000 323.460,74.166 324.000,74.368 324.000 C 74.571 324.000,74.865 324.585,75.022 325.300 C 75.179 326.014,75.643 326.891,76.054 327.247 C 76.464 327.603,76.800 328.148,76.800 328.459 C 76.800 328.769,77.160 329.283,77.600 329.600 C 78.040 329.917,78.400 330.421,78.400 330.720 C 78.400 331.018,79.120 331.954,80.000 332.800 C 80.880 333.646,81.600 334.535,81.600 334.777 C 81.600 335.343,85.845 339.600,86.409 339.600 C 86.644 339.600,87.270 340.005,87.799 340.500 C 89.457 342.051,89.951 342.400,90.483 342.401 C 90.767 342.402,91.360 342.941,91.800 343.600 C 92.240 344.259,92.915 344.798,93.300 344.799 C 93.685 344.799,94.000 344.980,94.000 345.200 C 94.000 345.420,94.320 345.600,94.712 345.600 C 95.103 345.600,95.683 345.960,96.000 346.400 C 96.317 346.840,96.897 347.200,97.288 347.200 C 97.680 347.200,98.000 347.380,98.000 347.600 C 98.000 347.820,98.360 348.000,98.800 348.000 C 99.240 348.000,99.600 348.180,99.600 348.400 C 99.600 348.620,99.920 348.800,100.312 348.800 C 100.703 348.800,101.283 349.160,101.600 349.600 C 101.917 350.040,102.497 350.400,102.888 350.400 C 103.280 350.400,103.600 350.580,103.600 350.800 C 103.600 351.020,104.140 351.200,104.800 351.200 C 105.460 351.200,106.000 351.380,106.000 351.600 C 106.000 351.820,106.360 352.000,106.800 352.000 C 107.240 352.000,107.600 352.180,107.600 352.400 C 107.600 352.620,107.870 352.800,108.200 352.800 C 108.530 352.800,108.800 352.980,108.800 353.200 C 108.800 353.420,109.160 353.600,109.600 353.600 C 110.040 353.600,110.400 353.780,110.400 354.000 C 110.400 354.220,110.940 354.400,111.600 354.400 C 112.260 354.400,112.800 354.580,112.800 354.800 C 112.800 355.020,113.160 355.200,113.600 355.200 C 114.040 355.200,114.400 355.380,114.400 355.600 C 114.400 355.820,114.940 356.000,115.600 356.000 C 116.260 356.000,116.800 356.180,116.800 356.400 C 116.800 356.620,117.520 356.800,118.400 356.800 C 119.280 356.800,120.000 356.980,120.000 357.200 C 120.000 357.420,120.540 357.600,121.200 357.600 C 121.860 357.600,122.400 357.766,122.400 357.968 C 122.400 358.171,123.570 358.462,125.000 358.615 C 126.430 358.768,127.600 359.052,127.600 359.247 C 127.600 359.441,128.320 359.600,129.200 359.600 C 130.080 359.600,130.800 359.780,130.800 360.000 C 130.800 360.220,131.520 360.400,132.400 360.400 C 133.280 360.400,134.000 360.580,134.000 360.800 C 134.000 361.020,134.720 361.200,135.600 361.200 C 136.480 361.200,137.200 361.380,137.200 361.600 C 137.200 361.820,138.100 362.000,139.200 362.000 C 140.300 362.000,141.200 362.180,141.200 362.400 C 141.200 362.620,141.830 362.800,142.600 362.800 C 143.370 362.800,144.000 362.980,144.000 363.200 C 144.000 363.420,144.900 363.600,146.000 363.600 C 147.100 363.600,148.000 363.780,148.000 364.000 C 148.000 364.222,149.067 364.400,150.400 364.400 C 151.733 364.400,152.800 364.578,152.800 364.800 C 152.800 365.029,154.000 365.200,155.600 365.200 C 157.200 365.200,158.400 365.371,158.400 365.600 C 158.400 365.826,159.533 366.000,161.000 366.000 C 162.467 366.000,163.600 366.174,163.600 366.400 C 163.600 366.640,165.200 366.800,167.600 366.800 C 170.000 366.800,171.600 366.960,171.600 367.200 C 171.600 367.448,173.800 367.600,177.400 367.600 C 181.000 367.600,183.200 367.752,183.200 368.000 C 183.200 368.259,188.400 368.400,198.000 368.400 C 207.600 368.400,212.800 368.259,212.800 368.000 C 212.800 367.749,215.267 367.600,219.400 367.600 C 223.533 367.600,226.000 367.451,226.000 367.200 C 226.000 366.958,227.733 366.800,230.400 366.800 C 233.067 366.800,234.800 366.642,234.800 366.400 C 234.800 366.167,236.133 366.000,238.000 366.000 C 239.867 366.000,241.200 365.833,241.200 365.600 C 241.200 365.374,242.333 365.200,243.800 365.200 C 245.267 365.200,246.400 365.026,246.400 364.800 C 246.400 364.578,247.467 364.400,248.800 364.400 C 250.133 364.400,251.200 364.222,251.200 364.000 C 251.200 363.778,252.267 363.600,253.600 363.600 C 254.933 363.600,256.000 363.422,256.000 363.200 C 256.000 362.980,256.810 362.800,257.800 362.800 C 258.790 362.800,259.600 362.620,259.600 362.400 C 259.600 362.180,260.500 362.000,261.600 362.000 C 262.700 362.000,263.600 361.820,263.600 361.600 C 263.600 361.380,264.320 361.200,265.200 361.200 C 266.080 361.200,266.800 361.020,266.800 360.800 C 266.800 360.580,267.520 360.400,268.400 360.400 C 269.280 360.400,270.000 360.220,270.000 360.000 C 270.000 359.780,270.540 359.600,271.200 359.600 C 271.860 359.600,272.400 359.441,272.400 359.247 C 272.400 359.052,273.570 358.768,275.000 358.615 C 276.430 358.462,277.600 358.171,277.600 357.968 C 277.600 357.766,278.140 357.600,278.800 357.600 C 279.460 357.600,280.000 357.420,280.000 357.200 C 280.000 356.980,280.540 356.800,281.200 356.800 C 281.860 356.800,282.400 356.620,282.400 356.400 C 282.400 356.180,282.940 356.000,283.600 356.000 C 284.260 356.000,284.800 355.820,284.800 355.600 C 284.800 355.380,285.340 355.200,286.000 355.200 C 286.660 355.200,287.200 355.020,287.200 354.800 C 287.200 354.580,287.560 354.400,288.000 354.400 C 288.440 354.400,288.800 354.220,288.800 354.000 C 288.800 353.780,289.340 353.600,290.000 353.600 C 290.660 353.600,291.200 353.420,291.200 353.200 C 291.200 352.980,291.470 352.800,291.800 352.800 C 292.130 352.800,292.400 352.620,292.400 352.400 C 292.400 352.180,292.760 352.000,293.200 352.000 C 293.640 352.000,294.000 351.820,294.000 351.600 C 294.000 351.380,294.360 351.200,294.800 351.200 C 295.240 351.200,295.600 351.020,295.600 350.800 C 295.600 350.580,295.960 350.400,296.400 350.400 C 296.840 350.400,297.200 350.220,297.200 350.000 C 297.200 349.780,297.560 349.600,298.000 349.600 C 298.440 349.600,298.800 349.420,298.800 349.200 C 298.800 348.980,299.160 348.800,299.600 348.800 C 300.040 348.800,300.400 348.620,300.400 348.400 C 300.400 348.180,300.760 348.000,301.200 348.000 C 301.640 348.000,302.000 347.820,302.000 347.600 C 302.000 347.380,302.320 347.200,302.712 347.200 C 303.103 347.200,303.683 346.840,304.000 346.400 C 304.317 345.960,304.857 345.600,305.200 345.600 C 305.543 345.600,306.083 345.240,306.400 344.800 C 306.717 344.360,307.297 344.000,307.688 344.000 C 308.080 344.000,308.400 343.848,308.400 343.661 C 308.400 343.034,309.888 341.600,310.538 341.600 C 310.893 341.600,312.173 340.610,313.383 339.400 C 314.593 338.190,315.857 337.200,316.191 337.200 C 316.526 337.200,316.800 336.918,316.800 336.574 C 316.800 336.230,317.700 335.071,318.800 334.000 C 319.900 332.929,320.800 331.810,320.800 331.514 C 320.800 331.219,321.160 330.717,321.600 330.400 C 322.040 330.083,322.400 329.543,322.400 329.200 C 322.400 328.857,322.760 328.317,323.200 328.000 C 323.640 327.683,324.000 327.103,324.000 326.712 C 324.000 326.320,324.172 326.000,324.382 326.000 C 324.592 326.000,324.882 325.370,325.026 324.600 C 325.171 323.830,325.449 323.200,325.645 323.200 C 325.840 323.200,326.000 322.660,326.000 322.000 C 326.000 321.340,326.180 320.800,326.400 320.800 C 326.620 320.800,326.800 320.260,326.800 319.600 C 326.800 318.940,326.980 318.400,327.200 318.400 C 327.420 318.400,327.600 317.680,327.600 316.800 C 327.600 315.920,327.780 315.200,328.000 315.200 C 328.233 315.200,328.400 313.875,328.400 312.024 L 328.400 308.848 331.200 308.573 C 332.740 308.421,334.000 308.140,334.000 307.948 C 334.000 307.757,334.720 307.600,335.600 307.600 C 336.480 307.600,337.200 307.420,337.200 307.200 C 337.200 306.980,337.920 306.800,338.800 306.800 C 339.680 306.800,340.400 306.620,340.400 306.400 C 340.400 306.180,340.850 306.000,341.400 306.000 C 341.950 306.000,342.400 305.820,342.400 305.600 C 342.400 305.380,342.940 305.200,343.600 305.200 C 344.260 305.200,344.800 305.020,344.800 304.800 C 344.800 304.580,345.340 304.400,346.000 304.400 C 346.660 304.400,347.200 304.220,347.200 304.000 C 347.200 303.780,347.740 303.600,348.400 303.600 C 349.060 303.600,349.600 303.420,349.600 303.200 C 349.600 302.980,349.960 302.800,350.400 302.800 C 350.840 302.800,351.200 302.620,351.200 302.400 C 351.200 302.180,351.740 302.000,352.400 302.000 C 353.060 302.000,353.600 301.820,353.600 301.600 C 353.600 301.380,353.960 301.200,354.400 301.200 C 354.840 301.200,355.200 301.020,355.200 300.800 C 355.200 300.580,355.560 300.400,356.000 300.400 C 356.440 300.400,356.800 300.220,356.800 300.000 C 356.800 299.780,357.160 299.600,357.600 299.600 C 358.040 299.600,358.400 299.420,358.400 299.200 C 358.400 298.980,358.670 298.800,359.000 298.800 C 359.330 298.800,359.600 298.620,359.600 298.400 C 359.600 298.180,359.960 298.000,360.400 298.000 C 360.840 298.000,361.200 297.820,361.200 297.600 C 361.200 297.380,361.560 297.200,362.000 297.200 C 362.440 297.200,362.800 297.020,362.800 296.800 C 362.800 296.580,363.120 296.400,363.512 296.400 C 363.903 296.400,364.483 296.040,364.800 295.600 C 365.117 295.160,365.657 294.800,366.000 294.800 C 366.343 294.800,366.883 294.440,367.200 294.000 C 367.517 293.560,368.015 293.200,368.306 293.200 C 368.598 293.200,369.286 292.750,369.836 292.200 C 370.386 291.650,371.143 291.192,371.518 291.182 C 371.893 291.171,372.830 290.442,373.600 289.561 C 374.370 288.680,376.305 286.622,377.900 284.986 C 379.495 283.351,380.800 281.780,380.800 281.495 C 380.800 281.210,381.160 280.717,381.600 280.400 C 382.040 280.083,382.400 279.543,382.400 279.200 C 382.400 278.857,382.760 278.317,383.200 278.000 C 383.640 277.683,384.000 277.103,384.000 276.712 C 384.000 276.320,384.180 276.000,384.400 276.000 C 384.620 276.000,384.800 275.730,384.800 275.400 C 384.800 275.070,384.980 274.800,385.200 274.800 C 385.420 274.800,385.600 274.260,385.600 273.600 C 385.600 272.940,385.780 272.400,386.000 272.400 C 386.220 272.400,386.400 271.860,386.400 271.200 C 386.400 270.540,386.580 270.000,386.800 270.000 C 387.020 270.000,387.200 269.280,387.200 268.400 C 387.200 267.520,387.380 266.800,387.600 266.800 C 387.857 266.800,388.000 262.733,388.000 255.400 C 388.000 248.067,387.857 244.000,387.600 244.000 C 387.374 244.000,387.200 242.867,387.200 241.400 C 387.200 239.933,387.026 238.800,386.800 238.800 C 386.578 238.800,386.400 237.733,386.400 236.400 C 386.400 235.067,386.222 234.000,386.000 234.000 C 385.780 234.000,385.600 233.100,385.600 232.000 C 385.600 230.900,385.420 230.000,385.200 230.000 C 384.980 230.000,384.800 229.280,384.800 228.400 C 384.800 227.520,384.620 226.800,384.400 226.800 C 384.180 226.800,384.000 226.350,384.000 225.800 C 384.000 225.250,383.820 224.800,383.600 224.800 C 383.380 224.800,383.200 224.080,383.200 223.200 C 383.200 222.320,383.020 221.600,382.800 221.600 C 382.580 221.600,382.400 221.060,382.400 220.400 C 382.400 219.740,382.220 219.200,382.000 219.200 C 381.780 219.200,381.600 218.660,381.600 218.000 C 381.600 217.340,381.420 216.800,381.200 216.800 C 380.980 216.800,380.800 216.260,380.800 215.600 C 380.800 214.940,380.620 214.400,380.400 214.400 C 380.180 214.400,380.000 214.040,380.000 213.600 C 380.000 213.160,379.820 212.800,379.600 212.800 C 379.380 212.800,379.200 212.260,379.200 211.600 C 379.200 210.940,379.020 210.400,378.800 210.400 C 378.580 210.400,378.400 210.040,378.400 209.600 C 378.400 209.160,378.220 208.800,378.000 208.800 C 377.780 208.800,377.600 208.350,377.600 207.800 C 377.600 207.250,377.420 206.800,377.200 206.800 C 376.980 206.800,376.800 206.440,376.800 206.000 C 376.800 205.560,376.620 205.200,376.400 205.200 C 376.180 205.200,376.000 204.840,376.000 204.400 C 376.000 203.960,375.836 203.600,375.635 203.600 C 375.434 203.600,375.149 202.880,375.000 202.000 C 374.851 201.120,374.566 200.400,374.365 200.400 C 374.164 200.400,374.000 200.040,374.000 199.600 C 374.000 199.160,373.820 198.800,373.600 198.800 C 373.380 198.800,373.200 198.480,373.200 198.088 C 373.200 197.697,372.840 197.117,372.400 196.800 C 371.960 196.483,371.600 195.903,371.600 195.512 C 371.600 195.120,371.420 194.800,371.200 194.800 C 370.980 194.800,370.800 194.480,370.800 194.088 C 370.800 193.697,370.440 193.117,370.000 192.800 C 369.560 192.483,369.200 191.993,369.200 191.712 C 369.200 191.430,369.020 191.200,368.800 191.200 C 368.580 191.200,368.400 190.880,368.400 190.488 C 368.400 190.097,368.040 189.517,367.600 189.200 C 367.160 188.883,366.800 188.375,366.800 188.072 C 366.800 187.769,366.260 187.017,365.600 186.400 C 364.940 185.783,364.400 185.063,364.400 184.800 C 364.400 184.537,363.860 183.817,363.200 183.200 C 362.540 182.583,362.000 181.867,362.000 181.608 C 362.000 181.349,361.280 180.446,360.400 179.600 C 359.520 178.754,358.800 177.847,358.800 177.584 C 358.800 176.992,343.732 162.000,343.138 162.000 C 342.902 162.000,342.078 161.280,341.306 160.400 C 340.535 159.520,339.664 158.800,339.370 158.800 C 339.077 158.800,338.386 158.350,337.836 157.800 C 337.286 157.250,336.598 156.800,336.306 156.800 C 336.015 156.800,335.517 156.440,335.200 156.000 C 334.883 155.560,334.343 155.200,334.000 155.200 C 333.657 155.200,333.117 154.840,332.800 154.400 C 332.483 153.960,331.943 153.600,331.600 153.600 C 331.257 153.600,330.717 153.240,330.400 152.800 C 330.083 152.360,329.543 152.000,329.200 152.000 C 328.857 152.000,328.317 151.640,328.000 151.200 C 327.683 150.760,327.103 150.400,326.712 150.400 C 326.320 150.400,326.000 150.220,326.000 150.000 C 326.000 149.780,325.730 149.600,325.400 149.600 C 325.070 149.600,324.800 149.420,324.800 149.200 C 324.800 148.980,324.480 148.800,324.088 148.800 C 323.697 148.800,323.117 148.440,322.800 148.000 C 322.483 147.560,321.903 147.200,321.512 147.200 C 321.120 147.200,320.800 147.020,320.800 146.800 C 320.800 146.580,320.440 146.400,320.000 146.400 C 319.560 146.400,319.200 146.220,319.200 146.000 C 319.200 145.780,318.840 145.600,318.400 145.600 C 317.960 145.600,317.600 145.420,317.600 145.200 C 317.600 144.980,317.137 144.800,316.571 144.800 C 314.598 144.800,314.141 143.736,315.578 142.490 C 318.501 139.954,321.600 136.811,321.600 136.383 C 321.600 136.129,322.140 135.417,322.800 134.800 C 323.460 134.183,324.000 133.391,324.000 133.040 C 324.000 132.688,324.177 132.400,324.392 132.400 C 324.608 132.400,324.907 131.905,325.056 131.300 C 325.206 130.695,325.659 129.909,326.064 129.553 C 326.469 129.197,326.800 128.612,326.800 128.253 C 326.800 127.894,326.980 127.600,327.200 127.600 C 327.420 127.600,327.600 127.240,327.600 126.800 C 327.600 126.360,327.780 126.000,328.000 126.000 C 328.220 126.000,328.400 125.730,328.400 125.400 C 328.400 125.070,328.580 124.800,328.800 124.800 C 329.020 124.800,329.200 124.440,329.200 124.000 C 329.200 123.560,329.380 123.200,329.600 123.200 C 329.820 123.200,330.000 122.840,330.000 122.400 C 330.000 121.960,330.180 121.600,330.400 121.600 C 330.620 121.600,330.800 121.060,330.800 120.400 C 330.800 119.740,330.980 119.200,331.200 119.200 C 331.420 119.200,331.600 118.660,331.600 118.000 C 331.600 117.340,331.780 116.800,332.000 116.800 C 332.220 116.800,332.400 116.260,332.400 115.600 C 332.400 114.940,332.580 114.400,332.800 114.400 C 333.020 114.400,333.200 113.680,333.200 112.800 C 333.200 111.920,333.380 111.200,333.600 111.200 C 333.820 111.200,334.000 110.570,334.000 109.800 C 334.000 109.030,334.180 108.400,334.400 108.400 C 334.633 108.400,334.800 107.067,334.800 105.200 C 334.800 103.333,334.967 102.000,335.200 102.000 C 335.449 102.000,335.600 99.667,335.600 95.800 C 335.600 91.933,335.449 89.600,335.200 89.600 C 334.971 89.600,334.800 88.400,334.800 86.800 C 334.800 85.200,334.629 84.000,334.400 84.000 C 334.180 84.000,334.000 83.100,334.000 82.000 C 334.000 80.900,333.820 80.000,333.600 80.000 C 333.380 80.000,333.200 79.280,333.200 78.400 C 333.200 77.520,333.020 76.800,332.800 76.800 C 332.580 76.800,332.400 76.350,332.400 75.800 C 332.400 75.250,332.220 74.800,332.000 74.800 C 331.780 74.800,331.600 74.260,331.600 73.600 C 331.600 72.940,331.420 72.400,331.200 72.400 C 330.980 72.400,330.800 72.040,330.800 71.600 C 330.800 71.160,330.620 70.800,330.400 70.800 C 330.180 70.800,330.000 70.260,330.000 69.600 C 330.000 68.940,329.820 68.400,329.600 68.400 C 329.380 68.400,329.200 68.040,329.200 67.600 C 329.200 67.160,329.020 66.800,328.800 66.800 C 328.580 66.800,328.400 66.440,328.400 66.000 C 328.400 65.560,328.220 65.200,328.000 65.200 C 327.780 65.200,327.600 64.880,327.600 64.488 C 327.600 64.097,327.240 63.517,326.800 63.200 C 326.360 62.883,326.000 62.303,326.000 61.912 C 326.000 61.520,325.820 61.200,325.600 61.200 C 325.380 61.200,325.200 60.853,325.200 60.429 C 325.200 60.005,324.750 59.304,324.200 58.871 C 323.650 58.439,323.200 57.868,323.200 57.603 C 323.200 57.338,322.660 56.617,322.000 56.000 C 321.340 55.383,320.800 54.679,320.800 54.435 C 320.800 53.855,312.545 45.600,311.965 45.600 C 311.721 45.600,311.017 45.060,310.400 44.400 C 309.783 43.740,309.109 43.200,308.902 43.200 C 308.694 43.200,308.213 42.856,307.833 42.436 C 307.452 42.016,306.704 41.562,306.171 41.428 C 305.637 41.294,305.200 41.008,305.200 40.792 C 305.200 40.577,304.880 40.400,304.488 40.400 C 304.097 40.400,303.517 40.040,303.200 39.600 C 302.883 39.160,302.303 38.800,301.912 38.800 C 301.520 38.800,301.200 38.620,301.200 38.400 C 301.200 38.180,300.840 38.000,300.400 38.000 C 299.960 38.000,299.600 37.820,299.600 37.600 C 299.600 37.380,299.060 37.200,298.400 37.200 C 297.740 37.200,297.200 37.020,297.200 36.800 C 297.200 36.580,296.840 36.400,296.400 36.400 C 295.960 36.400,295.600 36.220,295.600 36.000 C 295.600 35.780,295.240 35.600,294.800 35.600 C 294.360 35.600,294.000 35.420,294.000 35.200 C 294.000 34.980,293.460 34.800,292.800 34.800 C 292.140 34.800,291.600 34.620,291.600 34.400 C 291.600 34.180,291.150 34.000,290.600 34.000 C 290.050 34.000,289.600 33.820,289.600 33.600 C 289.600 33.380,288.880 33.200,288.000 33.200 C 287.120 33.200,286.400 33.020,286.400 32.800 C 286.400 32.580,285.500 32.400,284.400 32.400 C 283.300 32.400,282.400 32.220,282.400 32.000 C 282.400 31.767,281.067 31.600,279.200 31.600 C 277.333 31.600,276.000 31.433,276.000 31.200 C 276.000 30.953,273.933 30.800,270.600 30.800 C 267.267 30.800,265.200 30.953,265.200 31.200 C 265.200 31.433,263.867 31.600,262.000 31.600 C 260.133 31.600,258.800 31.767,258.800 32.000 C 258.800 32.220,257.990 32.400,257.000 32.400 C 256.010 32.400,255.200 32.580,255.200 32.800 C 255.200 33.020,254.480 33.200,253.600 33.200 C 252.720 33.200,252.000 33.380,252.000 33.600 C 252.000 33.820,251.460 34.000,250.800 34.000 C 250.140 34.000,249.600 34.180,249.600 34.400 C 249.600 34.620,249.060 34.800,248.400 34.800 C 247.740 34.800,247.200 34.980,247.200 35.200 C 247.200 35.420,246.840 35.600,246.400 35.600 C 245.960 35.600,245.600 35.780,245.600 36.000 C 245.600 36.220,245.060 36.400,244.400 36.400 C 243.740 36.400,243.200 36.546,243.200 36.725 C 243.200 36.904,242.570 37.298,241.800 37.600 C 241.030 37.902,240.400 38.296,240.400 38.475 C 240.400 38.654,240.080 38.800,239.688 38.800 C 239.297 38.800,238.717 39.160,238.400 39.600 C 238.083 40.040,237.503 40.400,237.112 40.400 C 236.720 40.400,236.400 40.580,236.400 40.800 C 236.400 41.020,236.062 41.200,235.649 41.200 C 235.236 41.200,234.674 41.470,234.400 41.800 C 234.126 42.130,233.636 42.400,233.312 42.400 C 232.987 42.400,232.217 42.940,231.600 43.600 C 230.983 44.260,230.236 44.811,229.940 44.824 C 229.643 44.837,228.410 45.922,227.200 47.235 C 225.990 48.547,223.875 50.783,222.500 52.203 C 221.125 53.623,220.000 54.986,220.000 55.232 C 220.000 55.478,219.460 56.183,218.800 56.800 C 218.140 57.417,217.600 58.042,217.600 58.189 C 217.600 59.427,213.089 60.266,212.700 59.100 C 212.458 58.373,187.542 58.373,187.300 59.100 C 186.911 60.266,182.400 59.427,182.400 58.189 C 182.400 58.042,181.860 57.417,181.200 56.800 C 180.540 56.183,180.000 55.478,180.000 55.232 C 180.000 54.986,178.875 53.623,177.500 52.203 C 176.125 50.783,174.010 48.547,172.800 47.235 C 171.590 45.922,170.357 44.837,170.060 44.824 C 169.764 44.811,169.017 44.260,168.400 43.600 C 167.783 42.940,167.013 42.400,166.688 42.400 C 166.364 42.400,165.874 42.130,165.600 41.800 C 165.326 41.470,164.764 41.200,164.351 41.200 C 163.938 41.200,163.600 41.020,163.600 40.800 C 163.600 40.580,163.280 40.400,162.888 40.400 C 162.497 40.400,161.917 40.040,161.600 39.600 C 161.283 39.160,160.703 38.800,160.312 38.800 C 159.920 38.800,159.600 38.620,159.600 38.400 C 159.600 38.180,159.330 38.000,159.000 38.000 C 158.670 38.000,158.400 37.820,158.400 37.600 C 158.400 37.380,158.040 37.200,157.600 37.200 C 157.160 37.200,156.800 37.020,156.800 36.800 C 156.800 36.580,156.260 36.400,155.600 36.400 C 154.940 36.400,154.400 36.220,154.400 36.000 C 154.400 35.780,154.040 35.600,153.600 35.600 C 153.160 35.600,152.800 35.420,152.800 35.200 C 152.800 34.980,152.260 34.800,151.600 34.800 C 150.940 34.800,150.400 34.620,150.400 34.400 C 150.400 34.180,149.860 34.000,149.200 34.000 C 148.540 34.000,148.000 33.820,148.000 33.600 C 148.000 33.380,147.280 33.200,146.400 33.200 C 145.520 33.200,144.800 33.020,144.800 32.800 C 144.800 32.580,143.990 32.400,143.000 32.400 C 142.010 32.400,141.200 32.220,141.200 32.000 C 141.200 31.767,139.867 31.600,138.000 31.600 C 136.133 31.600,134.800 31.433,134.800 31.200 C 134.800 30.953,132.733 30.800,129.400 30.800 C 126.067 30.800,124.000 30.953,124.000 31.200 M138.724 59.172 C 138.802 59.407,139.392 59.600,140.033 59.600 C 140.675 59.600,141.200 59.780,141.200 60.000 C 141.200 60.220,141.650 60.400,142.200 60.400 C 142.750 60.400,143.200 60.580,143.200 60.800 C 143.200 61.020,143.740 61.200,144.400 61.200 C 145.060 61.200,145.600 61.380,145.600 61.600 C 145.600 61.820,145.920 62.000,146.312 62.000 C 146.703 62.000,147.283 62.360,147.600 62.800 C 147.917 63.240,148.497 63.600,148.888 63.600 C 149.280 63.600,149.600 63.780,149.600 64.000 C 149.600 64.220,149.888 64.400,150.240 64.400 C 150.591 64.400,151.383 64.940,152.000 65.600 C 152.617 66.260,153.323 66.800,153.569 66.800 C 154.245 66.800,158.400 71.093,158.400 71.791 C 158.400 72.126,158.124 72.400,157.787 72.400 C 157.449 72.400,156.543 73.030,155.773 73.800 C 155.003 74.570,154.107 75.200,153.781 75.200 C 153.103 75.200,146.400 81.762,146.400 82.426 C 146.400 82.666,145.680 83.554,144.800 84.400 C 143.920 85.246,143.200 86.221,143.200 86.569 C 143.200 86.916,143.033 87.200,142.829 87.200 C 142.625 87.200,142.140 87.920,141.752 88.800 C 141.364 89.680,140.901 90.400,140.723 90.400 C 140.545 90.400,140.400 90.668,140.400 90.997 C 140.400 91.325,140.040 91.818,139.600 92.093 C 139.160 92.368,138.800 92.909,138.800 93.296 C 138.800 93.683,138.620 94.000,138.400 94.000 C 138.180 94.000,138.000 94.360,138.000 94.800 C 138.000 95.240,137.820 95.600,137.600 95.600 C 137.380 95.600,137.200 95.960,137.200 96.400 C 137.200 96.840,137.020 97.200,136.800 97.200 C 136.580 97.200,136.400 97.560,136.400 98.000 C 136.400 98.440,136.220 98.800,136.000 98.800 C 135.780 98.800,135.600 99.160,135.600 99.600 C 135.600 100.040,135.420 100.400,135.200 100.400 C 134.980 100.400,134.800 100.940,134.800 101.600 C 134.800 102.260,134.620 102.800,134.400 102.800 C 134.180 102.800,134.000 103.340,134.000 104.000 C 134.000 104.660,133.820 105.200,133.600 105.200 C 133.380 105.200,133.200 105.740,133.200 106.400 C 133.200 107.060,133.020 107.600,132.800 107.600 C 132.580 107.600,132.400 108.050,132.400 108.600 C 132.400 109.150,132.220 109.600,132.000 109.600 C 131.780 109.600,131.600 110.320,131.600 111.200 C 131.600 112.080,131.420 112.800,131.200 112.800 C 130.978 112.800,130.800 113.867,130.800 115.200 C 130.800 116.533,130.622 117.600,130.400 117.600 C 130.157 117.600,130.000 119.400,130.000 122.200 C 130.000 125.000,129.843 126.800,129.600 126.800 C 129.380 126.800,129.200 127.700,129.200 128.800 C 129.200 129.900,129.380 130.800,129.600 130.800 C 129.820 130.800,130.000 131.700,130.000 132.800 L 130.000 134.800 128.400 134.800 C 127.520 134.800,126.800 134.620,126.800 134.400 C 126.800 134.180,125.810 134.000,124.600 134.000 C 123.390 134.000,122.400 133.820,122.400 133.600 C 122.400 133.380,121.680 133.200,120.800 133.200 C 119.920 133.200,119.200 133.020,119.200 132.800 C 119.200 132.580,118.660 132.400,118.000 132.400 C 117.340 132.400,116.800 132.220,116.800 132.000 C 116.800 131.780,116.260 131.600,115.600 131.600 C 114.940 131.600,114.400 131.420,114.400 131.200 C 114.400 130.980,114.040 130.800,113.600 130.800 C 113.160 130.800,112.800 130.620,112.800 130.400 C 112.800 130.180,112.480 130.000,112.088 130.000 C 111.697 130.000,111.117 129.640,110.800 129.200 C 110.483 128.760,109.946 128.400,109.608 128.400 C 109.269 128.400,108.768 128.040,108.493 127.600 C 108.218 127.160,107.759 126.800,107.473 126.800 C 106.768 126.800,98.800 119.013,98.800 118.324 C 98.800 118.023,98.440 117.517,98.000 117.200 C 97.560 116.883,97.200 116.303,97.200 115.912 C 97.200 115.520,97.020 115.200,96.800 115.200 C 96.580 115.200,96.400 114.840,96.400 114.400 C 96.400 113.960,96.220 113.600,96.000 113.600 C 95.780 113.600,95.600 113.240,95.600 112.800 C 95.600 112.360,95.420 112.000,95.200 112.000 C 94.980 112.000,94.800 111.640,94.800 111.200 C 94.800 110.760,94.620 110.400,94.400 110.400 C 94.180 110.400,94.000 110.040,94.000 109.600 C 94.000 109.160,93.820 108.800,93.600 108.800 C 93.380 108.800,93.200 108.350,93.200 107.800 C 93.200 107.250,93.020 106.800,92.800 106.800 C 92.580 106.800,92.400 106.080,92.400 105.200 C 92.400 104.320,92.220 103.600,92.000 103.600 C 91.749 103.600,91.600 101.000,91.600 96.600 C 91.600 92.200,91.749 89.600,92.000 89.600 C 92.220 89.600,92.400 88.880,92.400 88.000 C 92.400 87.120,92.580 86.400,92.800 86.400 C 93.020 86.400,93.200 85.860,93.200 85.200 C 93.200 84.540,93.380 84.000,93.600 84.000 C 93.820 84.000,94.000 83.460,94.000 82.800 C 94.000 82.140,94.180 81.600,94.400 81.600 C 94.620 81.600,94.800 81.240,94.800 80.800 C 94.800 80.360,94.980 80.000,95.200 80.000 C 95.420 80.000,95.600 79.640,95.600 79.200 C 95.600 78.760,95.780 78.400,96.000 78.400 C 96.220 78.400,96.400 78.080,96.400 77.688 C 96.400 77.297,96.760 76.717,97.200 76.400 C 97.640 76.083,98.000 75.665,98.000 75.472 C 98.000 75.279,98.540 74.617,99.200 74.000 C 99.860 73.383,100.400 72.678,100.400 72.432 C 100.400 71.849,105.449 66.800,106.032 66.800 C 106.278 66.800,106.983 66.260,107.600 65.600 C 108.217 64.940,108.919 64.400,109.160 64.400 C 109.402 64.400,109.600 64.220,109.600 64.000 C 109.600 63.780,109.920 63.600,110.312 63.600 C 110.703 63.600,111.283 63.240,111.600 62.800 C 111.917 62.360,112.497 62.000,112.888 62.000 C 113.280 62.000,113.600 61.820,113.600 61.600 C 113.600 61.380,114.140 61.200,114.800 61.200 C 115.460 61.200,116.000 61.020,116.000 60.800 C 116.000 60.580,116.540 60.400,117.200 60.400 C 117.860 60.400,118.400 60.220,118.400 60.000 C 118.400 59.780,118.940 59.600,119.600 59.600 C 120.260 59.600,120.800 59.429,120.800 59.221 C 120.800 58.368,138.440 58.320,138.724 59.172 M279.122 59.165 C 279.201 59.404,279.972 59.600,280.833 59.600 C 281.695 59.600,282.400 59.780,282.400 60.000 C 282.400 60.220,282.760 60.400,283.200 60.400 C 283.640 60.400,284.000 60.580,284.000 60.800 C 284.000 61.020,284.540 61.200,285.200 61.200 C 285.860 61.200,286.400 61.380,286.400 61.600 C 286.400 61.820,286.720 62.000,287.112 62.000 C 287.503 62.000,288.083 62.360,288.400 62.800 C 288.717 63.240,289.297 63.600,289.688 63.600 C 290.080 63.600,290.400 63.780,290.400 64.000 C 290.400 64.220,290.650 64.400,290.955 64.400 C 291.260 64.400,291.935 64.938,292.455 65.596 C 292.975 66.254,293.628 66.794,293.907 66.796 C 294.535 66.801,299.600 71.816,299.600 72.432 C 299.600 72.678,300.140 73.383,300.800 74.000 C 301.460 74.617,302.000 75.279,302.000 75.472 C 302.000 75.665,302.360 76.083,302.800 76.400 C 303.240 76.717,303.600 77.297,303.600 77.688 C 303.600 78.080,303.780 78.400,304.000 78.400 C 304.220 78.400,304.400 78.760,304.400 79.200 C 304.400 79.640,304.580 80.000,304.800 80.000 C 305.020 80.000,305.200 80.360,305.200 80.800 C 305.200 81.240,305.380 81.600,305.600 81.600 C 305.820 81.600,306.000 82.140,306.000 82.800 C 306.000 83.460,306.180 84.000,306.400 84.000 C 306.620 84.000,306.800 84.540,306.800 85.200 C 306.800 85.860,306.980 86.400,307.200 86.400 C 307.420 86.400,307.600 87.120,307.600 88.000 C 307.600 88.880,307.780 89.600,308.000 89.600 C 308.251 89.600,308.400 92.200,308.400 96.600 C 308.400 101.000,308.251 103.600,308.000 103.600 C 307.780 103.600,307.600 104.320,307.600 105.200 C 307.600 106.080,307.420 106.800,307.200 106.800 C 306.980 106.800,306.800 107.250,306.800 107.800 C 306.800 108.350,306.620 108.800,306.400 108.800 C 306.180 108.800,306.000 109.340,306.000 110.000 C 306.000 110.660,305.820 111.200,305.600 111.200 C 305.380 111.200,305.200 111.560,305.200 112.000 C 305.200 112.440,305.020 112.800,304.800 112.800 C 304.580 112.800,304.400 113.120,304.400 113.512 C 304.400 113.903,304.040 114.483,303.600 114.800 C 303.160 115.117,302.800 115.657,302.800 116.000 C 302.800 116.343,302.440 116.883,302.000 117.200 C 301.560 117.517,301.200 118.021,301.200 118.320 C 301.200 118.618,300.480 119.554,299.600 120.400 C 298.720 121.246,298.000 122.144,298.000 122.397 C 298.000 123.013,296.987 123.996,296.329 124.018 C 296.038 124.028,294.990 124.837,294.000 125.815 C 293.010 126.793,292.015 127.595,291.788 127.597 C 291.562 127.599,291.117 127.960,290.800 128.400 C 290.483 128.840,289.903 129.200,289.512 129.200 C 289.120 129.200,288.800 129.380,288.800 129.600 C 288.800 129.820,288.440 130.000,288.000 130.000 C 287.560 130.000,287.200 130.180,287.200 130.400 C 287.200 130.620,286.840 130.800,286.400 130.800 C 285.960 130.800,285.600 130.980,285.600 131.200 C 285.600 131.420,285.240 131.600,284.800 131.600 C 284.360 131.600,284.000 131.780,284.000 132.000 C 284.000 132.220,283.460 132.400,282.800 132.400 C 282.140 132.400,281.600 132.580,281.600 132.800 C 281.600 133.020,280.880 133.200,280.000 133.200 C 279.120 133.200,278.400 133.380,278.400 133.600 C 278.400 133.820,277.410 134.000,276.200 134.000 C 274.990 134.000,274.000 134.180,274.000 134.400 C 274.000 134.620,273.100 134.800,272.000 134.800 L 270.000 134.800 270.000 127.000 C 270.000 122.067,269.853 119.200,269.600 119.200 C 269.378 119.200,269.200 118.133,269.200 116.800 C 269.200 115.467,269.022 114.400,268.800 114.400 C 268.580 114.400,268.400 113.500,268.400 112.400 C 268.400 111.300,268.220 110.400,268.000 110.400 C 267.780 110.400,267.600 109.950,267.600 109.400 C 267.600 108.850,267.420 108.400,267.200 108.400 C 266.980 108.400,266.800 107.680,266.800 106.800 C 266.800 105.920,266.620 105.200,266.400 105.200 C 266.180 105.200,266.000 104.840,266.000 104.400 C 266.000 103.960,265.820 103.600,265.600 103.600 C 265.380 103.600,265.200 103.060,265.200 102.400 C 265.200 101.740,265.020 101.200,264.800 101.200 C 264.580 101.200,264.400 100.840,264.400 100.400 C 264.400 99.960,264.220 99.600,264.000 99.600 C 263.780 99.600,263.600 99.240,263.600 98.800 C 263.600 98.360,263.420 98.000,263.200 98.000 C 262.980 98.000,262.800 97.640,262.800 97.200 C 262.800 96.760,262.620 96.400,262.400 96.400 C 262.180 96.400,262.000 96.040,262.000 95.600 C 262.000 95.160,261.820 94.800,261.600 94.800 C 261.380 94.800,261.200 94.440,261.200 94.000 C 261.200 93.560,261.020 93.200,260.800 93.200 C 260.580 93.200,260.400 92.940,260.400 92.623 C 260.400 92.305,260.069 91.810,259.665 91.523 C 259.260 91.235,258.807 90.505,258.657 89.900 C 258.507 89.295,258.208 88.800,257.992 88.800 C 257.777 88.800,257.600 88.512,257.600 88.160 C 257.600 87.809,257.060 87.017,256.400 86.400 C 255.740 85.783,255.200 85.076,255.200 84.828 C 255.200 84.580,253.043 82.267,250.408 79.688 C 244.334 73.746,243.726 73.200,243.186 73.200 C 242.615 73.200,241.600 72.187,241.600 71.618 C 241.600 71.045,245.047 67.600,245.621 67.600 C 245.864 67.600,246.754 66.880,247.600 66.000 C 248.446 65.120,249.421 64.400,249.769 64.400 C 250.116 64.400,250.400 64.220,250.400 64.000 C 250.400 63.780,250.760 63.600,251.200 63.600 C 251.640 63.600,252.000 63.420,252.000 63.200 C 252.000 62.980,252.360 62.800,252.800 62.800 C 253.240 62.800,253.600 62.620,253.600 62.400 C 253.600 62.180,253.960 62.000,254.400 62.000 C 254.840 62.000,255.200 61.820,255.200 61.600 C 255.200 61.380,255.560 61.200,256.000 61.200 C 256.440 61.200,256.800 61.020,256.800 60.800 C 256.800 60.580,257.160 60.400,257.600 60.400 C 258.040 60.400,258.400 60.220,258.400 60.000 C 258.400 59.780,259.030 59.600,259.800 59.600 C 260.570 59.600,261.200 59.430,261.200 59.223 C 261.200 58.356,278.833 58.299,279.122 59.165 M205.200 85.200 C 205.200 85.420,206.190 85.600,207.400 85.600 C 208.610 85.600,209.600 85.780,209.600 86.000 C 209.600 86.220,210.140 86.400,210.800 86.400 C 211.460 86.400,212.000 86.580,212.000 86.800 C 212.000 87.020,212.540 87.200,213.200 87.200 C 213.860 87.200,214.400 87.380,214.400 87.600 C 214.400 87.820,214.940 88.000,215.600 88.000 C 216.260 88.000,216.800 88.180,216.800 88.400 C 216.800 88.620,217.160 88.800,217.600 88.800 C 218.040 88.800,218.400 88.980,218.400 89.200 C 218.400 89.420,218.760 89.600,219.200 89.600 C 219.640 89.600,220.000 89.780,220.000 90.000 C 220.000 90.220,220.360 90.400,220.800 90.400 C 221.240 90.400,221.600 90.580,221.600 90.800 C 221.600 91.020,221.947 91.200,222.371 91.200 C 222.796 91.200,223.413 91.470,223.743 91.800 C 224.073 92.130,224.460 92.400,224.603 92.400 C 224.746 92.400,225.554 93.120,226.400 94.000 C 227.246 94.880,228.135 95.600,228.377 95.600 C 228.951 95.600,233.200 99.849,233.200 100.423 C 233.200 100.665,233.920 101.554,234.800 102.400 C 235.680 103.246,236.400 104.221,236.400 104.569 C 236.400 104.916,236.580 105.200,236.800 105.200 C 237.020 105.200,237.200 105.520,237.200 105.912 C 237.200 106.303,237.560 106.883,238.000 107.200 C 238.440 107.517,238.800 108.007,238.800 108.288 C 238.800 108.570,238.980 108.800,239.200 108.800 C 239.420 108.800,239.600 109.160,239.600 109.600 C 239.600 110.040,239.780 110.400,240.000 110.400 C 240.220 110.400,240.400 110.940,240.400 111.600 C 240.400 112.260,240.569 112.800,240.775 112.800 C 240.982 112.800,241.261 113.655,241.396 114.700 C 241.531 115.745,241.812 116.913,242.020 117.295 C 242.229 117.677,242.400 118.622,242.400 119.395 C 242.400 120.168,242.580 120.800,242.800 120.800 C 243.026 120.800,243.200 121.933,243.200 123.400 C 243.200 124.867,243.374 126.000,243.600 126.000 C 243.820 126.000,244.000 126.360,244.000 126.800 C 244.000 127.240,243.820 127.600,243.600 127.600 C 243.360 127.600,243.200 129.200,243.200 131.600 C 243.200 134.000,243.040 135.600,242.800 135.600 C 242.580 135.600,242.400 136.309,242.400 137.176 C 242.400 138.043,242.244 138.849,242.053 138.967 C 241.862 139.085,241.610 140.035,241.492 141.078 C 241.375 142.121,241.081 143.040,240.839 143.120 C 240.598 143.201,240.400 143.792,240.400 144.433 C 240.400 145.075,240.220 145.600,240.000 145.600 C 239.780 145.600,239.600 145.960,239.600 146.400 C 239.600 146.840,239.420 147.200,239.200 147.200 C 238.980 147.200,238.800 147.560,238.800 148.000 C 238.800 148.440,238.620 148.800,238.400 148.800 C 238.180 148.800,238.000 149.120,238.000 149.512 C 238.000 149.903,237.640 150.483,237.200 150.800 C 236.760 151.117,236.400 151.657,236.400 152.000 C 236.400 152.343,236.040 152.883,235.600 153.200 C 235.160 153.517,234.790 154.052,234.778 154.388 C 234.766 154.725,233.860 155.810,232.764 156.800 C 231.668 157.790,229.611 159.725,228.193 161.100 C 226.775 162.475,225.471 163.600,225.296 163.600 C 225.120 163.600,224.717 163.960,224.400 164.400 C 224.083 164.840,223.503 165.200,223.112 165.200 C 222.720 165.200,222.400 165.380,222.400 165.600 C 222.400 165.820,222.080 166.000,221.688 166.000 C 221.297 166.000,220.717 166.360,220.400 166.800 C 220.083 167.240,219.503 167.600,219.112 167.600 C 218.720 167.600,218.400 167.780,218.400 168.000 C 218.400 168.220,217.860 168.400,217.200 168.400 C 216.540 168.400,216.000 168.580,216.000 168.800 C 216.000 169.020,215.640 169.200,215.200 169.200 C 214.760 169.200,214.400 169.380,214.400 169.600 C 214.400 169.820,213.860 170.000,213.200 170.000 C 212.540 170.000,212.000 170.180,212.000 170.400 C 212.000 170.620,211.280 170.800,210.400 170.800 C 209.520 170.800,208.800 170.980,208.800 171.200 C 208.800 171.420,207.810 171.600,206.600 171.600 C 205.390 171.600,204.400 171.780,204.400 172.000 C 204.400 172.242,202.667 172.400,200.000 172.400 C 197.333 172.400,195.600 172.242,195.600 172.000 C 195.600 171.780,194.610 171.600,193.400 171.600 C 192.190 171.600,191.200 171.420,191.200 171.200 C 191.200 170.980,190.480 170.800,189.600 170.800 C 188.720 170.800,188.000 170.620,188.000 170.400 C 188.000 170.180,187.460 170.000,186.800 170.000 C 186.140 170.000,185.600 169.820,185.600 169.600 C 185.600 169.380,185.060 169.200,184.400 169.200 C 183.740 169.200,183.200 169.020,183.200 168.800 C 183.200 168.580,182.840 168.400,182.400 168.400 C 181.960 168.400,181.600 168.220,181.600 168.000 C 181.600 167.780,181.240 167.600,180.800 167.600 C 180.360 167.600,180.000 167.420,180.000 167.200 C 180.000 166.980,179.680 166.800,179.288 166.800 C 178.897 166.800,178.317 166.440,178.000 166.000 C 177.683 165.560,177.143 165.200,176.800 165.200 C 176.457 165.200,175.917 164.840,175.600 164.400 C 175.283 163.960,174.869 163.600,174.680 163.600 C 174.492 163.600,173.646 162.880,172.800 162.000 C 171.954 161.120,171.060 160.400,170.813 160.400 C 170.346 160.400,168.400 158.620,168.400 158.192 C 168.400 158.058,167.500 157.071,166.400 156.000 C 165.300 154.929,164.400 153.810,164.400 153.514 C 164.400 153.219,164.040 152.717,163.600 152.400 C 163.160 152.083,162.800 151.503,162.800 151.112 C 162.800 150.720,162.620 150.400,162.400 150.400 C 162.180 150.400,162.000 150.040,162.000 149.600 C 162.000 149.160,161.820 148.800,161.600 148.800 C 161.380 148.800,161.200 148.440,161.200 148.000 C 161.200 147.560,161.020 147.200,160.800 147.200 C 160.580 147.200,160.400 146.840,160.400 146.400 C 160.400 145.960,160.220 145.600,160.000 145.600 C 159.780 145.600,159.600 145.255,159.600 144.833 C 159.600 144.412,159.422 144.007,159.204 143.933 C 158.986 143.860,158.690 142.675,158.547 141.300 C 158.403 139.925,158.132 138.800,157.943 138.800 C 157.754 138.800,157.600 137.900,157.600 136.800 C 157.600 135.700,157.420 134.800,157.200 134.800 C 156.951 134.800,156.800 132.467,156.800 128.600 C 156.800 124.733,156.951 122.400,157.200 122.400 C 157.420 122.400,157.600 121.500,157.600 120.400 C 157.600 119.300,157.755 118.400,157.944 118.400 C 158.133 118.400,158.395 117.368,158.525 116.106 C 158.655 114.845,158.950 113.750,159.181 113.673 C 159.411 113.596,159.600 113.008,159.600 112.367 C 159.600 111.725,159.780 111.200,160.000 111.200 C 160.220 111.200,160.400 110.840,160.400 110.400 C 160.400 109.960,160.580 109.600,160.800 109.600 C 161.020 109.600,161.200 109.330,161.200 109.000 C 161.200 108.670,161.380 108.400,161.600 108.400 C 161.820 108.400,162.000 108.080,162.000 107.688 C 162.000 107.297,162.360 106.717,162.800 106.400 C 163.240 106.083,163.600 105.543,163.600 105.200 C 163.600 104.857,163.960 104.317,164.400 104.000 C 164.840 103.683,165.200 103.181,165.200 102.886 C 165.200 102.590,166.100 101.471,167.200 100.400 C 168.300 99.329,169.200 98.170,169.200 97.826 C 169.200 97.482,169.482 97.200,169.826 97.200 C 170.170 97.200,171.329 96.300,172.400 95.200 C 173.471 94.100,174.474 93.200,174.627 93.200 C 174.781 93.200,175.197 92.869,175.553 92.464 C 175.909 92.059,176.695 91.606,177.300 91.456 C 177.905 91.307,178.400 91.008,178.400 90.792 C 178.400 90.577,178.760 90.400,179.200 90.400 C 179.640 90.400,180.000 90.220,180.000 90.000 C 180.000 89.780,180.360 89.600,180.800 89.600 C 181.240 89.600,181.600 89.420,181.600 89.200 C 181.600 88.980,182.140 88.800,182.800 88.800 C 183.460 88.800,184.000 88.620,184.000 88.400 C 184.000 88.180,184.360 88.000,184.800 88.000 C 185.240 88.000,185.600 87.820,185.600 87.600 C 185.600 87.380,186.140 87.200,186.800 87.200 C 187.460 87.200,188.000 87.020,188.000 86.800 C 188.000 86.580,188.720 86.400,189.600 86.400 C 190.480 86.400,191.200 86.220,191.200 86.000 C 191.200 85.780,192.190 85.600,193.400 85.600 C 194.610 85.600,195.600 85.420,195.600 85.200 C 195.600 84.956,197.467 84.800,200.400 84.800 C 203.333 84.800,205.200 84.956,205.200 85.200 M138.229 161.771 C 138.543 162.086,138.800 162.626,138.800 162.971 C 138.800 163.317,138.980 163.600,139.200 163.600 C 139.420 163.600,139.600 163.960,139.600 164.400 C 139.600 164.840,139.780 165.200,140.000 165.200 C 140.220 165.200,140.400 165.560,140.400 166.000 C 140.400 166.440,140.562 166.800,140.761 166.800 C 140.959 166.800,141.301 167.313,141.519 167.940 C 141.738 168.567,142.385 169.549,142.958 170.122 C 143.531 170.695,144.008 171.397,144.018 171.682 C 144.029 171.967,144.755 172.830,145.633 173.600 C 148.078 175.744,153.600 181.138,153.600 181.383 C 153.600 181.502,153.240 181.600,152.800 181.600 C 152.360 181.600,152.000 181.780,152.000 182.000 C 152.000 182.220,151.640 182.400,151.200 182.400 C 150.760 182.400,150.400 182.580,150.400 182.800 C 150.400 183.020,149.860 183.200,149.200 183.200 C 148.540 183.200,148.000 183.380,148.000 183.600 C 148.000 183.820,147.640 184.000,147.200 184.000 C 146.760 184.000,146.400 184.180,146.400 184.400 C 146.400 184.620,146.040 184.800,145.600 184.800 C 145.160 184.800,144.800 184.980,144.800 185.200 C 144.800 185.420,144.480 185.600,144.088 185.600 C 143.697 185.600,143.117 185.960,142.800 186.400 C 142.483 186.840,141.993 187.200,141.712 187.200 C 141.430 187.200,141.200 187.380,141.200 187.600 C 141.200 187.820,140.840 188.000,140.400 188.000 C 139.960 188.000,139.600 188.180,139.600 188.400 C 139.600 188.620,139.280 188.800,138.888 188.800 C 138.497 188.800,137.917 189.160,137.600 189.600 C 137.283 190.040,136.703 190.400,136.312 190.400 C 135.920 190.400,135.600 190.580,135.600 190.800 C 135.600 191.020,135.262 191.200,134.849 191.200 C 134.436 191.200,133.874 191.470,133.600 191.800 C 133.326 192.130,132.804 192.400,132.439 192.400 C 132.075 192.400,131.517 192.760,131.200 193.200 C 130.883 193.640,130.375 194.000,130.072 194.000 C 129.769 194.000,129.017 194.540,128.400 195.200 C 127.783 195.860,127.057 196.400,126.786 196.400 C 126.254 196.400,124.800 197.908,124.800 198.461 C 124.800 198.648,124.516 198.800,124.169 198.800 C 123.821 198.800,122.846 199.520,122.000 200.400 C 121.154 201.280,120.266 202.000,120.026 202.000 C 119.172 202.000,102.800 218.371,102.800 219.225 C 102.800 219.466,102.080 220.354,101.200 221.200 C 100.320 222.046,99.600 222.955,99.600 223.222 C 99.600 223.748,98.088 225.200,97.539 225.200 C 97.352 225.200,97.200 225.520,97.200 225.912 C 97.200 226.303,96.840 226.883,96.400 227.200 C 95.960 227.517,95.600 228.025,95.600 228.328 C 95.600 228.631,95.060 229.383,94.400 230.000 C 93.740 230.617,93.200 231.409,93.200 231.760 C 93.200 232.112,93.020 232.400,92.800 232.400 C 92.580 232.400,92.400 232.738,92.400 233.151 C 92.400 233.564,92.130 234.126,91.800 234.400 C 91.470 234.674,91.200 235.236,91.200 235.649 C 91.200 236.062,91.020 236.400,90.800 236.400 C 90.580 236.400,90.400 236.720,90.400 237.112 C 90.400 237.503,90.040 238.083,89.600 238.400 C 89.160 238.717,88.800 239.297,88.800 239.688 C 88.800 240.080,88.654 240.400,88.475 240.400 C 88.296 240.400,87.902 241.030,87.600 241.800 C 87.298 242.570,86.904 243.200,86.725 243.200 C 86.546 243.200,86.400 243.560,86.400 244.000 C 86.400 244.440,86.220 244.800,86.000 244.800 C 85.780 244.800,85.600 245.160,85.600 245.600 C 85.600 246.040,85.420 246.400,85.200 246.400 C 84.980 246.400,84.800 246.760,84.800 247.200 C 84.800 247.640,84.620 248.000,84.400 248.000 C 84.180 248.000,84.000 248.360,84.000 248.800 C 84.000 249.240,83.820 249.600,83.600 249.600 C 83.380 249.600,83.200 249.960,83.200 250.400 C 83.200 250.840,83.020 251.200,82.800 251.200 C 82.580 251.200,82.400 251.560,82.400 252.000 C 82.400 252.440,82.220 252.800,82.000 252.800 C 81.780 252.800,81.600 253.340,81.600 254.000 C 81.600 254.660,81.420 255.200,81.200 255.200 C 80.980 255.200,80.800 255.560,80.800 256.000 C 80.800 256.440,80.620 256.800,80.400 256.800 C 80.180 256.800,80.000 257.250,80.000 257.800 C 80.000 258.350,79.820 258.800,79.600 258.800 C 79.380 258.800,79.200 259.340,79.200 260.000 C 79.200 260.660,79.020 261.200,78.800 261.200 C 78.580 261.200,78.400 261.740,78.400 262.400 C 78.400 263.060,78.220 263.600,78.000 263.600 C 77.780 263.600,77.600 264.140,77.600 264.800 C 77.600 265.460,77.420 266.000,77.200 266.000 C 76.980 266.000,76.800 266.540,76.800 267.200 C 76.800 267.860,76.620 268.400,76.400 268.400 C 76.180 268.400,76.000 269.120,76.000 270.000 C 76.000 270.880,75.841 271.600,75.647 271.600 C 75.453 271.600,75.167 272.950,75.013 274.600 C 74.858 276.250,74.567 277.600,74.366 277.600 C 74.165 277.600,74.000 278.500,74.000 279.600 L 74.000 281.600 72.400 281.600 C 71.520 281.600,70.800 281.420,70.800 281.200 C 70.800 280.980,70.080 280.800,69.200 280.800 C 68.320 280.800,67.600 280.620,67.600 280.400 C 67.600 280.180,67.060 280.000,66.400 280.000 C 65.740 280.000,65.200 279.820,65.200 279.600 C 65.200 279.380,64.660 279.200,64.000 279.200 C 63.340 279.200,62.800 279.020,62.800 278.800 C 62.800 278.580,62.440 278.400,62.000 278.400 C 61.560 278.400,61.200 278.220,61.200 278.000 C 61.200 277.780,60.660 277.600,60.000 277.600 C 59.340 277.600,58.799 277.465,58.797 277.300 C 58.793 276.952,56.866 276.000,56.166 276.000 C 55.905 276.000,55.176 275.731,54.546 275.402 C 53.916 275.074,53.125 274.804,52.788 274.802 C 52.452 274.801,51.917 274.440,51.600 274.000 C 51.283 273.560,50.703 273.200,50.312 273.200 C 49.920 273.200,49.600 273.020,49.600 272.800 C 49.600 272.580,49.280 272.400,48.888 272.400 C 48.497 272.400,47.917 272.040,47.600 271.600 C 47.283 271.160,46.783 270.800,46.490 270.800 C 46.196 270.800,44.931 269.728,43.678 268.417 C 40.631 265.231,40.400 264.934,40.400 264.217 C 40.400 263.878,40.220 263.600,40.000 263.600 C 39.780 263.600,39.600 263.240,39.600 262.800 C 39.600 262.360,39.420 262.000,39.200 262.000 C 38.948 262.000,38.800 259.267,38.800 254.600 C 38.800 249.933,38.948 247.200,39.200 247.200 C 39.422 247.200,39.600 246.133,39.600 244.800 C 39.600 243.467,39.778 242.400,40.000 242.400 C 40.220 242.400,40.400 241.590,40.400 240.600 C 40.400 239.610,40.554 238.800,40.741 238.800 C 40.929 238.800,41.200 237.405,41.344 235.700 C 41.488 233.995,41.785 232.540,42.003 232.467 C 42.221 232.393,42.400 231.808,42.400 231.167 C 42.400 230.525,42.580 230.000,42.800 230.000 C 43.020 230.000,43.200 229.460,43.200 228.800 C 43.200 228.140,43.380 227.600,43.600 227.600 C 43.820 227.600,44.000 227.060,44.000 226.400 C 44.000 225.740,44.180 225.200,44.400 225.200 C 44.620 225.200,44.800 224.750,44.800 224.200 C 44.800 223.650,44.980 223.200,45.200 223.200 C 45.420 223.200,45.600 222.840,45.600 222.400 C 45.600 221.960,45.780 221.600,46.000 221.600 C 46.220 221.600,46.400 221.060,46.400 220.400 C 46.400 219.740,46.580 219.200,46.800 219.200 C 47.020 219.200,47.200 218.840,47.200 218.400 C 47.200 217.960,47.380 217.600,47.600 217.600 C 47.820 217.600,48.000 217.240,48.000 216.800 C 48.000 216.360,48.180 216.000,48.400 216.000 C 48.620 216.000,48.800 215.640,48.800 215.200 C 48.800 214.760,48.980 214.400,49.200 214.400 C 49.420 214.400,49.600 214.040,49.600 213.600 C 49.600 213.160,49.780 212.800,50.000 212.800 C 50.220 212.800,50.400 212.480,50.400 212.088 C 50.400 211.697,50.760 211.117,51.200 210.800 C 51.640 210.483,52.000 209.903,52.000 209.512 C 52.000 209.120,52.180 208.800,52.400 208.800 C 52.620 208.800,52.800 208.570,52.800 208.288 C 52.800 208.007,53.160 207.517,53.600 207.200 C 54.040 206.883,54.400 206.303,54.400 205.912 C 54.400 205.520,54.580 205.200,54.800 205.200 C 55.020 205.200,55.200 204.880,55.200 204.488 C 55.200 204.097,55.560 203.517,56.000 203.200 C 56.440 202.883,56.800 202.385,56.800 202.094 C 56.800 201.802,57.250 201.114,57.800 200.564 C 58.350 200.014,58.800 199.288,58.800 198.950 C 58.800 198.613,59.520 197.646,60.400 196.800 C 61.280 195.954,62.008 195.024,62.018 194.731 C 62.029 194.439,62.758 193.570,63.640 192.800 C 64.521 192.030,67.301 189.375,69.817 186.900 C 72.333 184.425,74.498 182.400,74.627 182.400 C 74.757 182.400,75.554 181.680,76.400 180.800 C 77.246 179.920,78.182 179.200,78.480 179.200 C 78.779 179.200,79.283 178.840,79.600 178.400 C 79.917 177.960,80.425 177.600,80.728 177.600 C 81.031 177.600,81.762 177.083,82.352 176.451 C 82.943 175.819,84.050 175.165,84.813 174.997 C 85.575 174.830,86.491 174.357,86.847 173.946 C 87.203 173.536,87.788 173.200,88.147 173.200 C 88.506 173.200,88.800 173.020,88.800 172.800 C 88.800 172.580,89.160 172.400,89.600 172.400 C 90.040 172.400,90.400 172.220,90.400 172.000 C 90.400 171.780,90.670 171.600,91.000 171.600 C 91.330 171.600,91.600 171.420,91.600 171.200 C 91.600 170.980,91.960 170.800,92.400 170.800 C 92.840 170.800,93.200 170.620,93.200 170.400 C 93.200 170.180,93.560 170.000,94.000 170.000 C 94.440 170.000,94.800 169.820,94.800 169.600 C 94.800 169.380,95.160 169.200,95.600 169.200 C 96.040 169.200,96.400 169.020,96.400 168.800 C 96.400 168.580,96.760 168.400,97.200 168.400 C 97.640 168.400,98.000 168.220,98.000 168.000 C 98.000 167.780,98.360 167.600,98.800 167.600 C 99.240 167.600,99.600 167.420,99.600 167.200 C 99.600 166.980,100.140 166.800,100.800 166.800 C 101.460 166.800,102.000 166.620,102.000 166.400 C 102.000 166.180,102.540 166.000,103.200 166.000 C 103.860 166.000,104.400 165.820,104.400 165.600 C 104.400 165.380,104.940 165.200,105.600 165.200 C 106.260 165.200,106.800 165.020,106.800 164.800 C 106.800 164.580,107.250 164.400,107.800 164.400 C 108.350 164.400,108.800 164.220,108.800 164.000 C 108.800 163.780,109.520 163.600,110.400 163.600 C 111.280 163.600,112.000 163.420,112.000 163.200 C 112.000 162.980,112.900 162.800,114.000 162.800 C 115.100 162.800,116.000 162.620,116.000 162.400 C 116.000 162.171,117.200 162.000,118.800 162.000 C 120.400 162.000,121.600 161.829,121.600 161.600 C 121.600 160.911,137.532 161.075,138.229 161.771 M279.200 161.600 C 279.200 161.822,280.267 162.000,281.600 162.000 C 282.933 162.000,284.000 162.178,284.000 162.400 C 284.000 162.620,284.900 162.800,286.000 162.800 C 287.100 162.800,288.000 162.980,288.000 163.200 C 288.000 163.420,288.720 163.600,289.600 163.600 C 290.480 163.600,291.200 163.780,291.200 164.000 C 291.200 164.220,291.650 164.400,292.200 164.400 C 292.750 164.400,293.200 164.580,293.200 164.800 C 293.200 165.020,293.740 165.200,294.400 165.200 C 295.060 165.200,295.600 165.380,295.600 165.600 C 295.600 165.820,296.140 166.000,296.800 166.000 C 297.460 166.000,298.000 166.180,298.000 166.400 C 298.000 166.620,298.540 166.800,299.200 166.800 C 299.860 166.800,300.400 166.980,300.400 167.200 C 300.400 167.420,300.760 167.600,301.200 167.600 C 301.640 167.600,302.000 167.780,302.000 168.000 C 302.000 168.220,302.360 168.400,302.800 168.400 C 303.240 168.400,303.600 168.580,303.600 168.800 C 303.600 169.020,304.140 169.200,304.800 169.200 C 305.460 169.200,306.000 169.380,306.000 169.600 C 306.000 169.820,306.360 170.000,306.800 170.000 C 307.240 170.000,307.600 170.180,307.600 170.400 C 307.600 170.620,307.830 170.800,308.112 170.800 C 308.393 170.800,308.883 171.160,309.200 171.600 C 309.517 172.040,310.097 172.400,310.488 172.400 C 310.880 172.400,311.200 172.580,311.200 172.800 C 311.200 173.020,311.560 173.200,312.000 173.200 C 312.440 173.200,312.800 173.380,312.800 173.600 C 312.800 173.820,313.160 174.000,313.600 174.000 C 314.040 174.000,314.400 174.177,314.400 174.392 C 314.400 174.608,314.895 174.907,315.500 175.056 C 316.105 175.206,316.891 175.659,317.247 176.064 C 317.603 176.469,318.116 176.800,318.386 176.800 C 318.657 176.800,319.383 177.340,320.000 178.000 C 320.617 178.660,321.333 179.200,321.592 179.200 C 321.851 179.200,322.754 179.920,323.600 180.800 C 324.446 181.680,325.243 182.400,325.373 182.400 C 325.502 182.400,327.667 184.425,330.183 186.900 C 332.699 189.375,335.479 192.030,336.360 192.800 C 337.242 193.570,337.971 194.439,337.982 194.731 C 337.992 195.024,338.720 195.954,339.600 196.800 C 340.480 197.646,341.200 198.578,341.200 198.873 C 341.200 199.167,341.650 199.893,342.200 200.487 C 342.750 201.080,343.200 201.803,343.200 202.094 C 343.200 202.385,343.560 202.883,344.000 203.200 C 344.440 203.517,344.800 204.097,344.800 204.488 C 344.800 204.880,344.980 205.200,345.200 205.200 C 345.420 205.200,345.600 205.520,345.600 205.912 C 345.600 206.303,345.960 206.883,346.400 207.200 C 346.840 207.517,347.200 208.007,347.200 208.288 C 347.200 208.570,347.380 208.800,347.600 208.800 C 347.820 208.800,348.000 209.120,348.000 209.512 C 348.000 209.903,348.360 210.483,348.800 210.800 C 349.240 211.117,349.600 211.697,349.600 212.088 C 349.600 212.480,349.780 212.800,350.000 212.800 C 350.220 212.800,350.400 213.160,350.400 213.600 C 350.400 214.040,350.580 214.400,350.800 214.400 C 351.020 214.400,351.200 214.760,351.200 215.200 C 351.200 215.640,351.380 216.000,351.600 216.000 C 351.820 216.000,352.000 216.360,352.000 216.800 C 352.000 217.240,352.180 217.600,352.400 217.600 C 352.620 217.600,352.800 217.960,352.800 218.400 C 352.800 218.840,352.980 219.200,353.200 219.200 C 353.420 219.200,353.600 219.740,353.600 220.400 C 353.600 221.060,353.780 221.600,354.000 221.600 C 354.220 221.600,354.400 221.960,354.400 222.400 C 354.400 222.840,354.580 223.200,354.800 223.200 C 355.020 223.200,355.200 223.650,355.200 224.200 C 355.200 224.750,355.380 225.200,355.600 225.200 C 355.820 225.200,356.000 225.740,356.000 226.400 C 356.000 227.060,356.180 227.600,356.400 227.600 C 356.620 227.600,356.800 228.140,356.800 228.800 C 356.800 229.460,356.980 230.000,357.200 230.000 C 357.420 230.000,357.600 230.540,357.600 231.200 C 357.600 231.860,357.766 232.400,357.968 232.400 C 358.171 232.400,358.449 233.615,358.587 235.100 C 358.725 236.585,359.009 238.113,359.219 238.495 C 359.429 238.877,359.600 239.912,359.600 240.795 C 359.600 241.678,359.780 242.400,360.000 242.400 C 360.222 242.400,360.400 243.467,360.400 244.800 C 360.400 246.133,360.578 247.200,360.800 247.200 C 361.052 247.200,361.200 249.933,361.200 254.600 C 361.200 259.267,361.052 262.000,360.800 262.000 C 360.580 262.000,360.400 262.360,360.400 262.800 C 360.400 263.240,360.220 263.600,360.000 263.600 C 359.780 263.600,359.600 263.878,359.600 264.217 C 359.600 264.934,359.369 265.231,356.322 268.417 C 355.069 269.728,353.804 270.800,353.510 270.800 C 353.217 270.800,352.717 271.160,352.400 271.600 C 352.083 272.040,351.503 272.400,351.112 272.400 C 350.720 272.400,350.400 272.580,350.400 272.800 C 350.400 273.020,350.080 273.200,349.688 273.200 C 349.297 273.200,348.717 273.560,348.400 274.000 C 348.083 274.440,347.548 274.801,347.212 274.802 C 346.875 274.803,345.714 275.253,344.632 275.802 C 343.550 276.351,342.335 276.800,341.932 276.800 C 341.529 276.800,341.200 276.980,341.200 277.200 C 341.200 277.420,340.840 277.600,340.400 277.600 C 339.960 277.600,339.600 277.780,339.600 278.000 C 339.600 278.220,339.060 278.400,338.400 278.400 C 337.740 278.400,337.200 278.580,337.200 278.800 C 337.200 279.020,336.660 279.200,336.000 279.200 C 335.340 279.200,334.800 279.380,334.800 279.600 C 334.800 279.820,334.260 280.000,333.600 280.000 C 332.940 280.000,332.400 280.180,332.400 280.400 C 332.400 280.620,331.860 280.800,331.200 280.800 C 330.540 280.800,330.000 280.980,330.000 281.200 C 330.000 281.420,329.100 281.600,328.000 281.600 L 326.000 281.600 326.000 279.600 C 326.000 278.500,325.846 277.600,325.657 277.600 C 325.469 277.600,325.194 276.295,325.046 274.700 C 324.899 273.105,324.603 271.740,324.389 271.667 C 324.175 271.593,324.000 270.828,324.000 269.967 C 324.000 269.105,323.820 268.400,323.600 268.400 C 323.380 268.400,323.200 267.860,323.200 267.200 C 323.200 266.540,323.020 266.000,322.800 266.000 C 322.580 266.000,322.400 265.460,322.400 264.800 C 322.400 264.140,322.220 263.600,322.000 263.600 C 321.780 263.600,321.600 263.060,321.600 262.400 C 321.600 261.740,321.420 261.200,321.200 261.200 C 320.980 261.200,320.800 260.660,320.800 260.000 C 320.800 259.340,320.620 258.800,320.400 258.800 C 320.180 258.800,320.000 258.350,320.000 257.800 C 320.000 257.250,319.820 256.800,319.600 256.800 C 319.380 256.800,319.200 256.440,319.200 256.000 C 319.200 255.560,319.020 255.200,318.800 255.200 C 318.580 255.200,318.400 254.660,318.400 254.000 C 318.400 253.340,318.220 252.800,318.000 252.800 C 317.780 252.800,317.600 252.440,317.600 252.000 C 317.600 251.560,317.420 251.200,317.200 251.200 C 316.980 251.200,316.800 250.840,316.800 250.400 C 316.800 249.960,316.620 249.600,316.400 249.600 C 316.180 249.600,316.000 249.240,316.000 248.800 C 316.000 248.360,315.820 248.000,315.600 248.000 C 315.380 248.000,315.200 247.640,315.200 247.200 C 315.200 246.760,315.020 246.400,314.800 246.400 C 314.580 246.400,314.400 246.040,314.400 245.600 C 314.400 245.160,314.220 244.800,314.000 244.800 C 313.780 244.800,313.600 244.440,313.600 244.000 C 313.600 243.560,313.454 243.200,313.275 243.200 C 313.096 243.200,312.702 242.570,312.400 241.800 C 312.098 241.030,311.704 240.400,311.525 240.400 C 311.346 240.400,311.200 240.080,311.200 239.688 C 311.200 239.297,310.840 238.717,310.400 238.400 C 309.960 238.083,309.600 237.503,309.600 237.112 C 309.600 236.720,309.420 236.400,309.200 236.400 C 308.980 236.400,308.800 236.053,308.800 235.629 C 308.800 235.204,308.530 234.587,308.200 234.257 C 307.870 233.927,307.600 233.414,307.600 233.117 C 307.600 232.820,307.240 232.317,306.800 232.000 C 306.360 231.683,306.000 231.143,306.000 230.800 C 306.000 230.457,305.640 229.917,305.200 229.600 C 304.760 229.283,304.400 228.743,304.400 228.400 C 304.400 228.057,304.040 227.517,303.600 227.200 C 303.160 226.883,302.800 226.303,302.800 225.912 C 302.800 225.520,302.648 225.200,302.461 225.200 C 301.912 225.200,300.400 223.748,300.400 223.222 C 300.400 222.955,299.680 222.046,298.800 221.200 C 297.920 220.354,297.200 219.466,297.200 219.225 C 297.200 218.371,280.828 202.000,279.974 202.000 C 279.734 202.000,278.846 201.280,278.000 200.400 C 277.154 199.520,276.179 198.800,275.831 198.800 C 275.484 198.800,275.200 198.648,275.200 198.461 C 275.200 197.908,273.746 196.400,273.214 196.400 C 272.943 196.400,272.217 195.860,271.600 195.200 C 270.983 194.540,270.231 194.000,269.928 194.000 C 269.625 194.000,269.117 193.640,268.800 193.200 C 268.483 192.760,267.925 192.400,267.561 192.400 C 267.196 192.400,266.674 192.130,266.400 191.800 C 266.126 191.470,265.564 191.200,265.151 191.200 C 264.738 191.200,264.400 191.020,264.400 190.800 C 264.400 190.580,264.080 190.400,263.688 190.400 C 263.297 190.400,262.717 190.040,262.400 189.600 C 262.083 189.160,261.503 188.800,261.112 188.800 C 260.720 188.800,260.400 188.620,260.400 188.400 C 260.400 188.180,260.040 188.000,259.600 188.000 C 259.160 188.000,258.800 187.820,258.800 187.600 C 258.800 187.380,258.530 187.200,258.200 187.200 C 257.870 187.200,257.600 187.020,257.600 186.800 C 257.600 186.580,257.240 186.400,256.800 186.400 C 256.360 186.400,256.000 186.220,256.000 186.000 C 256.000 185.780,255.680 185.600,255.288 185.600 C 254.897 185.600,254.317 185.240,254.000 184.800 C 253.661 184.330,252.965 184.000,252.312 184.000 C 251.700 184.000,251.200 183.820,251.200 183.600 C 251.200 183.380,250.840 183.200,250.400 183.200 C 249.960 183.200,249.600 183.020,249.600 182.800 C 249.600 182.580,249.240 182.400,248.800 182.400 C 248.360 182.400,248.000 182.220,248.000 182.000 C 248.000 181.780,247.640 181.600,247.200 181.600 C 246.760 181.600,246.400 181.420,246.400 181.200 C 246.400 180.980,246.674 180.800,247.009 180.800 C 247.801 180.800,252.000 176.601,252.000 175.809 C 252.000 175.474,252.165 175.200,252.367 175.200 C 252.915 175.200,256.000 172.136,256.000 171.592 C 256.000 171.333,256.510 170.644,257.133 170.060 C 257.756 169.477,258.389 168.505,258.540 167.900 C 258.692 167.295,258.992 166.800,259.208 166.800 C 259.423 166.800,259.600 166.440,259.600 166.000 C 259.600 165.560,259.780 165.200,260.000 165.200 C 260.220 165.200,260.400 164.880,260.400 164.488 C 260.400 164.097,260.760 163.517,261.200 163.200 C 261.640 162.883,262.000 162.303,262.000 161.912 C 262.000 161.252,262.622 161.200,270.600 161.200 C 276.067 161.200,279.200 161.346,279.200 161.600 M205.200 199.200 C 205.200 199.435,206.600 199.600,208.600 199.600 C 210.600 199.600,212.000 199.765,212.000 200.000 C 212.000 200.222,213.067 200.400,214.400 200.400 C 215.733 200.400,216.800 200.578,216.800 200.800 C 216.800 201.020,217.520 201.200,218.400 201.200 C 219.280 201.200,220.000 201.380,220.000 201.600 C 220.000 201.820,220.720 202.000,221.600 202.000 C 222.480 202.000,223.200 202.180,223.200 202.400 C 223.200 202.620,223.830 202.800,224.600 202.800 C 225.370 202.800,226.000 202.980,226.000 203.200 C 226.000 203.420,226.540 203.600,227.200 203.600 C 227.860 203.600,228.400 203.780,228.400 204.000 C 228.400 204.220,228.940 204.400,229.600 204.400 C 230.260 204.400,230.800 204.580,230.800 204.800 C 230.800 205.020,231.160 205.200,231.600 205.200 C 232.040 205.200,232.400 205.380,232.400 205.600 C 232.400 205.820,232.940 206.000,233.600 206.000 C 234.260 206.000,234.800 206.180,234.800 206.400 C 234.800 206.620,235.160 206.800,235.600 206.800 C 236.040 206.800,236.400 206.980,236.400 207.200 C 236.400 207.420,236.760 207.600,237.200 207.600 C 237.640 207.600,238.000 207.764,238.000 207.965 C 238.000 208.166,238.720 208.451,239.600 208.600 C 240.480 208.749,241.200 209.034,241.200 209.235 C 241.200 209.436,241.470 209.600,241.800 209.600 C 242.130 209.600,242.400 209.780,242.400 210.000 C 242.400 210.220,242.760 210.400,243.200 210.400 C 243.640 210.400,244.000 210.580,244.000 210.800 C 244.000 211.020,244.360 211.200,244.800 211.200 C 245.240 211.200,245.600 211.380,245.600 211.600 C 245.600 211.820,245.920 212.000,246.312 212.000 C 246.703 212.000,247.283 212.360,247.600 212.800 C 247.917 213.240,248.497 213.600,248.888 213.600 C 249.280 213.600,249.600 213.780,249.600 214.000 C 249.600 214.220,249.920 214.400,250.312 214.400 C 250.703 214.400,251.283 214.760,251.600 215.200 C 251.917 215.640,252.425 216.000,252.728 216.000 C 253.031 216.000,253.783 216.540,254.400 217.200 C 255.017 217.860,255.737 218.400,256.000 218.400 C 256.263 218.400,256.983 218.940,257.600 219.600 C 258.217 220.260,258.843 220.800,258.992 220.800 C 259.141 220.800,259.954 221.520,260.800 222.400 C 261.646 223.280,262.539 224.000,262.786 224.000 C 263.644 224.000,274.800 234.869,274.800 235.706 C 274.800 235.996,275.430 236.901,276.200 237.718 C 276.970 238.534,277.600 239.405,277.600 239.654 C 277.600 240.156,279.130 241.600,279.661 241.600 C 279.848 241.600,280.000 241.888,280.000 242.240 C 280.000 242.591,280.540 243.383,281.200 244.000 C 281.860 244.617,282.400 245.369,282.400 245.672 C 282.400 245.975,282.760 246.483,283.200 246.800 C 283.640 247.117,284.000 247.657,284.000 248.000 C 284.000 248.343,284.360 248.883,284.800 249.200 C 285.240 249.517,285.600 250.097,285.600 250.488 C 285.600 250.880,285.780 251.200,286.000 251.200 C 286.220 251.200,286.400 251.520,286.400 251.912 C 286.400 252.303,286.760 252.883,287.200 253.200 C 287.640 253.517,288.000 254.097,288.000 254.488 C 288.000 254.880,288.180 255.200,288.400 255.200 C 288.620 255.200,288.800 255.560,288.800 256.000 C 288.800 256.440,288.980 256.800,289.200 256.800 C 289.420 256.800,289.600 257.160,289.600 257.600 C 289.600 258.040,289.780 258.400,290.000 258.400 C 290.220 258.400,290.400 258.670,290.400 259.000 C 290.400 259.330,290.580 259.600,290.800 259.600 C 291.020 259.600,291.201 259.915,291.202 260.300 C 291.204 260.685,291.474 261.516,291.802 262.146 C 292.131 262.776,292.400 263.541,292.400 263.846 C 292.400 264.151,292.580 264.400,292.800 264.400 C 293.020 264.400,293.200 264.940,293.200 265.600 C 293.200 266.260,293.380 266.800,293.600 266.800 C 293.820 266.800,294.000 267.160,294.000 267.600 C 294.000 268.040,294.180 268.400,294.400 268.400 C 294.620 268.400,294.800 268.940,294.800 269.600 C 294.800 270.260,294.980 270.800,295.200 270.800 C 295.420 270.800,295.600 271.340,295.600 272.000 C 295.600 272.660,295.780 273.200,296.000 273.200 C 296.220 273.200,296.400 273.650,296.400 274.200 C 296.400 274.750,296.580 275.200,296.800 275.200 C 297.020 275.200,297.200 275.740,297.200 276.400 C 297.200 277.060,297.380 277.600,297.600 277.600 C 297.820 277.600,298.000 278.140,298.000 278.800 C 298.000 279.460,298.180 280.000,298.400 280.000 C 298.620 280.000,298.800 280.720,298.800 281.600 C 298.800 282.480,298.980 283.200,299.200 283.200 C 299.420 283.200,299.600 284.100,299.600 285.200 C 299.600 286.300,299.780 287.200,300.000 287.200 C 300.220 287.200,300.400 288.100,300.400 289.200 C 300.400 290.300,300.580 291.200,300.800 291.200 C 301.026 291.200,301.200 292.333,301.200 293.800 C 301.200 295.267,301.374 296.400,301.600 296.400 C 301.851 296.400,302.000 299.000,302.000 303.400 C 302.000 307.800,301.851 310.400,301.600 310.400 C 301.380 310.400,301.200 310.940,301.200 311.600 C 301.200 312.260,301.020 312.800,300.800 312.800 C 300.580 312.800,300.400 313.088,300.400 313.440 C 300.400 313.791,299.860 314.583,299.200 315.200 C 298.540 315.817,298.000 316.527,298.000 316.779 C 298.000 317.368,296.174 319.200,295.587 319.200 C 295.340 319.200,294.446 319.920,293.600 320.800 C 292.754 321.680,291.908 322.400,291.720 322.400 C 291.531 322.400,291.117 322.760,290.800 323.200 C 290.483 323.640,289.903 324.000,289.512 324.000 C 289.120 324.000,288.800 324.164,288.800 324.365 C 288.800 324.566,288.080 324.851,287.200 325.000 C 286.320 325.149,285.600 325.434,285.600 325.635 C 285.600 325.836,285.240 326.000,284.800 326.000 C 284.360 326.000,284.000 326.180,284.000 326.400 C 284.000 326.620,283.640 326.800,283.200 326.800 C 282.760 326.800,282.400 326.980,282.400 327.200 C 282.400 327.420,282.040 327.600,281.600 327.600 C 281.160 327.600,280.800 327.780,280.800 328.000 C 280.800 328.220,280.440 328.400,280.000 328.400 C 279.560 328.400,279.200 328.580,279.200 328.800 C 279.200 329.020,278.660 329.200,278.000 329.200 C 277.340 329.200,276.799 329.335,276.797 329.500 C 276.793 329.906,274.814 330.800,273.920 330.800 C 273.524 330.800,273.200 330.980,273.200 331.200 C 273.200 331.420,272.660 331.600,272.000 331.600 C 271.340 331.600,270.800 331.780,270.800 332.000 C 270.800 332.220,270.260 332.400,269.600 332.400 C 268.940 332.400,268.400 332.580,268.400 332.800 C 268.400 333.020,267.860 333.200,267.200 333.200 C 266.540 333.200,266.000 333.380,266.000 333.600 C 266.000 333.820,265.280 334.000,264.400 334.000 C 263.520 334.000,262.800 334.180,262.800 334.400 C 262.800 334.620,262.080 334.800,261.200 334.800 C 260.320 334.800,259.600 334.980,259.600 335.200 C 259.600 335.420,258.970 335.600,258.200 335.600 C 257.430 335.600,256.800 335.780,256.800 336.000 C 256.800 336.220,255.900 336.400,254.800 336.400 C 253.700 336.400,252.800 336.580,252.800 336.800 C 252.800 337.020,251.900 337.200,250.800 337.200 C 249.700 337.200,248.800 337.380,248.800 337.600 C 248.800 337.820,247.900 338.000,246.800 338.000 C 245.700 338.000,244.800 338.180,244.800 338.400 C 244.800 338.620,243.810 338.800,242.600 338.800 C 241.390 338.800,240.400 338.980,240.400 339.200 C 240.400 339.433,239.067 339.600,237.200 339.600 C 235.333 339.600,234.000 339.767,234.000 340.000 C 234.000 340.237,232.544 340.400,230.433 340.400 C 227.936 340.400,226.817 340.550,226.700 340.900 C 226.456 341.632,173.544 341.632,173.300 340.900 C 173.183 340.550,172.064 340.400,169.567 340.400 C 167.456 340.400,166.000 340.237,166.000 340.000 C 166.000 339.771,164.800 339.600,163.200 339.600 C 161.600 339.600,160.400 339.429,160.400 339.200 C 160.400 338.974,159.267 338.800,157.800 338.800 C 156.333 338.800,155.200 338.626,155.200 338.400 C 155.200 338.180,154.300 338.000,153.200 338.000 C 152.100 338.000,151.200 337.820,151.200 337.600 C 151.200 337.380,150.300 337.200,149.200 337.200 C 148.100 337.200,147.200 337.020,147.200 336.800 C 147.200 336.580,146.300 336.400,145.200 336.400 C 144.100 336.400,143.200 336.220,143.200 336.000 C 143.200 335.780,142.570 335.600,141.800 335.600 C 141.030 335.600,140.400 335.420,140.400 335.200 C 140.400 334.980,139.680 334.800,138.800 334.800 C 137.920 334.800,137.200 334.620,137.200 334.400 C 137.200 334.180,136.660 334.000,136.000 334.000 C 135.340 334.000,134.800 333.820,134.800 333.600 C 134.800 333.380,134.080 333.200,133.200 333.200 C 132.320 333.200,131.600 333.020,131.600 332.800 C 131.600 332.580,131.060 332.400,130.400 332.400 C 129.740 332.400,129.200 332.220,129.200 332.000 C 129.200 331.780,128.660 331.600,128.000 331.600 C 127.340 331.600,126.800 331.420,126.800 331.200 C 126.800 330.980,126.440 330.800,126.000 330.800 C 125.560 330.800,125.200 330.620,125.200 330.400 C 125.200 330.180,124.750 330.000,124.200 330.000 C 123.650 330.000,123.200 329.820,123.200 329.600 C 123.200 329.380,122.660 329.200,122.000 329.200 C 121.340 329.200,120.800 329.020,120.800 328.800 C 120.800 328.580,120.440 328.400,120.000 328.400 C 119.560 328.400,119.200 328.220,119.200 328.000 C 119.200 327.780,118.840 327.600,118.400 327.600 C 117.960 327.600,117.600 327.420,117.600 327.200 C 117.600 326.980,117.240 326.800,116.800 326.800 C 116.360 326.800,116.000 326.620,116.000 326.400 C 116.000 326.180,115.640 326.000,115.200 326.000 C 114.760 326.000,114.400 325.836,114.400 325.635 C 114.400 325.434,113.680 325.149,112.800 325.000 C 111.920 324.851,111.200 324.566,111.200 324.365 C 111.200 324.164,110.880 324.000,110.488 324.000 C 110.097 324.000,109.517 323.640,109.200 323.200 C 108.883 322.760,108.481 322.400,108.307 322.400 C 107.718 322.400,99.600 314.014,99.600 313.405 C 99.600 313.072,99.420 312.800,99.200 312.800 C 98.980 312.800,98.800 312.440,98.800 312.000 C 98.800 311.560,98.620 311.200,98.400 311.200 C 98.180 311.200,98.000 310.390,98.000 309.400 C 98.000 308.410,97.820 307.600,97.600 307.600 C 97.380 307.600,97.200 306.880,97.200 306.000 C 97.200 305.120,97.380 304.400,97.600 304.400 C 97.846 304.400,98.000 302.400,98.000 299.200 C 98.000 296.000,98.154 294.000,98.400 294.000 C 98.626 294.000,98.800 292.867,98.800 291.400 C 98.800 289.933,98.974 288.800,99.200 288.800 C 99.420 288.800,99.600 288.080,99.600 287.200 C 99.600 286.320,99.780 285.600,100.000 285.600 C 100.220 285.600,100.400 284.700,100.400 283.600 C 100.400 282.500,100.580 281.600,100.800 281.600 C 101.020 281.600,101.200 281.060,101.200 280.400 C 101.200 279.740,101.380 279.200,101.600 279.200 C 101.820 279.200,102.000 278.480,102.000 277.600 C 102.000 276.720,102.180 276.000,102.400 276.000 C 102.620 276.000,102.800 275.550,102.800 275.000 C 102.800 274.450,102.980 274.000,103.200 274.000 C 103.420 274.000,103.600 273.460,103.600 272.800 C 103.600 272.140,103.780 271.600,104.000 271.600 C 104.220 271.600,104.400 271.240,104.400 270.800 C 104.400 270.360,104.580 270.000,104.800 270.000 C 105.020 270.000,105.200 269.460,105.200 268.800 C 105.200 268.140,105.380 267.600,105.600 267.600 C 105.820 267.600,106.000 267.240,106.000 266.800 C 106.000 266.360,106.180 266.000,106.400 266.000 C 106.620 266.000,106.800 265.460,106.800 264.800 C 106.800 264.140,106.980 263.600,107.200 263.600 C 107.420 263.600,107.600 263.240,107.600 262.800 C 107.600 262.360,107.764 262.000,107.965 262.000 C 108.166 262.000,108.451 261.280,108.600 260.400 C 108.749 259.520,109.034 258.800,109.235 258.800 C 109.436 258.800,109.600 258.530,109.600 258.200 C 109.600 257.870,109.780 257.600,110.000 257.600 C 110.220 257.600,110.400 257.240,110.400 256.800 C 110.400 256.360,110.580 256.000,110.800 256.000 C 111.020 256.000,111.200 255.680,111.200 255.288 C 111.200 254.897,111.560 254.317,112.000 254.000 C 112.440 253.683,112.800 253.103,112.800 252.712 C 112.800 252.320,112.980 252.000,113.200 252.000 C 113.420 252.000,113.600 251.680,113.600 251.288 C 113.600 250.897,113.960 250.317,114.400 250.000 C 114.840 249.683,115.200 249.143,115.200 248.800 C 115.200 248.457,115.560 247.917,116.000 247.600 C 116.440 247.283,116.800 246.743,116.800 246.400 C 116.800 246.057,117.160 245.517,117.600 245.200 C 118.040 244.883,118.400 244.375,118.400 244.072 C 118.400 243.769,118.940 243.017,119.600 242.400 C 120.260 241.783,120.800 241.153,120.800 241.000 C 120.800 240.847,121.340 240.217,122.000 239.600 C 122.660 238.983,123.200 238.275,123.200 238.025 C 123.200 237.440,123.913 236.662,130.293 230.288 C 137.081 223.506,138.278 222.400,138.828 222.400 C 139.349 222.400,141.600 220.091,141.600 219.558 C 141.600 219.361,141.888 219.200,142.240 219.200 C 142.591 219.200,143.383 218.660,144.000 218.000 C 144.617 217.340,145.369 216.800,145.672 216.800 C 145.975 216.800,146.483 216.440,146.800 216.000 C 147.117 215.560,147.657 215.200,148.000 215.200 C 148.343 215.200,148.883 214.840,149.200 214.400 C 149.517 213.960,150.097 213.600,150.488 213.600 C 150.880 213.600,151.200 213.420,151.200 213.200 C 151.200 212.980,151.560 212.800,152.000 212.800 C 152.440 212.800,152.800 212.620,152.800 212.400 C 152.800 212.180,153.120 212.000,153.512 212.000 C 153.903 212.000,154.483 211.640,154.800 211.200 C 155.117 210.760,155.697 210.400,156.088 210.400 C 156.480 210.400,156.800 210.220,156.800 210.000 C 156.800 209.780,157.160 209.600,157.600 209.600 C 158.040 209.600,158.400 209.428,158.400 209.218 C 158.400 209.008,159.030 208.718,159.800 208.574 C 160.570 208.429,161.200 208.151,161.200 207.955 C 161.200 207.760,161.560 207.600,162.000 207.600 C 162.440 207.600,162.800 207.420,162.800 207.200 C 162.800 206.980,163.340 206.800,164.000 206.800 C 164.660 206.800,165.200 206.620,165.200 206.400 C 165.200 206.180,165.560 206.000,166.000 206.000 C 166.440 206.000,166.800 205.820,166.800 205.600 C 166.800 205.380,167.340 205.200,168.000 205.200 C 168.660 205.200,169.200 205.020,169.200 204.800 C 169.200 204.580,169.740 204.400,170.400 204.400 C 171.060 204.400,171.600 204.220,171.600 204.000 C 171.600 203.780,172.140 203.600,172.800 203.600 C 173.460 203.600,174.000 203.420,174.000 203.200 C 174.000 202.980,174.450 202.800,175.000 202.800 C 175.550 202.800,176.000 202.620,176.000 202.400 C 176.000 202.180,176.720 202.000,177.600 202.000 C 178.480 202.000,179.200 201.820,179.200 201.600 C 179.200 201.380,180.100 201.200,181.200 201.200 C 182.300 201.200,183.200 201.020,183.200 200.800 C 183.200 200.580,184.100 200.400,185.200 200.400 C 186.300 200.400,187.200 200.220,187.200 200.000 C 187.200 199.761,188.733 199.600,191.000 199.600 C 193.267 199.600,194.800 199.439,194.800 199.200 C 194.800 198.954,196.800 198.800,200.000 198.800 C 203.200 198.800,205.200 198.954,205.200 199.200 " stroke="none" fill="#04d404" fill-rule="evenodd"></path><path id="path1" d="" stroke="none" fill="#08d404" fill-rule="evenodd"></path><path id="path2" d="" stroke="none" fill="#08d404" fill-rule="evenodd"></path><path id="path3" d="" stroke="none" fill="#08d404" fill-rule="evenodd"></path><path id="path4" d="" stroke="none" fill="#08d404" fill-rule="evenodd"></path></g></svg>